<?xml version="1.0" standalone="no"?>
<!DOCTYPE svg PUBLIC "-//W3C//DTD SVG 1.1//EN" "http://www.w3.org/Graphics/SVG/1.1/DTD/svg11.dtd" >
<svg xmlns="http://www.w3.org/2000/svg">
<metadata></metadata>
<defs>
<font id="olympiconsregular" horiz-adv-x="1783" >
<font-face units-per-em="2048" ascent="1638" descent="-410" />
<missing-glyph horiz-adv-x="737" />
<glyph horiz-adv-x="0" />
<glyph unicode="&#xd;" horiz-adv-x="1024" />
<glyph unicode=" "  horiz-adv-x="737" />
<glyph unicode="&#x09;" horiz-adv-x="737" />
<glyph unicode="&#xa0;" horiz-adv-x="737" />
<glyph unicode="!" horiz-adv-x="1247" d="M12 305q0 -2 1 -7t1 -7q63 -78 142.5 -105.5t173.5 -27.5q72 0 140.5 8t133.5 37q39 18 71 34.5t62.5 29t61 19.5t71.5 7h48q14 0 40 -17l148 -118q8 2 25.5 19.5t19.5 25.5q6 31 -29 62.5t-84 57t-101 42t-79 16.5q-70 0 -132 -20.5t-123.5 -46t-125 -46t-135.5 -20.5 q-43 0 -78 5t-65.5 16.5t-60 27.5t-64.5 39l-29 14q-18 -4 -25.5 -16t-7.5 -29zM27 522q0 -31 19.5 -56.5t47 -47t58 -36.5t55.5 -24h29q20 0 69 -8q49 -10 105 0q53 8 69 8h23q51 6 99 29t97.5 45.5t98.5 41t102 18.5q31 0 62.5 -13.5t61.5 -34t54.5 -44t42.5 -42.5h8h7 q4 4 15 15.5t15 15.5l2 6q0 2 -1 4t-1 4q-37 39 -65.5 70t-59 52.5t-67.5 31.5t-88 10q-72 0 -137.5 -21.5t-131 -46t-132 -46t-138.5 -21.5q-49 0 -84 6t-63.5 19.5t-58 36t-66.5 57.5q-2 0 -6.5 1t-8.5 1q-33 0 -32 -31zM27 737q0 -51 45 -88t105.5 -60.5t122.5 -34.5 t97 -11q82 0 146.5 25.5t123 57t114 57.5t118.5 26q72 0 130 -43t106 -91q2 0 4 -1t4 -1t5 1l3 1l14.5 14.5l14.5 14.5l1 2t1 6q0 43 -35 75t-83 53.5t-98.5 31.5t-82.5 10q-68 0 -126.5 -23.5t-116.5 -51t-118.5 -51t-132.5 -23.5q-53 0 -94 6t-77 20.5t-70.5 40 t-73.5 66.5q-2 0 -6.5 1t-8.5 1q-33 0 -32 -31z" />
<glyph unicode="&#x22;" horiz-adv-x="124" />
<glyph unicode="#" horiz-adv-x="1519" d="M12 88q0 -4 2 -7t4 -7q6 -10 14.5 -22.5t17.5 -24t17.5 -19.5t10.5 -8h1429v74h-987v133l780 162l2 1q1 1 1 5t-1 6l-2 2q-4 4 -14 9t-14 5q-10 29 -43 101.5t-71 152.5t-72.5 150.5t-49.5 97.5q-6 12 -28.5 51t-54 92.5t-68.5 116t-73 122.5t-66.5 111.5t-49.5 82.5 q-8 12 -28.5 43.5t-44 66.5t-45 66.5t-29.5 44.5q-10 10 -25.5 27.5t-17.5 17.5h-236l131 -1032v-33q0 -31 -16 -40t-49 -20q-33 -12 -60.5 -20t-50.5 -8h-20q-12 0 -23.5 1t-21.5 1h-8q-6 0 -30 7t-30 7q-4 0 -9 -5t-5 -9q8 -14 27.5 -22.5t42 -13.5t44 -7t33.5 -2 q25 0 46.5 7t43 16.5t43 16.5t43.5 7q4 0 8.5 -1t6.5 -1q16 -104 30.5 -202.5t14.5 -203.5v-51q-39 27 -56.5 58.5t-33 59.5t-37 46t-68.5 18q0 -16 4 -25t15 -24l116 -178v-10q-4 0 -29.5 -2t-41.5 -2h-17q-6 0 -21.5 2t-31.5 4t-30.5 4t-18.5 4v8v6q2 4 8 17.5t13.5 28 t13.5 27.5t8 18l-29 43l-88 -148h-125zM33 745q0 -27 19.5 -48t45.5 -21q68 -1 68 69q0 27 -16.5 47.5t-43.5 20.5q-25 0 -49 -19.5t-24 -48.5zM137 471l74 -102l23 5q24 5 34 9q4 2 15.5 7t15.5 7v6v11l-14 43q-6 2 -25.5 4t-41 4t-41 4t-25.5 2h-9h-6z" />
<glyph unicode="$" d="M10 29q0 -14 12.5 -21.5t28 -9.5t31.5 -1t24 1q37 0 70 10t65.5 21.5t66.5 21.5t69 10q43 0 81 -10t75.5 -21.5t76.5 -21.5t80 -10q39 0 76 12.5t72.5 25.5t72.5 25.5t76 12.5q33 0 66.5 -12.5t65.5 -25.5t65 -25.5t65 -12.5q39 0 77 12.5t75 25.5t72.5 25.5t74.5 12.5 q31 0 58.5 -10.5t55.5 -21.5t54.5 -21.5t57.5 -10.5q0 12 -3.5 20.5t-15.5 14.5q-66 27 -107.5 43t-97.5 16q-39 0 -74.5 -10t-70.5 -21.5t-71 -21.5t-74 -10q-37 0 -71 10t-68 21.5t-66.5 21.5t-69.5 10q-43 0 -84 -12t-81 -25.5t-81 -25.5t-84 -12q-33 0 -63.5 12 t-60 25.5t-60.5 25.5t-63 12q-39 0 -76 -12t-74 -25.5t-72.5 -25.5t-74.5 -12h-9q-4 0 -16 2t-26.5 5t-28 5t-17.5 4q-2 -2 -3 -7t-1 -9zM10 162q0 -10 2 -24.5t17 -18.5q10 -2 30.5 -3t28.5 -1q39 0 76 10t71.5 22.5t70.5 22.5t77 10q39 0 77 -10t74.5 -22.5t73.5 -22.5 t78 -10q39 0 76 12t72.5 26.5t71.5 27t75 12.5q35 0 66.5 -12.5t64.5 -26t64.5 -25.5t66.5 -12q41 0 79 12t75 25.5t74.5 26t76.5 12.5q31 0 59.5 -9.5t56.5 -21.5t54.5 -21.5t55.5 -9.5q0 23 -19 31q-33 16 -58.5 28.5t-48 19.5t-47 11t-53.5 4q-37 0 -71.5 -10 t-68.5 -22.5t-68.5 -22.5t-73.5 -10q-2 0 -24.5 1t-49.5 5t-51.5 23.5t-20.5 50.5v143q0 2 6.5 7t8.5 7l266 207l14 14q6 10 20.5 36t32 54.5t31.5 53t21 35.5q27 49 44 77.5t17 71.5q-2 2 -2 10v11q0 8 -8 12q-10 4 -23.5 12t-13.5 13q0 2 7 20t7 23q0 2 1 13t1 17 q0 66 -43 107t-106 41q-66 0 -108 -41t-42 -107q0 -43 18.5 -72.5t48.5 -48t67.5 -24.5t74.5 -2q-12 -29 -27.5 -65t-33 -70.5t-39 -66.5t-47.5 -50l-236 -176l-385 -119q-6 -2 -17 -6t-23.5 -9.5t-21.5 -8.5t-12 -5q-8 -6 -29.5 -24.5t-45 -40t-45 -41t-27.5 -27.5 q-63 12 -127.5 -3t-122.5 -42q4 203 1 392.5t-15 389.5q-2 4 -7 8.5t-7 6.5q-10 6 -35 18.5t-53.5 26.5t-54 26.5t-36.5 16.5q0 -2 -1 -6t-1 -8q0 -25 18.5 -39.5t43 -24.5t50.5 -22.5t38 -30.5q10 -59 13 -115.5t3 -114.5v-229v-53q0 -35 -1 -78t-1 -82v-51l-3 -6t-7 -15.5 t-9 -16.5t-10 -7h-137zM662 672q0 -82 51 -127t131 -45q76 0 126 52t50 126q0 76 -52.5 127t-127.5 51q-84 0 -131 -54t-47 -130z" />
<glyph unicode="%" horiz-adv-x="1372" d="M10 0h133l13 22q14 23 18 37q4 12 14.5 41t22.5 62t22.5 62.5t14.5 41.5q0 2 2 10.5t2 10.5q0 18 -10.5 29.5t-25.5 16.5t-31.5 7t-30.5 2q-4 0 -14 -1l-11 -1zM186 463l312 -109q2 0 11 -1t13 -1q18 0 42 39t45.5 89t35.5 101t14 76v7l-280 266h-6h-8q-4 -2 -8.5 -7 t-6.5 -10zM379 1077l354 -340h88l488 207q31 12 38 26.5t7 37.5q0 49 -45 84l-332 649h-127q0 -14 5 -24.5t11 -20.5q6 -14 31 -54t56.5 -95.5t67.5 -117t67.5 -115.5t55 -95t32.5 -54q16 -31 24 -48t12 -23q8 -10 9 -17q-8 0 -27.5 -1t-42.5 -1t-42 -1t-30 -1 q-43 0 -75.5 5t-60.5 11.5t-54.5 11.5t-59.5 5q-23 0 -37 -15.5t-14 -35.5q0 -29 19.5 -42.5t44 -21.5t49 -17t35.5 -30q-4 -4 -24.5 -14t-43 -21.5t-43 -19.5t-22.5 -4l-310 280l-9 1q-9 1 -15 1q-39 0 -59.5 -15t-20.5 -56v-19zM410 162q4 -18 11 -45t13 -53.5t11.5 -45 t7.5 -18.5h137q0 23 -6 62.5t-18.5 79.5t-34 69t-52.5 29t-50 -9.5t-19 -44.5v-24zM526 1364q0 -66 43 -112t109 -46q63 0 111.5 42t48.5 108q0 31 -11.5 62.5t-27.5 51.5q-20 23 -56 36.5t-69 13.5q-31 0 -57.5 -13.5t-46 -35t-32 -49t-12.5 -58.5z" />
<glyph unicode="&#x26;" horiz-adv-x="436" />
<glyph unicode="'" horiz-adv-x="638" />
<glyph unicode="(" horiz-adv-x="778" />
<glyph unicode=")" horiz-adv-x="1169" />
<glyph unicode="*" horiz-adv-x="1433" />
<glyph unicode="+" />
<glyph unicode="," horiz-adv-x="737" d="M12 2h709v1739h-709v-1739z" />
<glyph unicode="-" d="M14 0h1755v1741h-1755v-1741z" />
<glyph unicode="." horiz-adv-x="2377" d="M10 0h2357v1741h-2357v-1741zM33 977q0 76 30.5 142.5t82 116.5t118 78.5t139.5 28.5q176 0 287 -131q14 -16 30.5 -43.5t27.5 -50.5q4 -10 7 -26.5t7 -33t11 -27.5t22 -11l14 2q16 16 16 45t11 51q41 117 136 183.5t216 66.5q61 0 121.5 -22.5t109.5 -62.5t83 -95 t44 -119l6 -37h52l1 8q1 7 5 11q25 98 79 168.5t148 111.5l31.5 10.5t23.5 6.5h156q23 0 53.5 -14.5t52.5 -24.5l6 -3l1 -1q88 -53 134 -138.5t46 -187.5q0 -92 -32 -159.5t-87 -112.5t-129 -68t-156 -27q-12 -68 -44.5 -127t-81 -103t-109 -69.5t-129.5 -25.5 q-76 0 -139.5 26.5t-110.5 71.5t-79 106.5t-44 131.5h-18q-6 -72 -39 -134.5t-83 -108.5t-115.5 -71.5t-137.5 -25.5q-76 0 -136.5 23.5t-105.5 66.5t-77 102t-50 129q-10 -2 -18 -3t-19 -1q-29 0 -51 8t-61 15h-4q-109 49 -180.5 139t-71.5 215zM139 977q0 -57 20.5 -106.5 t57.5 -85t86 -56t107 -20.5h14q6 0 9 1t5 1l6 6q20 104 79 164.5t145 113.5q2 0 6 6v3q0 51 -24.5 95t-62.5 75.5t-86 50t-93 18.5q-55 0 -104.5 -20.5t-85.5 -57.5t-57.5 -85t-21.5 -103zM543 623q0 -51 23.5 -95.5t61.5 -77t86 -52t95 -19.5q49 0 97 20.5t86 54t61.5 80 t23.5 97.5q0 6 -14 14t-31.5 17.5t-34 16.5t-20.5 11q-27 16 -41 32.5t-41 43.5q-12 10 -23.5 35.5t-22.5 52.5t-22.5 47.5t-23.5 20.5q-18 0 -31 -13q-18 -98 -78.5 -168.5t-150.5 -109.5v-8zM573 772q0 -4 1 -5l1 -1q4 6 15.5 16.5t23 22.5t20.5 24.5t9 22.5v6 q-6 -6 -17.5 -15t-23.5 -21.5t-20.5 -26t-8.5 -23.5zM920 1028l2 -22q0 -4 6 -5l6 -3l6 -3q49 -27 88 -50t80 -73q10 -12 19.5 -35.5t18.5 -46t19.5 -40t24.5 -17.5l16 2q23 63 49.5 112.5t79.5 98.5q6 6 25.5 16.5t40 21.5t37 21.5t16.5 16.5q0 41 -16.5 77t-43 65.5 t-60.5 52t-66 38.5h-8q-16 0 -36 6.5t-36 6.5q-49 0 -96.5 -18.5t-86 -51.5t-62 -76t-23.5 -94zM948 877q10 -29 38 -61t58 -44v4q0 6 -12 22.5t-28.5 34t-33 31t-22.5 13.5zM1303 623q0 -39 17 -74t44 -63.5t60.5 -50.5t66.5 -34h6q2 0 11.5 -3t13.5 -3h49h6q45 0 92 18.5 t84 50.5t60.5 75t23.5 94v2q-86 47 -146.5 111.5t-80.5 166.5q-4 12 -18.5 15.5t-26.5 3.5h-13q-10 -16 -13 -37t-11 -37q-16 -35 -39 -74t-55 -61q-12 -10 -35 -21.5t-44.5 -24.5t-36.5 -26.5t-15 -27.5zM1331 778h2q8 0 22.5 12.5t30 30t26.5 33.5t11 27v2 q-31 -18 -56.5 -46t-35.5 -59zM1706 1006q59 -29 107.5 -68t78.5 -98q6 -8 11.5 -24.5t10.5 -34t11 -34t12 -24.5q4 -6 15.5 -7t19.5 -1h8q55 0 102.5 22.5t82.5 59.5t54 86t19 102t-21.5 102.5t-57 86t-83.5 59t-102 22.5q-47 0 -95 -19t-87 -52t-62.5 -77t-23.5 -93v-8z M1729 872q0 -6 4 -6t4 6q0 5 -4 5t-4 -5zM1739 852l14 -20q14 -19 23 -29q4 -8 11 -14.5t15 -6.5q0 25 -25.5 48.5t-37.5 35.5v-14zM1802 778q0 -6 4 -6q6 0 6 6t-6 6q-4 0 -4 -6zM1808 772q0 -6 7 -6q2 0 2 6t-2 6q-6 0 -7 -6z" />
<glyph unicode="/" horiz-adv-x="880" d="M2 725q0 43 16 88v2l2 5q3 5 5 9q4 12 11 24.5t15 23.5l2 -3q8 -31 29 -59v-2q0 -2 7 -12t11 -17q10 -12 21.5 -26.5t21.5 -24.5q4 -4 13.5 -12t20.5 -17.5t20.5 -17.5t13.5 -10q2 -4 10 -12.5t10 -10.5q4 -8 11.5 -14t11.5 -16q10 -20 17.5 -43t7.5 -45q0 -18 -4.5 -34 t-8.5 -32q-4 35 -14 68.5t-29 62.5q-4 6 -10 14.5t-12 16.5q-29 29 -57.5 59.5t-47.5 69.5q-6 10 -16 30.5t-10 22.5v2l-6 15q-7 16 -11 26h-2v2l-2 -2q0 -2 -2 -15.5t-2 -19.5q-2 -2 -3 -21.5t-1 -27.5v-2v-4v-2q0 -74 27.5 -138.5t74.5 -117.5v-2q-23 16 -42 35.5 t-38 40.5q-61 61 -61 143zM31 315q0 6 8 12.5t12 8.5l105 29q2 0 15 2t29.5 5t32 5t25.5 4q8 2 24.5 3t33 3t29.5 3t17 1h125l144 -14q4 0 33.5 -6t44.5 -11q23 -4 45 -11t45 -13q6 -4 13 -8t7 -13q0 -10 -11 -20t-22 -10h-2l-30 10h-4q-4 0 -28 -17.5t-38 -27.5 q-47 -33 -86 -76t-55 -98q-2 -6 -5 -14.5t-3 -16.5q14 -2 27 -10t13 -23q0 -4 -1 -8t-9 -4h-151v8l-1 2q-1 2 -1 4q0 6 2 14.5t6 12.5l2 1q2 1 4 3q2 0 2 2q4 18 7 33.5t11 34.5v2q25 43 57 70.5t75 54.5q6 4 30.5 15t32.5 15q4 0 21.5 7.5t27.5 11.5q4 0 6 2q2 0 2 2 q4 0 8 2l3 2v4h-2t-5 2q-2 0 -3 1l-1 1q-66 16 -134 19.5t-134 3.5h-8h-21h-20l-180 -13l-4 -2q74 -29 116.5 -99.5t42.5 -147.5v-13q0 -8 -2 -12q-12 -10 -15 -8t-9 -12q-2 -2 -2 -13q0 -6 2 -10h-45q-13 0 -13 10q0 16 14.5 25.5t28.5 9.5q0 29 -19.5 64.5t-35.5 56.5 l-5 4t-7 8l-35.5 35.5t-38.5 34.5q-6 2 -25.5 13t-25.5 15h6q-4 2 -13.5 8.5t-13.5 10.5h-2h-2l-35 -10q-8 0 -20 10t-12 20zM102 1012q0 43 14.5 84t41.5 75q6 8 20.5 24.5t16.5 21.5l6 6v-4q0 -8 -1 -13.5t-1 -13.5q0 -49 18.5 -92t46.5 -82q33 -41 77 -68.5t87 -56.5 q6 -6 18 -17l13 -10q39 -35 73.5 -72.5t55.5 -84.5q16 -47 16 -101q0 -41 -13 -81t-48 -68q0 -2 -6.5 -5t-6.5 -5q-4 -2 -10 -7.5t-8 -5.5t-2 -2q-4 -2 -13.5 -7t-13.5 -7q-6 -2 -14 -4t-10 -2q2 0 9 4t11 6l4 4q37 27 57.5 73t20.5 93q0 37 -15.5 72.5t-38 67.5t-51 59.5 t-55.5 50.5q-29 23 -57.5 39t-52.5 41q-59 53 -78.5 123.5t-19.5 146.5l-1 1q-2 1 -2 -1q-2 -4 -7 -11t-7 -12q-2 -2 -3 -5t-3 -7q-2 -6 -4 -13l-2 -7v-2q-8 -23 -9 -45.5t-1 -47.5q0 -31 4 -60.5t14 -57.5v-2q0 -2 3 -12.5t5 -14.5q16 -41 36 -71.5t48 -65.5q0 -2 2 -6 t4 -4q41 -43 74 -89.5t33 -107.5q0 -35 -11.5 -66.5t-35.5 -54.5q2 10 6 18.5t8 18.5q4 14 8 28.5t4 30.5q0 35 -12 68t-35 57l-114 142q-18 20 -33 44.5t-29 51.5q-2 0 -3 3l-1 3q-4 6 -7 15.5t-3 11.5q-16 45 -17 88zM260 1276q0 39 15.5 70.5t40 57.5t56 45t64.5 34 q4 2 19.5 7t19.5 9q8 2 23 7l16 5h4q-20 -39 -20 -81q0 -63 34.5 -116.5t81.5 -94.5q2 -4 12.5 -12.5t12.5 -10.5q0 -6 6 -6q68 -47 117 -107.5t86 -134.5q0 -2 3 -7t3 -9q25 -61 25 -127q0 -115 -54.5 -202t-152.5 -140q-2 -2 -12.5 -7t-14.5 -5q-6 -4 -17 -7l-12 -4 q96 49 143.5 140.5t47.5 195.5q0 72 -24.5 137.5t-65.5 124.5q-29 41 -67 74t-72 72q-49 45 -72 114q-23 51 -23 103q0 23 4.5 47.5t14.5 48.5q-4 0 -21.5 -8t-27.5 -14q-57 -31 -95.5 -79t-38.5 -116q0 -10 1.5 -20.5t1.5 -16.5q23 -102 92 -186q4 -6 12 -17.5t17.5 -22.5 t17.5 -20.5t10 -11.5l86 -84q39 -39 62.5 -102.5t23.5 -116.5v-4v-2q-4 23 -11 44t-16 44q-16 39 -39.5 71.5t-52.5 61.5q-6 6 -20.5 18.5t-30.5 26.5t-30.5 26.5t-18.5 18.5q-8 6 -22.5 21.5t-18.5 19.5q-10 10 -26.5 30.5t-16.5 22.5q-23 27 -38 55.5t-30 61.5 q-12 37 -12 78zM453 412v2v-2zM614 436v2v2v-2v-2zM643 672h2l-1 -1t-1 1z" />
<glyph unicode="0" horiz-adv-x="100" />
<glyph unicode="1" horiz-adv-x="1247" d="M12 612q0 -4 1 -6l1 -2q4 -4 15.5 -14t15.5 -15l2 -1t4 -1t4 1t4 1q47 47 105.5 90.5t130.5 43.5q63 0 118.5 -26t114 -57.5t123 -57t146.5 -25.5q35 0 97 11t122.5 34.5t105.5 60.5t45 88q0 31 -32 31q-2 0 -7.5 -1t-7.5 -1q-41 -41 -74.5 -66.5t-69.5 -40t-77 -20.5 t-94 -6q-72 0 -132.5 23.5t-118.5 51t-116.5 51t-126.5 23.5q-33 0 -83 -10t-98 -31.5t-83 -53.5t-35 -75zM27 395l2 -6q4 -4 15 -15.5t15 -15.5h7h8q18 18 42.5 42t54.5 44.5t61.5 34t62.5 13.5q53 0 102 -18.5t98.5 -41t97.5 -45t99 -29.5h21q18 0 40.5 -1t47.5 -1h39h28 q23 0 46.5 1t43.5 1h29q25 8 55.5 23.5t58 37t47 47.5t19.5 56q0 31 -32 31q-2 0 -7.5 -1t-7.5 -1q-37 -35 -65.5 -57.5t-58 -36t-64.5 -19.5t-84 -6q-72 0 -138.5 21.5t-132 46t-132 46t-136.5 21.5q-51 0 -87 -10t-66.5 -31.5t-60 -52.5t-66.5 -70q0 -2 -1 -4t-1 -4z M45 203q0 -8 17.5 -25.5t25.5 -19.5l148 118q27 16 40 17h48q39 0 70.5 -7t62 -19.5t61.5 -29t72 -34.5q66 -29 134.5 -37t139.5 -8q94 0 173 27.5t143 105.5q0 2 1 7t1 7q0 16 -7.5 28.5t-23.5 16.5q-2 0 -13.5 -5t-17.5 -9q-35 -23 -64.5 -39t-60 -27.5t-65.5 -16.5 t-78 -5q-72 0 -135.5 20.5t-125 46t-123.5 46t-132 20.5q-29 0 -80 -16.5t-100.5 -42t-83 -57t-27.5 -62.5z" />
<glyph unicode="2" horiz-adv-x="1576" d="M14 627l31 -23q23 0 79 -1t119.5 -3t120 -5t78.5 -5q12 0 41 -5t33 -10q2 -2 8 -10t13.5 -19t14.5 -19.5t9 -10.5q4 -6 26.5 -16.5t30.5 -12.5q14 8 20.5 23.5t10.5 28.5h295l37 36v191q0 2 9 7t14 9h6h8l149 -131l152 152l-205 237l168 185v352q0 10 -17.5 13t-25.5 3 q-31 0 -40 -44t-10 -100t-3 -109.5t-21 -71.5l-280 -295q0 -14 -2 -48t-4 -71t-4.5 -70.5t-4.5 -46.5q0 -8 -6 -36.5t-8 -36.5q-2 -4 -7 -8.5t-9 -6.5h-15q-10 0 -21 -1t-22 -1h-16q-45 0 -71.5 9.5t-42 21.5t-23.5 21.5t-17 9.5q-14 0 -29.5 -10.5t-28.5 -23.5t-23.5 -27.5 t-14.5 -20.5h-502zM559 596q0 23 11.5 47.5t39.5 24.5q0 -6 1 -22.5t-1 -36t-6 -38t-14 -26.5q-23 10 -27 21.5t-4 29.5zM780 1217q0 -41 36 -77t77 -36q47 0 71.5 35t24.5 78q0 57 -27.5 77.5t-80.5 20.5q-45 0 -73 -27.5t-28 -70.5zM885 193q-4 -4 1 -16.5t12 -25 t16.5 -22.5t15.5 -10l383 -31q4 -6 17 -20.5t30.5 -27.5t33 -25.5t21.5 -14.5q6 0 12 -2q2 -2 58 -2q29 0 42 1t21 1t9.5 1t5.5 1q-8 8 -26.5 28.5t-40 44t-41 44t-25.5 30.5q-2 4 -8.5 15.5t-6.5 13.5l-29 502zM1092 221v15l176 178v-211q-6 0 -23.5 1t-36.5 1 q-18 0 -34.5 1t-22.5 1q-14 0 -36.5 5t-22.5 9z" />
<glyph unicode="3" horiz-adv-x="1519" d="M14 0h1432l7 8t16.5 19.5t18.5 23.5t15 23q4 8 4 14h-121l-88 148l-30 -43q2 -4 9 -17.5t13 -28t12.5 -28t10.5 -17.5v-6v-8q-4 -2 -19.5 -4t-32 -4t-32 -4t-21.5 -2h-18q-16 0 -40 2t-30 2v10l119 178q8 14 13 23.5t5 25.5q-47 0 -69.5 -18t-37.5 -46t-33.5 -59.5 t-55.5 -58.5q0 4 -1 24.5t-1 26.5q0 104 15.5 202.5t31.5 203.5q2 0 6 1t8 1q23 0 44.5 -7t43 -16.5t44 -16.5t46.5 -7q12 0 34 2t44.5 7t42 13t27.5 23q0 4 -6 9t-10 5q-2 0 -11.5 -2t-18.5 -5t-17.5 -5t-10.5 -2h-12q-8 0 -19.5 -1t-23.5 -1h-19q-23 0 -52 8t-60 20 q-33 10 -50.5 19.5t-17.5 40.5q0 6 1 17.5t1 15.5l129 1032h-231q-4 0 -19.5 -17.5t-25.5 -27.5q-10 -12 -31.5 -44t-45.5 -67t-44.5 -66.5t-26.5 -43.5q-20 -31 -51 -82.5t-66.5 -111.5t-72.5 -122.5t-67.5 -116t-52 -92.5t-28.5 -51q-10 -18 -29.5 -56t-43 -87t-49 -104.5 t-49 -105.5t-41 -89t-25.5 -60q-4 0 -14.5 -5t-14.5 -9q-4 0 -4 -8q0 -6 4 -6l783 -162v-133h-990v-74zM1225 397q2 -2 13 -7t15 -7q10 -4 34 -9t26 -5l73 102h-8h-6q-6 0 -25.5 -2t-41 -4t-41 -4t-25.5 -4q-4 -4 -9 -21.5t-5 -21.5v-11v-6zM1354 745q0 -70 71 -69 q25 0 44.5 21.5t19.5 47.5q0 29 -24.5 48.5t-51.5 19.5q-25 0 -42 -20.5t-17 -47.5z" />
<glyph unicode="4" d="M10 10q31 0 58.5 10.5t54.5 21.5t54.5 21.5t58.5 10.5q39 0 75.5 -12.5t72.5 -25.5t73 -25.5t78 -12.5q33 0 65.5 12.5t64 25.5t64.5 25.5t68 12.5q39 0 75.5 -12.5t72.5 -25.5t73 -25.5t78 -12.5t78.5 10t75.5 21.5t76 21.5t81 10q35 0 68.5 -10t66.5 -21.5t65.5 -21.5 t69.5 -10q8 0 24.5 -1t32 1t28 9t12.5 22q0 4 -1 9t-4 7q-4 -2 -16 -4t-27.5 -5t-27.5 -5t-17 -2h-8q-39 0 -74.5 12t-72.5 25.5t-74 25.5t-76 12q-33 0 -63.5 -12t-60 -25.5t-60.5 -25.5t-64 -12q-43 0 -83.5 12t-80.5 25.5t-80 25.5t-83 12q-37 0 -71 -10t-67.5 -21.5 t-67.5 -21.5t-71 -10t-72.5 10t-71.5 21.5t-72 21.5t-75 10q-55 0 -97 -16t-107 -43q-12 -6 -15.5 -14t-3.5 -21zM10 131q29 0 56.5 9.5t55.5 21.5t55.5 21.5t58.5 9.5q39 0 76.5 -12.5t74.5 -26t75 -25.5t79 -12q35 0 66.5 12t64.5 25.5t64.5 26t66.5 12.5q39 0 74.5 -12.5 t71.5 -27t73 -26.5t76 -12t76.5 10t74.5 22.5t74 22.5t78 10q39 0 75.5 -10t71.5 -22.5t71 -22.5t77 -10q8 0 28.5 1t30.5 3q14 4 16.5 18.5t2.5 24.5h-138q-4 0 -11 12t-12 21.5t-5 11.5v51q0 39 -1 82t-1 78v53v229q0 57 4 113.5t12 116.5q12 18 38 30.5t50.5 22.5 t43 24.5t18.5 39.5q0 4 -1.5 8t-1.5 6q-10 -4 -35.5 -16.5t-53 -26.5t-53 -26.5t-34.5 -18.5q-4 -2 -9 -6t-7 -9q-12 -199 -15 -390t1 -392q-57 27 -122 42t-128 3q-6 8 -27.5 27.5t-45 41t-45 40t-30.5 24.5q-2 2 -11 5t-21.5 8.5t-23.5 9.5t-17 6l-383 119l-238 176 q-27 18 -48.5 50t-38.5 66.5t-32.5 70.5t-27.5 65q37 -4 74.5 2t67.5 24.5t48 48t18 72.5q0 66 -41.5 107t-107.5 41q-63 0 -106.5 -41t-43.5 -107q0 -6 1.5 -17t1.5 -13q0 -4 7 -22.5t7 -20.5q0 -4 -13.5 -12.5t-23.5 -12.5q-8 -4 -8 -12v-11q0 -4 -2 -10q0 -23 5 -39 t13 -32.5t19.5 -35t25.5 -42.5q6 -10 20.5 -35t31 -53.5t30.5 -54t21 -36.5l14 -14l266 -207q4 -2 9.5 -7t5.5 -7v-143q6 -31 -20 -50.5t-52.5 -23.5t-49 -5t-24.5 -1q-39 0 -73.5 10t-68.5 22.5t-69 22.5t-71 10q-29 0 -53.5 -4t-47 -11t-48.5 -19.5t-58 -28.5 q-18 -8 -19 -31zM764 678q0 -74 50 -126t126 -52q80 0 131 45t51 127q0 76 -47 130t-131 54q-76 0 -128 -51t-52 -127z" />
<glyph unicode="5" horiz-adv-x="1372" d="M12 1008q0 -23 8.5 -37.5t38.5 -26.5l486 -207h90l352 340l1 7q1 8 1 12q0 41 -19.5 56t-58.5 15q-6 0 -16 -1l-10 -1l-310 -280q-4 -4 -23.5 4t-42 19.5t-43 21.5t-24.5 14q10 20 35 29.5t49.5 17.5t44 21.5t19.5 42.5q0 20 -15.5 35.5t-35.5 15.5q-33 0 -59.5 -5 t-54.5 -11.5t-60.5 -11.5t-77.5 -5q-8 0 -27.5 1t-42.5 1t-42 1t-28 1l9 17q2 6 12 23.5t25 47.5q6 12 30.5 53.5t56 95.5t67.5 115.5t67.5 117t55.5 95t32 54.5q4 10 11 20t7 25h-129l-332 -649q-47 -35 -47 -84zM528 1356q0 -66 50.5 -108t111.5 -42q66 0 109 46t43 112 q0 61 -43 108.5t-107 47.5q-29 0 -65.5 -13.5t-55.5 -36.5q-20 -20 -31.5 -51.5t-11.5 -62.5zM709 657q0 -25 14 -76t35.5 -101t45 -89t42.5 -39q4 0 13 1t11 1l314 109l-166 450q-2 4 -7 9.5t-7 7.5h-9h-8l-278 -266v-7zM778 0h135q2 0 8.5 18.5t13.5 45t13 53t10 45.5 q0 2 1.5 11t1.5 13q0 35 -20.5 44.5t-51.5 9.5t-52.5 -29t-33.5 -69t-18.5 -79.5t-6.5 -62.5zM1116 287q0 -2 1 -10.5t3 -10.5q4 -12 15.5 -41.5t22.5 -62.5t21.5 -61.5t14.5 -41.5q4 -14 18 -37l13 -22h131l-117 340l-10 1t-15 1q-14 0 -30.5 -2t-31.5 -7t-25.5 -16.5 t-10.5 -29.5z" />
<glyph unicode="6" horiz-adv-x="3010" d="M8 1114v2q0 18 11.5 33.5t29 27t35.5 17.5t33 6q31 0 58.5 -14.5t60.5 -16.5q63 -4 129.5 -11t130.5 -7h10h39h12q4 2 16.5 8t12.5 17v4l-11 18v6q0 14 19 15q20 0 22 -16.5t17 -22.5q6 -4 31.5 -9.5t33.5 -9.5v-6q0 -8 -15 -15t-32.5 -19.5t-33 -30t-15.5 -48.5 q0 -16 12.5 -27t31 -17.5t37.5 -9.5t32 -3q0 2 -3 8t-4 12.5t3 10.5t16 4q0 2 -1 10t-1 21q0 27 16 26h4q4 -4 23.5 -15t24.5 -15h8h10q4 2 11 7l7 5q6 -6 14.5 -16.5t18.5 -22.5t18.5 -22.5t14.5 -14.5l2 -6q0 -12 -6 -16.5t-13.5 -5.5t-15.5 -3t-12 -8q-4 -4 -6 -19.5 t-4 -19.5q-2 -2 -10.5 -11t-18.5 -19.5t-20.5 -20.5t-16.5 -14q-8 -8 -15 -21.5t-13.5 -26t-13.5 -21.5t-15 -7v-64q-12 0 -18.5 6.5t-10.5 12.5t-11 12t-20 6q-23 0 -40 -4t-42 -16q0 -4 -1 -12.5t-1 -12.5q0 -14 5.5 -27.5t25.5 -13.5t37 19q-4 -12 1 -29.5t16.5 -34 t24.5 -29t28 -12.5h6l28 21h3q47 0 72.5 -6.5t44 -18.5t37 -30.5t50.5 -41.5q14 -10 29.5 -15t29 -11t21.5 -16.5t8 -30.5q0 -43 -5 -62.5t-17 -30t-30.5 -18.5t-43.5 -31q-2 -2 -24.5 -34.5t-49 -72.5t-48 -75t-21.5 -43v-24q0 -14 10 -25h-10q-31 0 -43.5 19.5t-12.5 48.5 q0 53 9.5 106t9.5 111v8v35v12q-4 12 -15.5 25.5t-22.5 27t-19.5 26.5t-8.5 25v103q0 4 -41 27.5t-92 54t-96 60.5t-53 46q-2 4 -11.5 19.5t-19.5 33t-18.5 33t-8.5 19.5v16v33v29v16q-2 27 -26.5 47t-56 35.5t-65.5 24t-54 8.5q-25 0 -39.5 -15.5t-36.5 -15.5 q-18 0 -24.5 7t-6.5 19t2 25.5t-4 26.5q-4 4 -17.5 12t-21.5 6zM424 1212q0 12 10 13.5t19 1.5q23 0 48 -8.5t38 -30.5q-25 -4 -50.5 -8t-52.5 -4q0 16 -6 20t-6 16zM633 1397q35 16 57.5 18t57.5 2t58 -3t62 -7l-67 -57l-2 -1q-2 -1 -6 -1q-10 0 -13.5 6t-15.5 6 q-14 0 -19.5 -9.5t-8.5 -20.5t-9 -20.5t-22 -9.5q-12 0 -24.5 2.5t-12.5 16.5q0 12 5 18t17 13q-14 16 -30.5 23t-26.5 24zM651 1231q0 12 10.5 14t18.5 2q72 0 125 -45t53 -121q-33 0 -56.5 18.5t-56.5 24.5l-1 2q-1 2 -1 7q0 23 31 18q-10 20 -29.5 29.5t-41 15.5t-37 12 t-15.5 23zM709 653l8 6l23 -10q24 -10 34 -16q2 -2 5 -4t3 -6h-4q-38 -1 -69 30zM793 1321v4v6q45 45 85 57.5t105 18.5q-6 10 8.5 17.5t36 12.5t42 7t26.5 2h10q10 0 20.5 -1t18.5 -5t8 -10q0 -12 -17.5 -11.5t-21.5 -11.5q2 -10 10.5 -11t12.5 -1q25 0 41 7t47 7 q0 -14 -15 -29l-30 -30q-2 -4 -4 -17.5t-3.5 -28t-2.5 -26.5t-1 -18h-32l-5 -10q-4 -9 1 -15l9 -9t9 -7q-8 -12 -17.5 -18.5t-18.5 -10.5t-19.5 -8t-18.5 -13l-67 -65q-12 -12 -19.5 -16.5t-19.5 -4.5q-33 0 -41 34t-12.5 76t-13.5 76t-46 34q-10 0 -20.5 -4.5t-22.5 -4.5 h-4q-2 0 -9 11.5t-9 15.5zM1141 1133v2v6q2 4 4 11t6 9q2 -2 9 -5t9 -5l5 -5q4 -5 6 -5q4 0 15 5l11 5q2 2 11 2h10v-35h-15q-16 0 -38.5 2t-32.5 13zM1235 645q0 31 14.5 62.5t38 56t54 41t65.5 16.5q12 0 23.5 -7t20.5 -16.5t18.5 -16.5t21.5 -7h133q2 0 4 6t4 13v6 q0 10 -18.5 19t-18.5 11l-2 7q0 8 14.5 20t24.5 12q4 0 15.5 1t21.5 1q12 0 22.5 -1t14.5 -1q0 14 -12.5 23.5t-28.5 14.5t-32.5 7t-24.5 2q-14 0 -25.5 -23.5t-26.5 -33.5q-4 4 -9 10t-9 9l-1 1t-3 1t-3 -1l-1 -1l-10 -9l-4 -2q-16 0 -29.5 21.5t-32.5 27.5h-6h-4 q-25 -8 -43.5 -28.5t-32.5 -36.5q-8 -4 -18 -4q-23 0 -27 12t-4 31q0 29 12 25.5t37 0.5q2 0 4 4.5t4 6.5q16 20 32.5 42.5t36 39t45.5 22.5t58 -2q-4 29 10.5 36t30.5 7t32.5 3t20.5 22q4 14 -3 16t-13 2q-16 0 -29.5 -6t-29.5 -6q-20 0 -21 14q0 2 1 5l1 3l19 27q0 2 -1 3 t-1 5q-25 0 -32 -18.5t-11 -40t-13.5 -39t-38.5 -17.5q-25 0 -30.5 18.5t-5.5 39.5v18q0 2 10 13q10 8 27.5 23t36 30.5t32.5 28t16 12.5q8 8 14.5 9t16.5 1q12 0 17.5 -6t8.5 -15.5t7 -17.5t12 -10q29 -10 43.5 -9t24.5 -28q4 0 13 -1t13 -1q23 0 38.5 4t19.5 31h104 q27 39 52.5 44t78.5 -1q18 45 59.5 57t84.5 16l6 4q6 5 10 9q4 2 14.5 10t14.5 8q6 0 14 -7t17.5 -16.5l16.5 -16.5l9 -9q-10 -4 -13 -15.5t-7 -21.5q6 0 33.5 5t33.5 5h10q31 0 61 -10t60 -10q27 0 44.5 2t41.5 18l94 -49q8 0 30 -9t28 -9h16h31h29h18l7 -2q7 -2 9 -6 l6.5 -6.5t6.5 -4.5q4 -2 26.5 -5t28.5 -3q0 -2 1 -9t1 -11v-17q0 -10 -14 -10h-6l-19 10h-6h-4q-2 -4 -19.5 -15t-17.5 -13q-6 -2 -16.5 -6.5t-22.5 -9.5t-22.5 -9t-14.5 -6q-4 -8 -10 -20.5t-14.5 -24.5t-17.5 -21.5t-19 -9.5q-14 0 -15.5 14.5t-1.5 22.5q0 23 6.5 35 t34.5 24q-6 10 -12 11h-4h-2l-31 -31h-6h-12q-2 0 -5 6l-3 6q-4 0 -15.5 -6t-15.5 -6q-2 0 -9 5t-7 7h-7q-18 0 -36.5 -15t-22.5 -34q14 -4 21.5 -10t7.5 -21q0 -29 -13.5 -53t-30 -47t-35 -46.5t-26.5 -49.5h-12q0 4 -2 24.5t-17 24.5q-27 -23 -28.5 -46.5t2.5 -58.5 q-23 -27 -54.5 -44t-60.5 -31v-11q0 -10 6 -18t6 -18q0 -16 -10 -19.5t-20 -6.5t-17.5 -12.5t-1.5 -37.5q-18 0 -33.5 18.5t-25.5 43t-16.5 50t-8.5 39.5q-43 -25 -56 -39t-17 -26t-7.5 -25.5t-23.5 -32.5h-4q-12 0 -22.5 17.5t-20.5 40t-23.5 44t-34.5 32.5q-20 8 -35.5 13 t-28.5 9t-26.5 11.5t-31.5 21.5h-5q-12 0 -13 -8t-1 -15q0 -12 9.5 -19t22.5 -11t26.5 -7.5t19.5 -5.5v-8l-68 -67h-12q-23 0 -40 14t-29.5 33.5t-22.5 40t-19 34.5q0 -4 -1 -11l-1 -7q0 -49 28 -91t81 -42q0 -14 -7 -24.5t-16 -22.5l-57 -76v-8q0 -16 6 -28.5t6 -31.5 q0 -16 -11 -33.5t-23.5 -34t-20.5 -31.5t-2 -30q-16 -33 -32.5 -41t-43.5 -8h-16q-10 0 -12 2q-41 53 -56.5 115.5t0.5 128.5q-14 6 -18 15.5t-7 20.5t-7.5 21.5t-16.5 18.5q-29 2 -61 2q-31 0 -57.5 8t-44 27.5t-17.5 60.5zM1298 1004q0 23 21.5 43t44.5 20 q20 0 23.5 -14.5t3.5 -26.5q0 -27 -8.5 -42t-36.5 -15q0 18 12 28.5t12 24.5q0 4 -1 5l-1 1q-4 2 -9 6t-9 4q-12 0 -17.5 -5t-8.5 -12t-8 -12t-18 -5zM1626 756q0 -10 6 -11q8 0 8 11q0 8 -8 8q-6 0 -6 -8zM1706 330q0 6 7 18t16.5 26.5t19.5 25t16 10.5q0 -12 1 -33 t0 -39.5t-8 -32.5t-21 -14q-31 0 -31 39zM1819 1227h20v-29q-4 4 -12 11.5t-8 17.5zM1870 1249v25q0 4 9 10t21.5 11t24.5 9.5t19 8.5h6h4l5 -5t3 -8l2 -2q0 -2 -13.5 -9t-29.5 -16t-31.5 -16.5t-19.5 -7.5zM2163 520h8l74 -67v-9h-27zM2284 506q0 20 18 38.5t41 18.5 q0 -27 -5 -50.5t-34 -23.5q-20 1 -20 17zM2312 291q0 20 18.5 39.5t45 36t54.5 29t44 20.5q12 -10 16 -17.5t8.5 -11.5t12.5 -6t29 -2v37q18 -12 22 -36t14 -40q6 -6 23.5 -28.5t23.5 -26.5q-6 -25 -21 -60t-26 -45q-4 -2 -12 -3t-12 -1q-18 0 -28.5 8.5t-21 17.5t-22 17 t-29.5 8q-35 0 -63.5 -6t-63.5 -6q0 23 -6 38t-6 38zM2462 481q14 4 20 6t19 2q6 0 19 -5t25.5 -13t21.5 -15t9 -12v-16q-37 0 -67.5 8t-46.5 45zM2462 801q10 6 25.5 20.5t28.5 30.5t23.5 28.5t12.5 12.5q0 -31 -13.5 -65.5t-52.5 -34.5h-12t-12 8zM2718 98v17l47 45 q0 -2 1 -3t1 -5q0 -18 -13.5 -36t-35.5 -18zM2779 211q0 6 4 6q6 -4 6 -6t-5 -3t-5 3zM2791 164v33l31 -9q0 -25 -31 -24z" />
<glyph unicode="7" horiz-adv-x="2207" d="M18 629q-4 -125 109 -228q88 -82 219 -135q307 -129 696 -129q231 0 428 43q123 25 223.5 64t178.5 88q188 121 184 284q-4 203 -313 338q-145 63 -318.5 94t-373.5 31q-92 0 -178.5 -7t-176.5 -21q-389 -68 -577 -232q-101 -90 -101 -190zM115 629q35 172 233 266 q35 -10 70 -19.5t69 -17.5l101 -20q-41 -37 -71 -96.5t-34 -112.5h-368zM119 588h364q0 -78 99 -209l-82 -21q-47 -10 -84 -18t-68 -18q-84 43 -131 88q-98 88 -98 178zM410 291q53 16 103 28.5t99 22.5q53 -53 96.5 -88t75.5 -57q-92 12 -184 36.5t-190 57.5zM410 926 q72 33 162.5 55.5t207.5 36.5q-53 -35 -95 -71t-73 -73q-80 16 -130 28.5t-72 23.5zM555 590l440 -2v-158q-63 0 -149 -10t-197 -27q-37 14 -69 82q-29 66 -25 115zM555 629q-12 90 90 192q109 -16 195.5 -26.5t154.5 -10.5v-155h-440zM672 860q41 51 92 93t117 75 q27 2 54.5 3t59.5 1v-203q-72 0 -151.5 7.5t-171.5 23.5zM678 358q37 6 115.5 15.5t201.5 19.5v-213l-106 2q-133 80 -211 176zM1085 180v209q76 -4 156 -10t168 -21q-127 -133 -231 -174zM1085 430v158l453 2q0 -84 -92 -197q-92 16 -180 26.5t-181 10.5zM1085 629v155 q66 0 152 11.5t199 33.5q37 -37 69 -96q33 -57 33 -104h-453zM1085 829v203q58 0 101 -6q131 -61 223 -166q-104 -25 -324 -31zM1288 1022q201 -30 381 -96q-43 -14 -75.5 -24.5t-57.5 -14.5l-66 -15q-82 92 -182 150zM1300 201q82 47 164 141q86 -18 137.5 -29.5 t67.5 -21.5q-72 -33 -163 -56.5t-206 -33.5zM1501 381q106 127 107 207h356q0 -76 -78 -160q-63 -63 -149 -106q-80 23 -138.5 38t-97.5 21zM1501 838q78 16 135.5 30.5t92.5 26.5q37 -16 66.5 -34.5t57.5 -41.5q111 -96 111 -190h-362q0 92 -101 209z" />
<glyph unicode="8" horiz-adv-x="1243" d="M12 575q0 -123 46 -228t126 -183t187.5 -122t228.5 -44q119 0 223.5 47t180 127t119.5 186.5t44 223.5t-43 223t-118.5 186t-179 128t-222.5 48q-127 0 -234.5 -45t-187.5 -124.5t-125 -188.5t-45 -234zM72 561v27v47q0 35 5 65.5t25 65.5q2 0 7.5 1t9.5 1 q8 0 34.5 -13.5t58.5 -31.5t63.5 -35.5t48.5 -23.5q33 -16 40 -26.5t7 -47.5q0 -6 -1 -23.5t-1 -21.5q-12 -8 -53.5 -25.5t-87.5 -35t-84 -31t-44 -13.5q-16 0 -20 9.5t-6 37.5v13q0 14 -1 29.5t-1 31.5zM131 356q0 25 27.5 46.5t65.5 37t76 24.5t56 9q20 0 31.5 -23.5 t18 -55.5t11.5 -63.5t11 -49.5q4 -10 14.5 -36t21.5 -53.5t22.5 -53t15.5 -36.5v-28q-41 2 -103.5 28.5t-122 66.5t-102.5 90t-43 97zM160 854q0 45 44 89t103.5 78t123 54.5t104.5 20.5q0 -12 -21.5 -59.5t-48.5 -103.5t-51.5 -111.5t-30.5 -84.5q-4 -10 -14 -14h-9 q-18 0 -51 12.5t-66.5 31.5t-58 41.5t-24.5 45.5zM442 471l15 16h225q0 -35 -8 -89t-22.5 -107t-34 -98.5t-42.5 -59.5q-18 10 -34.5 38t-29.5 61.5t-23.5 66.5t-16.5 55zM442 561v57h269q0 -23 -5.5 -48t-31.5 -25h-25q-12 0 -41.5 2t-62.5 5t-62 5t-41 4zM442 709v6 q0 43 12.5 92t35 96t51 88t63.5 70q29 -18 49.5 -65.5t32.5 -103.5t18.5 -111.5t6.5 -88.5h-254q-2 0 -7.5 6.5t-7.5 10.5zM635 70v18l117 354q0 2 7 3t11 1q33 0 66.5 -14t64.5 -36.5t57.5 -49.5t45.5 -51v-14q0 -43 -45.5 -82t-105.5 -68t-121.5 -45t-96.5 -16zM674 1094 q35 0 96 -26t119.5 -63.5t101.5 -81.5t43 -83q0 -27 -29.5 -50.5t-68.5 -42t-79 -28.5t-60 -10h-15q-6 66 -20 134t-39 130l-45 104q-2 2 -3 8.5t-1 8.5zM766 543v18q2 6 4 18.5t5 24.5t5 22l2 9l14 4q13 4 28.5 9t28.5 9.5t17 6.5q14 6 45 20t63 29.5t58.5 28t32.5 12.5 q12 0 19.5 -14.5t11.5 -35t6 -45t2 -43.5v-34q0 -23 -1 -55.5t-7 -65.5t-18.5 -62.5t-34.5 -44.5q-31 33 -62 53.5t-62.5 37t-66.5 33t-74 38.5q-14 8 -15 11.5t-1 15.5z" />
<glyph unicode="9" horiz-adv-x="2316" d="M8 922q0 76 31 142t81 116.5t117.5 79t141.5 28.5q178 0 289 -131q10 -16 27.5 -43t27.5 -49q4 -10 6 -27.5t6 -34t11.5 -27.5t23.5 -11l14 2q14 18 15.5 46.5t9.5 51.5q41 115 137 181.5t215 66.5q63 0 125 -22.5t111 -62.5t82.5 -95.5t42.5 -118.5l6 -37h49l1 8t5 12 q27 98 80 168t149 111l33 11t25 7h153q23 0 52.5 -14t52.5 -27q4 -2 5 -3l1 -1q90 -51 136 -137t46 -186q0 -94 -32.5 -162t-88 -112t-128 -67.5t-154.5 -27.5q-14 -68 -46 -127t-80 -103t-108.5 -70t-132.5 -26q-76 0 -138 27t-109.5 72t-79 106.5t-43.5 132.5h-21 q-6 -74 -38 -136t-83 -108t-115.5 -72t-136.5 -26q-76 0 -136 24.5t-105 67.5t-77 101.5t-50 128.5q-10 0 -19.5 -1t-17.5 -1q-29 0 -51.5 7t-61.5 15h-6q-106 47 -178 137.5t-72 215.5zM115 922q0 -57 20.5 -106.5t56 -85.5t85 -56.5t106.5 -20.5h16q6 0 9.5 1t5.5 1l4 7 q23 104 80 164.5t145 113.5q4 0 6 8q0 51 -24.5 95t-62.5 77t-86 50.5t-95 17.5q-55 0 -103.5 -20.5t-85 -56.5t-57 -85t-20.5 -104zM520 569q0 -51 23.5 -96t61.5 -78t85 -51t94 -18q49 0 96.5 19.5t85.5 54t61.5 79.5t23.5 99q0 6 -13.5 14t-31 17t-34 16.5t-20.5 11.5 q-27 16 -41 31.5t-39 42.5q-12 12 -24 37.5t-24.5 51t-24 46t-21.5 20.5q-18 0 -30 -12q-18 -98 -79 -169t-149 -110v-6zM549 711q6 6 17.5 16t22.5 22.5t19 25.5t8 24v6q-6 -6 -17 -16.5t-22.5 -22.5t-19.5 -24.5t-8 -22.5v-8zM895 952q0 -4 8 -4q4 -2 6 -4t6 -4 q51 -27 88 -50.5t78 -72.5q10 -12 19.5 -34.5t19.5 -46t20.5 -40t24.5 -16.5l17 2q23 61 50.5 111.5t78.5 97.5q6 6 25.5 17.5t39 22.5t35.5 21.5t16 16.5q0 39 -16 74.5t-42 65.5t-59.5 53.5t-66.5 37.5h-8q-16 0 -35.5 6t-38.5 6q-47 0 -94 -18t-86 -50t-62.5 -75 t-23.5 -94v-23zM922 821q12 -29 38.5 -60.5t61.5 -41.5v2q0 6 -12.5 23.5t-29.5 34t-32.5 29.5t-21.5 13h-4zM1280 569q0 -41 16.5 -75.5t43 -63.5t59 -50.5t65.5 -33.5h6q2 0 12.5 -3t14.5 -3h47h8q45 0 92.5 18.5t84 50t60 75.5t23.5 96q-86 49 -146 113.5t-83 164.5 q-4 12 -17.5 16.5t-27.5 4.5h-10q-10 -16 -13.5 -37t-13.5 -37q-14 -35 -37.5 -75t-54.5 -62q-12 -8 -34.5 -19.5t-43 -25t-36 -27.5t-15.5 -27zM1305 725h4q8 0 22.5 12.5t28.5 28.5t25.5 32.5t11.5 26.5v4q-29 -18 -54.5 -46.5t-37.5 -57.5zM1683 952q57 -31 105.5 -69.5 t81.5 -98.5q6 -8 10 -23.5t9 -32.5t10.5 -33.5t13.5 -26.5q4 -6 14 -7.5t19 -1.5h8q55 0 103 23t83 60.5t55.5 87t20.5 102.5t-21.5 101t-58.5 85t-85 59.5t-101 22.5q-47 0 -95.5 -18.5t-86 -51t-61.5 -76.5t-24 -93v-9zM1704 817q0 -6 2 -6q6 0 6 6q0 4 -6 4q-2 0 -2 -4z M1714 799q0 -2 14.5 -21.5t22.5 -29.5q6 -6 11 -13.5t16 -7.5q0 12 -8.5 24.5t-18.5 23.5t-20.5 20.5t-16.5 15.5v-12zM1778 725q0 -6 2 -6q8 0 8 6q0 4 -8 4q-2 0 -2 -4zM1782 719q0 -8 6 -8t6 8q0 6 -6 6t-6 -6z" />
<glyph unicode=":" horiz-adv-x="737" />
<glyph unicode=";" horiz-adv-x="124" />
<glyph unicode="&#x3c;" horiz-adv-x="880" d="M2 725q0 43 16 88v2l2 5q3 5 5 9q4 12 11 24.5t15 23.5l2 -3q8 -31 29 -59v-2q0 -2 7 -12t11 -17q10 -12 21.5 -26.5t21.5 -24.5q4 -4 13.5 -12t20.5 -17.5t20.5 -17.5t13.5 -10q2 -4 10 -12.5t10 -10.5q4 -8 11.5 -14t11.5 -16q10 -20 17.5 -43t7.5 -45q0 -18 -4.5 -34 t-8.5 -32q-4 35 -14 68.5t-29 62.5q-4 6 -10 14.5t-12 16.5q-29 29 -57.5 59.5t-47.5 69.5q-6 10 -16 30.5t-10 22.5v2l-6 15q-7 16 -11 26h-2v2l-2 -2q0 -2 -2 -15.5t-2 -19.5q-2 -2 -3 -21.5t-1 -27.5v-2v-4v-2q0 -74 27.5 -138.5t74.5 -117.5v-2q-23 16 -42 35.5 t-38 40.5q-61 61 -61 143zM31 315q0 6 8 12.5t12 8.5l105 29q2 0 15 2t29.5 5t32 5t25.5 4q8 2 24.5 3t33 3t29.5 3t17 1h125l144 -14q4 0 33.5 -6t44.5 -11q23 -4 45 -11t45 -13q6 -4 13 -8t7 -13q0 -10 -11 -20t-22 -10h-2l-30 10h-4q-4 0 -28 -17.5t-38 -27.5 q-47 -33 -86 -76t-55 -98q-2 -6 -5 -14.5t-3 -16.5q14 -2 27 -10t13 -23q0 -4 -1 -8t-9 -4h-151v8l-1 2q-1 2 -1 4q0 6 2 14.5t6 12.5l2 1q2 1 4 3q2 0 2 2q4 18 7 33.5t11 34.5v2q25 43 57 70.5t75 54.5q6 4 30.5 15t32.5 15q4 0 21.5 7.5t27.5 11.5q4 0 6 2q2 0 2 2 q4 0 8 2l3 2v4h-2t-5 2q-2 0 -3 1l-1 1q-66 16 -134 19.5t-134 3.5h-8h-21h-20l-180 -13l-4 -2q74 -29 116.5 -99.5t42.5 -147.5v-13q0 -8 -2 -12q-12 -10 -15 -8t-9 -12q-2 -2 -2 -13q0 -6 2 -10h-45q-13 0 -13 10q0 16 14.5 25.5t28.5 9.5q0 29 -19.5 64.5t-35.5 56.5 l-5 4t-7 8l-35.5 35.5t-38.5 34.5q-6 2 -25.5 13t-25.5 15h6q-4 2 -13.5 8.5t-13.5 10.5h-2h-2l-35 -10q-8 0 -20 10t-12 20zM102 1012q0 43 14.5 84t41.5 75q6 8 20.5 24.5t16.5 21.5l6 6v-4q0 -8 -1 -13.5t-1 -13.5q0 -49 18.5 -92t46.5 -82q33 -41 77 -68.5t87 -56.5 q6 -6 18 -17l13 -10q39 -35 73.5 -72.5t55.5 -84.5q16 -47 16 -101q0 -41 -13 -81t-48 -68q0 -2 -6.5 -5t-6.5 -5q-4 -2 -10 -7.5t-8 -5.5t-2 -2q-4 -2 -13.5 -7t-13.5 -7q-6 -2 -14 -4t-10 -2q2 0 9 4t11 6l4 4q37 27 57.5 73t20.5 93q0 37 -15.5 72.5t-38 67.5t-51 59.5 t-55.5 50.5q-29 23 -57.5 39t-52.5 41q-59 53 -78.5 123.5t-19.5 146.5l-1 1q-2 1 -2 -1q-2 -4 -7 -11t-7 -12q-2 -2 -3 -5t-3 -7q-2 -6 -4 -13l-2 -7v-2q-8 -23 -9 -45.5t-1 -47.5q0 -31 4 -60.5t14 -57.5v-2q0 -2 3 -12.5t5 -14.5q16 -41 36 -71.5t48 -65.5q0 -2 2 -6 t4 -4q41 -43 74 -89.5t33 -107.5q0 -35 -11.5 -66.5t-35.5 -54.5q2 10 6 18.5t8 18.5q4 14 8 28.5t4 30.5q0 35 -12 68t-35 57l-114 142q-18 20 -33 44.5t-29 51.5q-2 0 -3 3l-1 3q-4 6 -7 15.5t-3 11.5q-16 45 -17 88zM260 1276q0 39 15.5 70.5t40 57.5t56 45t64.5 34 q4 2 19.5 7t19.5 9q8 2 23 7l16 5h4q-20 -39 -20 -81q0 -63 34.5 -116.5t81.5 -94.5q2 -4 12.5 -12.5t12.5 -10.5q0 -6 6 -6q68 -47 117 -107.5t86 -134.5q0 -2 3 -7t3 -9q25 -61 25 -127q0 -115 -54.5 -202t-152.5 -140q-2 -2 -12.5 -7t-14.5 -5q-6 -4 -17 -7l-12 -4 q96 49 143.5 140.5t47.5 195.5q0 72 -24.5 137.5t-65.5 124.5q-29 41 -67 74t-72 72q-49 45 -72 114q-23 51 -23 103q0 23 4.5 47.5t14.5 48.5q-4 0 -21.5 -8t-27.5 -14q-57 -31 -95.5 -79t-38.5 -116q0 -10 1.5 -20.5t1.5 -16.5q23 -102 92 -186q4 -6 12 -17.5t17.5 -22.5 t17.5 -20.5t10 -11.5l86 -84q39 -39 62.5 -102.5t23.5 -116.5v-4v-2q-4 23 -11 44t-16 44q-16 39 -39.5 71.5t-52.5 61.5q-6 6 -20.5 18.5t-30.5 26.5t-30.5 26.5t-18.5 18.5q-8 6 -22.5 21.5t-18.5 19.5q-10 10 -26.5 30.5t-16.5 22.5q-23 27 -38 55.5t-30 61.5 q-12 37 -12 78zM453 412v2v-2zM614 436v2v2v-2v-2zM643 672h2l-1 -1t-1 1z" />
<glyph unicode="=" horiz-adv-x="2316" d="M4 692q0 -125 71.5 -215t178.5 -137h6q25 -4 42 -9t32.5 -8.5t33 -4t42.5 3.5q18 -70 50 -129.5t77 -102.5t105 -67.5t136 -24.5q72 0 136.5 25.5t115.5 71.5t83 108.5t38 136.5h18q14 -70 45 -131.5t79 -106.5t110.5 -71.5t138.5 -26.5q70 0 131.5 25.5t108.5 68.5 t79.5 102.5t45.5 127.5q82 4 155.5 27.5t129 68.5t88 112.5t32.5 159.5q0 100 -46 186.5t-136 139.5q-20 12 -52 27.5t-61 15.5h-153q-4 0 -23.5 -7t-32.5 -11q-94 -41 -149 -112t-80 -167q-4 -4 -4 -12v-8h-53l-4 36q-10 63 -44 118.5t-83.5 95.5t-109.5 62.5t-124 22.5 q-119 0 -215 -66.5t-137 -178.5q-10 -25 -9 -52.5t-16 -48.5q-4 0 -9 -1t-7 -1q-14 0 -21.5 11.5t-11.5 28t-6 33.5t-6 30q-10 20 -27.5 47.5t-29.5 44.5q-57 68 -129 98.5t-158 30.5q-74 0 -141.5 -29t-117.5 -79t-81 -116.5t-31 -142.5zM111 692q0 55 20.5 104.5t57 86.5 t85 57.5t103.5 20.5q47 0 95 -18.5t86 -50.5t62.5 -76t24.5 -95v-2q-2 -8 -8 -8q-43 -27 -79 -54.5t-64.5 -59.5t-49 -72t-30.5 -93l-4 -4q-2 0 -6.5 -1t-8.5 -1h-16q-57 0 -106.5 20.5t-85 56.5t-56 85t-20.5 104zM514 340v6q88 39 149.5 109.5t79.5 169.5q8 12 31 12 q10 0 21.5 -20.5t23.5 -46t24.5 -51t22.5 -36.5q27 -27 40.5 -42t41.5 -31q4 -4 20.5 -12.5t34 -17.5t31 -17.5t13.5 -14.5q0 -51 -24 -97t-60.5 -80t-85 -53.5t-97.5 -19.5q-47 0 -95 18.5t-86 51.5t-61.5 77t-23.5 95zM543 489q0 12 9 24.5t20.5 25t23.5 23t18 16.5v-9 q0 -10 -9 -22t-20.5 -24.5t-22.5 -23t-17 -16.5l-1 1t-1 5zM891 745q0 51 23.5 94.5t61.5 76t86 51t95 18.5q23 0 43.5 -9t38.5 -5q33 -14 66.5 -38t60.5 -52.5t43 -64.5t16 -75q0 -6 -16 -16t-36.5 -22.5t-40 -23.5t-25.5 -17q-53 -47 -81 -96.5t-50 -112.5q-4 0 -7.5 -1 t-7.5 -1q-14 0 -24.5 17t-20.5 39.5t-19.5 45t-19.5 35.5q-23 27 -43 45t-40.5 31.5t-44 25.5t-52.5 29q-4 0 -4 6q0 2 -1 9t-1 11zM918 594h2q6 0 22 -13.5t32.5 -31t29 -34.5t12.5 -23v-3q-33 12 -60.5 43t-37.5 62zM1274 340q0 14 15.5 27.5t37 27t44 24.5t34.5 19 q31 23 54.5 63t39.5 77q6 16 9 36.5t14 36.5h14q12 0 25.5 -4t17.5 -16q20 -102 81.5 -167t147.5 -112v-2q0 -53 -24.5 -96t-62.5 -76t-86 -50t-95 -17h-12q-8 0 -15.5 1t-13.5 1h-6q-4 0 -14.5 3t-12.5 3h-4q-35 12 -67.5 33.5t-60 50t-44 63.5t-16.5 74zM1300 496 q12 31 38 59.5t55 44.5v-2q0 -10 -11.5 -27.5t-27 -34t-29.5 -28.5t-22 -12h-3zM1677 725v6q0 49 23.5 93t61.5 77t86 51.5t96 18.5q55 0 103 -22.5t84 -59.5t57.5 -85t21.5 -99q0 -53 -19.5 -102.5t-55.5 -87.5t-83 -60.5t-102 -22.5h-6q-8 0 -20.5 1t-16.5 5 q-14 23 -22.5 63t-20.5 56q-31 59 -79.5 98t-107.5 70zM1700 588q0 6 4 6q2 0 2 -6t-2 -6q-4 0 -4 6zM1708 569v13q12 -12 39 -36t27 -48q-10 0 -16.5 7t-12.5 15q-6 10 -21.5 28.5t-15.5 20.5zM1774 496q0 6 4 6t4 -6t-4 -7q-4 0 -4 7zM1778 489q0 7 6 7q4 0 4 -7 q0 -6 -4 -6q-6 0 -6 6z" />
<glyph unicode="&#x3e;" horiz-adv-x="851" />
<glyph unicode="?" horiz-adv-x="225" />
<glyph unicode="@" horiz-adv-x="1576" d="M14 0q4 0 5 -1t10 -1q10 0 22 -1t41 -1q57 0 60 2q4 2 10 2q6 2 21.5 14.5t32.5 25.5t31.5 27.5t18.5 20.5l383 31q4 0 13.5 10t17.5 22.5t12 24.5t0 17l-499 485l-31 -502q0 -2 -5 -13t-10 -16q-6 -10 -25.5 -30.5t-41 -44t-39.5 -44t-27 -28.5zM258 803l154 -152 l149 131h6h8q4 -4 13.5 -9t9.5 -7v-191l37 -36h295q2 -12 8 -27.5t20 -24.5q8 2 31 12.5t29 16.5q2 2 8 10.5t14.5 19.5t14.5 19t6 10q2 2 11 4.5t21.5 4.5t23.5 4t18 2q23 2 79 5t119.5 5t120.5 3t80 1l29 23h-502q-4 6 -14.5 20.5t-23.5 27.5t-27.5 23.5t-28.5 10.5 q-8 0 -16.5 -9.5t-24 -21.5t-43 -21.5t-72.5 -9.5h-14q-10 0 -22.5 1t-22.5 1h-15q-10 4 -14 15q-4 8 -9 36.5t-5 36.5q-2 12 -4.5 46t-5.5 71t-5 70.5t-2 48.5l-278 295q-18 18 -21.5 71.5t-4.5 109.5t-9 100t-39 44q-10 0 -27.5 -3t-17.5 -13v-352l168 -185zM309 203v211 l178 -178v-15q0 -4 -22.5 -9t-36.5 -5q-6 0 -23.5 -1t-35.5 -1t-35 -1t-25 -1zM588 1217q0 -43 25.5 -78t72.5 -35q41 0 77 36t36 77q0 43 -29 70.5t-74 27.5q-53 0 -80.5 -20.5t-27.5 -77.5zM966 645.5q1 16.5 1 22.5q29 0 41 -24.5t12 -47.5q0 -18 -5 -29.5t-28 -21.5 q-10 8 -14 26.5t-6 38t-1 36z" />
<glyph unicode="A" horiz-adv-x="1576" d="M10 817q0 8 2 22.5t2 16.5q6 8 27.5 20.5t32.5 8.5q6 115 38.5 216t82 194.5t113 181.5t134.5 174q2 4 6.5 9t8.5 7l14 -16l442 -707h607q29 0 37 -27.5t8 -48.5q0 -14 -1 -22t-4.5 -14.5t-9.5 -14.5t-16 -20.5t-38 -42t-58.5 -62.5t-57 -61.5t-39.5 -40.5 q-2 -4 -9 -16.5t-14 -27t-13.5 -26.5t-6.5 -18q-4 -14 -13 -50t-18.5 -76t-17.5 -76t-10 -50h-444q0 72 8 144.5t8 144.5v51l-14 -15l-340 -561q-8 -12 -13.5 -14t-17.5 -2q-27 0 -38 17.5t-34 43.5q-125 139 -196.5 308.5t-83.5 355.5q-12 20 -24.5 25.5t-21 10.5t-13.5 16 t-5 42zM158 737q0 -86 15 -162.5t42 -148.5t62.5 -143.5t76.5 -149.5q8 -18 32 -45t42 -43l408 692h-678zM158 877h682q16 -29 39.5 -62t64.5 -33h369q12 0 15 15.5t3 21.5h-403l-457 744q-4 10 -14 14l-6 2q-2 0 -5 -1l-4 -1q-2 0 -6 -5t-8 -9q-125 -147 -197.5 -318.5 t-72.5 -367.5zM750 0q0 4 1 8t1 6q2 6 4 18.5t4 27t4 26.5t2 16q4 12 9 37t7 23h457v-162h-489zM854 1184q0 94 53.5 147t143.5 53t140 -49t50 -141q0 -80 -50 -136.5t-136 -56.5q-37 0 -74 13.5t-64.5 38t-45 58.5t-17.5 73z" />
<glyph unicode="B" horiz-adv-x="1386" d="M14 561q0 -23 18.5 -28t33.5 -5q37 0 50 31t17 59q2 14 4 50.5t4 76t4 74.5t2 51l103 103l22 -15v-294h23l250 249v811h-111v-368l-420 -426v-369zM190 1446q0 -53 27 -87t86 -34q53 0 82 35t29 86q0 49 -29 84t-82 35q-57 0 -85 -33t-28 -86zM367 545q0 -25 14 -38 t33 -36q6 -8 23.5 -26.5t36 -40t34.5 -40t22 -24.5l31 -340h125v250q8 8 29.5 31.5t46 50t47 49t31.5 33.5q10 12 13 20t3 23q0 12 -3 23.5t-13 21.5l-250 250q-4 4 -15 4q-29 0 -52 -23.5t-23 -52.5q0 -23 16 -45q8 -10 28.5 -33.5t44 -49.5t44 -49.5t31.5 -31.5q0 -2 1 -3 t1 -3t-1 -5l-1 -3q-4 -10 -15 -15q-6 4 -23.5 14.5t-21.5 14.5q-8 8 -31.5 29.5t-49 45t-49 44t-32.5 28.5q-23 -4 -49 -25.5t-26 -47.5zM573 1741q0 -4 1 -8t1 -9q4 -16 10.5 -45.5t14.5 -52.5q4 -18 7 -23.5t11 -9.5h134q14 0 25 21.5t19.5 49.5t12.5 53.5t4 33.5l-49 -2 l-37 -102h-82l-27 94h-45zM678 1135l3 -5q3 -6 9 -16q10 -16 17.5 -23.5l25.5 -25.5q12 -14 27.5 -30.5t30 -32t25.5 -26.5l18 -18v-340l28 -30q27 -29 65 -69t80 -82t70 -68q2 -4 13.5 -8.5t15.5 -6.5l22 29v252l117 -105v-235q0 -10 9.5 -21.5t23.5 -20.5t27.5 -14.5 t23.5 -5.5q12 0 27.5 5.5t15.5 27.5v324l-547 575l-14 29q0 14 1 49t1 76t-1 77t-1 50q0 41 -17.5 72.5t-58.5 31.5h-16q-14 0 -27.5 -7t-13.5 -23v-385zM756 0h143q-1 10 -1 20q0 36 18 61q22 32 51.5 59.5t55.5 56t26 69.5q0 29 -18.5 52.5t-49.5 23.5q-4 0 -11 -1t-12 -1 q-10 -10 -33.5 -32.5t-49 -48.5t-48 -49.5t-30.5 -33.5q-31 -35 -36 -84t-5 -92zM911 1176q0 -47 30 -81t83 -34t83 34t30 81q0 55 -27 88.5t-86 33.5q-57 0 -85 -33.5t-28 -88.5z" />
<glyph unicode="C" horiz-adv-x="1548" d="M12 950q0 -57 42 -99t102 -42q33 0 55 14.5t43.5 30.5t45 30.5t54.5 14.5v105q-33 0 -55.5 14t-41.5 30.5t-43 31t-56 14.5q-66 0 -106 -38t-40 -106zM414 911h92q72 0 148.5 5.5t142.5 27.5q23 6 38 14.5t30.5 15.5t32.5 11t46 4h47q18 0 41 -16q2 -2 13.5 -11.5 t23.5 -19.5t22.5 -18.5t14.5 -10.5q14 -8 47 -15t70 -18.5t69.5 -27.5t48.5 -41l1 -3q1 -3 1 -5t-1 -3t-1 -3l-147 28q-2 0 -6 -16t-8 -27q0 -2 -1 -8t-1 -10q0 -23 39.5 -44.5t90 -37.5t97.5 -25.5t63 -9.5q23 0 45.5 7t22.5 36q0 16 -4 29.5t-12 32.5l-134 266 q-12 12 -36.5 39.5t-51.5 34.5q-10 0 -31.5 1t-47.5 1q-29 0 -57.5 1t-51.5 1h-49h-60q-27 0 -55 -1t-55 -1t-44.5 -1t-21.5 -1q-35 -2 -95 -10.5t-121.5 -17.5t-109.5 -18.5t-57 -13.5l-28 -14v-107zM795 819q0 -63 39.5 -103t101.5 -40q45 0 67.5 23.5t57.5 37.5 q25 8 36 5t16 -1t9 18.5t13 65.5v9v6q-35 6 -53.5 26.5t-36 41t-39 37t-60.5 16.5q-59 0 -105 -39t-46 -103zM883 1327q0 -72 39 -111.5t110 -39.5q72 0 111 39.5t39 111.5t-39 111t-111 39t-110.5 -39t-38.5 -111zM1016 641q0 -2 1 -4l1 -2l117 -148q10 -10 26.5 -27.5 t18.5 -17.5l235 88q4 2 8 7.5t7 7.5v8q0 23 -12.5 33t-31.5 18q-12 4 -43.5 17.5t-66.5 28t-66.5 26.5t-44.5 16h-8q-39 0 -74.5 -7t-64.5 -36l-1 -3t-1 -5zM1077 0h350l93 295v8q0 20 -4.5 47t-12.5 52.5t-22.5 48t-34.5 36.5q-37 -12 -83 -22t-89 -26.5t-77 -43t-46 -71.5 q-4 -16 -10 -38t-11 -46q-8 -27 -14 -50.5t-12 -51t-13.5 -60.5t-13.5 -78z" />
<glyph unicode="D" horiz-adv-x="1769" d="M6 29q27 -18 41 -24.5t39 -6.5q4 0 11 1t12 1q-8 4 -36 15.5t-38 13.5q-2 0 -6.5 1t-8.5 1t-8 -1t-6 -1zM6 133q12 -18 32.5 -30.5t44 -19.5t48.5 -9t43 -2h43q10 0 27.5 7t46.5 19q74 26 114 26q14 0 23 -3q20 -4 39.5 -9.5t38.5 -11.5q39 -10 77 -19t79 -9q12 -1 23 -1 q55 0 102 16q57 19 124 36q43 -4 70 -14.5t53 -20.5q25 -8 50.5 -12t54.5 -4h10q29 0 55 9q32 11 62 22.5t62 18.5t63 -1q18 2 33 2q18 0 32 -3q24 -5 53 -20q29 -10 57.5 -19t61.5 -9h29q27 0 53.5 5t34.5 25q-26 -3 -50 -3q-26 -1 -49 3q-44 6 -85 16.5t-83 21t-94 10.5 q-31 0 -59.5 -8.5t-57 -17.5t-58 -16.5t-60.5 -7.5q-33 0 -63.5 7.5t-59.5 16.5t-58.5 17.5t-62.5 8.5t-62.5 -8.5t-60 -17.5t-62.5 -16.5t-67 -7.5q-31 0 -58.5 7.5t-55 16.5t-54 17.5t-55.5 8.5q-23 0 -43 -5q-6 -2 -29.5 -8t-53.5 -12t-58.5 -12.5t-42.5 -8.5 q-27 -2 -52.5 2.5t-49 10.5t-46 11t-43.5 5h-6zM6 221q0 -4 11.5 -10t27.5 -13.5t33.5 -13.5t30.5 -8h8q8 0 17 -1t20 -1h16h49q12 0 29 4q10 4 33.5 11.5t66.5 21.5q44 11 72 11q14 0 24 -3q12 -4 28.5 -7t39.5 -9q35 -10 72 -19.5t78 -9.5q35 0 66.5 7t63 16.5t62.5 17.5 t66 8q31 0 59.5 -8t55 -17.5t55 -16.5t59.5 -7q33 0 61.5 7t57 16.5t58.5 17.5t63 8q33 -2 62.5 -9t58 -15.5t58 -17.5t64.5 -15q59 10 87 13t34 30q-29 0 -54.5 -9.5t-56.5 -9.5q-33 0 -64.5 9.5t-64 21.5t-65.5 21.5t-66 9.5q-29 0 -57.5 -9.5t-56 -20.5t-55 -20t-58.5 -9 t-59.5 9t-57 20t-57.5 20.5t-59 9.5q-35 0 -70 -9.5t-68.5 -21.5t-67.5 -21.5t-69 -9.5q-29 0 -55.5 9.5t-52 20.5t-52 20.5t-55.5 9.5h-14q-4 -2 -10 -2t-17 -2q-8 -2 -34.5 -8.5t-57.5 -13.5t-60.5 -13t-41.5 -8q-27 -4 -46.5 0t-40 12t-45 15.5t-59.5 7.5v-17zM6 324 l12 -6q11 -7 27 -13t33.5 -13t30.5 -11l59 -15h6q16 0 33.5 2t40.5 11q45 16 110 24q35 6 59.5 8t39.5 2q43 -6 101 -26.5t112 -20.5q31 0 61.5 9.5t59 20.5t59.5 20.5t61 9.5q31 0 59.5 -8.5t58.5 -17.5t59.5 -16.5t60.5 -7.5q33 0 62.5 7.5t59 16.5t59.5 17.5t61 8.5 q33 0 63.5 -9.5t60 -20.5t59.5 -20.5t60 -9.5h8q4 0 18.5 2t31 5t32 9.5t21.5 12.5l1 3q1 3 1 5l-1 2t-1 4q-29 -12 -52.5 -14t-52.5 -2q-8 0 -24.5 1t-18.5 1q-12 2 -40.5 9t-61.5 17.5t-62.5 19.5t-41.5 13q-61 -4 -117.5 -23.5t-122.5 -25.5q-47 4 -80 8t-49 9 q-29 10 -53.5 19t-34.5 13h-6q-37 0 -73 -9t-69.5 -21.5t-69.5 -21.5t-73 -9q-31 0 -56.5 7t-52 16.5t-52 17.5t-56.5 8h-49q-53 -16 -86 -26.5t-49 -14.5q-18 -4 -35 -6t-27 -2q-27 0 -46 2t-37.5 7t-39 14.5t-51.5 23.5v-16zM20 1415l236 -250l266 -14l148 147l-31 29 l-354 29l-265 252v-193zM256 0q4 0 11 -1t12 -1q35 0 65.5 16.5t65.5 16.5q43 0 75.5 -16.5t73.5 -16.5q4 0 11.5 1t9.5 1q-41 18 -78 31.5t-84 13.5q-45 0 -82 -13.5t-80 -31.5zM565 1077l531 -561q2 -2 9 -3t11 -1q23 0 39 12t16 37q0 18 -7 29.5t-23 27.5q-12 12 -42 46 t-64 72t-64.5 72t-42.5 48v176l-185 193h-8h-8q-4 -2 -14.5 -7.5t-14.5 -9.5zM727 0q4 0 18.5 -1t18.5 -1q41 0 73.5 16.5t73.5 16.5q39 0 72 -16.5t70 -16.5q4 0 14 1t14 1q-53 31 -86 39t-84 8t-90 -8t-94 -39zM991 928q0 -43 25.5 -73t73.5 -30q41 0 69.5 27t28.5 66 q0 51 -22.5 76.5t-75.5 25.5q-98 0 -99 -92zM1214 0q4 0 15.5 -1t13.5 -1q41 0 74 16.5t74 16.5t73.5 -16.5t73.5 -16.5q4 0 15.5 1t15.5 1q-31 14 -53.5 23.5t-41 14.5t-38.5 6t-47 1q-51 0 -88 -12.5t-87 -32.5zM1681 0h64v14z" />
<glyph unicode="E" d="M14 0h1755v39l-1298 -2q8 10 26.5 31.5t40 46t40 46t26.5 32.5l28.5 28.5t31 30.5t14.5 14h31l176 -178h545q10 0 13 18.5t3 30.5v13v16q0 14 -6 27.5t-25 13.5l-448 14q-29 35 -44.5 49.5t-29.5 28.5q-14 16 -31.5 39.5t-21.5 30.5l-15 28l88 97h320l344 362l1 10 q1 11 1 15q0 33 -9 43t-23.5 14t-30 8t-41.5 6q-2 53 -17.5 86t-36.5 62q-23 29 -49 48t-67 19q-45 0 -72 -23.5t-27 -72.5q0 -41 16.5 -73.5t43 -56t62.5 -38t73 -18.5v-15l-221 -229h-590q-16 -14 -35.5 -26.5t-38.5 -24.5l-502 -488v-102zM487 848q0 -63 43 -95t101 -32 q76 4 100.5 37t34.5 92q0 45 -29 90q-31 43 -110 49q-80 -4 -112 -41q-28 -33 -28 -86v-14zM1251 1071q0 51 52 51q27 0 50 -12t40.5 -30.5t28 -43t10.5 -49.5q0 -29 -7.5 -37t-38.5 -8q-53 0 -94 36t-41 93z" />
<glyph unicode="F" horiz-adv-x="1429" d="M14 156q0 37 20.5 49t48.5 16t55.5 11.5t41.5 33.5l326 633q2 25 5 86.5t7 129t8 128t9 84.5q0 4 2 16.5t4 27.5t4 27.5t4 16.5q0 6 5 17.5t9 13.5l148 88l3 1t5 1l8 -2q2 -4 13.5 -15.5l15.5 -15.5q8 -14 31.5 -49t49 -75t48 -75.5t33.5 -50.5q0 -4 5 -8t9 -6h8h8 q2 2 13.5 6t15.5 8l-29 60q-8 12 -26.5 44t-40 66.5t-40 66.5t-26.5 44q0 4 -1 11t-1 11q0 53 53 54q20 0 28.5 -5.5t23.5 -27.5l192 -309v-25v-31q0 -4 -14 -18l-516 -324l-326 -620q-33 -57 -74 -75.5t-94 -18.5h-72zM133 45q0 23 9.5 41t37.5 18q27 0 37 -18t10 -41 q0 -47 -47 -47t-47 47zM430 1645q0 4 1 17t4 26.5t9.5 24.5t16.5 11h192q8 0 14.5 -9t9.5 -21.5t4 -24.5t1 -18q0 -57 -34 -95t-91 -38t-92 34.5t-35 92.5zM616 1042q2 0 9.5 1t11.5 4q10 4 26.5 15t18.5 15l-14 43q-4 10 -15.5 38t-15.5 36q-14 -23 -17.5 -56.5t-3.5 -62.5 v-33zM784 899q0 4 6.5 8t10.5 6q6 4 31.5 20.5t56.5 35t59.5 36t42.5 27.5l31 15h6h8q0 -2 6.5 -6.5t8.5 -8.5q6 -10 24.5 -38.5t40 -61.5t40 -63.5t28.5 -43.5q4 -4 8 -14t6 -14v-9v-6zM827 682v27q0 41 7.5 50t48.5 9q16 0 26.5 -1t17.5 -5t15 -13.5t21 -25.5 q8 -12 30.5 -47t48 -75t49 -77t33.5 -53q14 -25 23.5 -39t13.5 -26.5t6 -25t2 -32.5q0 -39 -8 -47t-49 -8q-8 0 -20 1l-13 1q-4 2 -14 11t-22.5 21.5t-22.5 23.5t-14 18q-2 2 -21.5 34.5t-45.5 74.5t-52.5 86t-42.5 71q-12 20 -14.5 25.5t-2.5 21.5zM1051 723q4 0 11 1t11 1 t12.5 -1t10.5 -1q8 -4 33.5 -10t53 -12.5t53.5 -13.5t36 -9q8 -12 29.5 -44t45 -67t44 -66.5t28.5 -43.5q4 -4 9.5 -15.5t5.5 -13.5v-289l-369 553z" />
<glyph unicode="G" horiz-adv-x="1607" d="M8 930h576v102h-576v-102zM139 23q0 -2 1 -5l1 -4q4 -4 7.5 -9t7.5 -5h1435q0 2 -1 10t-2 17.5t-5 16.5t-10 7h-680v51l6 514l436 445l1 2t1 4q0 4 -1 7l-1 3q-4 8 -8 18.5t-6 10.5h-74l-338 -309l-22 28v207h-244v-383q0 -35 20.5 -52t46 -30.5t46 -30t20.5 -49.5v-436 h-620l-6 -8q-5 -8 -9 -14l-1 -2q-1 -2 -1 -4zM745 1077h148l428 443l1 4q1 4 1 8q0 23 -15.5 35t-35.5 12q-16 0 -28.5 -2t-24.5 -14l-474 -471v-15zM930 528q0 -102 98 -102q47 0 79 25.5t32 78.5q0 14 -9.5 33t-22.5 35t-30.5 26.5t-34.5 10.5q-47 0 -79.5 -30t-32.5 -77z " />
<glyph unicode="H" horiz-adv-x="1740" d="M12 457q0 -94 35 -178t96.5 -146.5t143.5 -98.5t178 -36q94 0 179 37t148.5 101.5t100.5 148.5t37 180q0 72 -19.5 132t-54.5 126q-6 12 -21.5 29.5l-31 35t-27.5 34t-12 26.5q0 14 10 27.5t21.5 25.5t21.5 26.5t10 33.5q0 23 -13 40t-29.5 34.5t-30 36t-13.5 42.5h263 l204 213h-559q-66 0 -100.5 -27.5t-34.5 -91.5q0 -37 17.5 -71.5t42 -65.5t53 -59.5t51.5 -53.5q0 -2 1 -4t1 -4q0 -20 -24.5 -29.5t-41.5 -9.5q-41 14 -75.5 18.5t-75.5 8.5q-96 -6 -178 -46t-142.5 -105.5t-95.5 -150.5t-35 -179zM43 451q0 94 31.5 176t90 143t139.5 96 t177 35q6 0 24.5 1t38 -1t35 -9t15.5 -22q0 -4 -1 -9t-3 -5q-6 -6 -20.5 -23.5t-31 -37t-30.5 -36t-21 -22.5q-4 -4 -10 -15t-6 -13q0 -31 20.5 -39t43.5 -8q6 0 15 1t11 1l162 147q4 0 23.5 -16.5t35.5 -28.5q61 -61 90 -138t29 -163q0 -92 -33.5 -172t-93 -139.5 t-138.5 -93t-171 -33.5q-90 0 -167 31.5t-134.5 89t-89 135t-31.5 168.5zM248 1296q0 -47 34.5 -75.5t75.5 -28.5q49 0 75 35t26 78t-32 70.5t-73 27.5q-47 0 -76.5 -30t-29.5 -77zM883 782q0 -8 1 -19l1 -11l280 -295q0 -14 2 -48t4.5 -71t4.5 -71t4 -46q4 -18 11 -38.5 t34 -20.5q4 0 13 5t19.5 12t17.5 15.5t7 12.5v1018l-383 -369q-14 -14 -15 -35.5t-1 -38.5zM1018 797l147 147v-280h-14zM1325 487q0 -74 27.5 -150.5t77 -141t117 -110.5t149.5 -56q6 -1 10 -1q6 0 10 2q6 3 8 15q-68 27 -136 61.5t-118 88.5q-47 53 -74.5 117.5 t-41.5 166.5q0 139 66.5 251t201.5 175l88 25v24q-92 -8 -162.5 -55t-119 -113.5t-75 -145.5t-28.5 -153z" />
<glyph unicode="I" horiz-adv-x="1622" d="M12 1186q0 -35 32 -53.5t58 -26.5q29 -10 103 -38t156.5 -58.5t155.5 -57t101 -39.5v-14q-8 -23 -30.5 -79t-49 -119.5t-50 -120t-31.5 -78.5q-4 -10 -9.5 -26.5t-5.5 -18.5q0 -18 52.5 -44t117 -49.5t118.5 -40t58 -16.5q10 0 21.5 1.5t15.5 15.5q8 23 32 80t50.5 120.5 t49 119.5t30.5 79q10 23 14.5 27t20.5 4q4 0 13 -1t12 -1l325 -117l10 -1q9 -1 11 -1q25 0 51 33.5t50 87t45.5 118t36.5 125t24.5 108.5t9.5 71q0 35 -14.5 51t-49.5 16t-62.5 -33.5t-49 -83t-39 -106.5t-32.5 -105.5t-27.5 -78t-22.5 -25.5l-1225 442q-2 0 -6 1t-8 1 q-31 0 -46.5 -20.5t-15.5 -48.5zM281 0h127q6 0 11 7t9 16.5t7 15.5l3 6q4 12 15.5 42t23.5 63.5t23.5 63.5t15.5 42q0 2 1 4t1 4q0 12 -13 21.5t-31.5 15.5t-36 10t-23.5 4h-6q-10 -4 -17 -14zM662 168q0 -10 2 -26.5t2 -20.5q0 -18 5 -48t8 -49.5t3 -23.5h129q0 30 1 68 v10q0 33 -5 64q-6 36 -25.5 60.5t-62.5 24.5q-39 0 -48 -12t-9 -47zM764 1235q0 -72 50 -124t122 -52q39 0 68.5 15.5t50 42t30 60t9.5 68.5q0 72 -39 122t-119 50q-76 0 -124 -54t-48 -128zM1294 1296q0 -37 16.5 -63.5t57.5 -26.5q45 0 69.5 25.5t24.5 68.5 q0 41 -26.5 57.5t-63.5 16.5q-45 0 -61.5 -16.5t-16.5 -61.5zM1311 1296q0 61 69 62q23 0 44.5 -18.5t21.5 -41.5q0 -31 -22.5 -52t-51.5 -21t-45 23.5t-16 47.5z" />
<glyph unicode="J" horiz-adv-x="1755" d="M12 479q0 68 41 112t113 44q66 0 113 -44t47 -112t-47.5 -112.5t-112.5 -44.5q-72 0 -113 45t-41 112zM176 0l252 397l2 1t4 1t5 -1l3 -1q4 -2 15.5 -13t13.5 -15l1 -3q1 -4 1 -6q0 -14 -8 -24t-17.5 -20.5t-16.5 -21.5t-7 -28q0 -16 7 -28.5t16.5 -22.5t17.5 -20.5 t8 -24.5q0 -2 -1 -5l-1 -3l-102 -162h-193zM352 694q0 49 17.5 107.5t49.5 111t78 87t101 34.5q47 0 79 -31.5t32 -80.5v-9q-10 0 -34 -2t-49.5 -4t-49 -4t-31.5 -4t-23.5 -6t-19.5 -8l-1 -2q-1 -2 -1 -4q0 -4 1 -7l1 -2q2 -4 6 -9t8 -5q14 0 48 -2t71 -5t70.5 -5t46.5 -4 q20 -2 59 -15.5t79 -33t69.5 -43t29.5 -48.5q0 -2 -1 -4t-1 -4q-14 -8 -52 -30.5t-80 -49t-80 -50t-52 -32.5q-4 -4 -15.5 -8t-15.5 -6q-12 14 -27.5 36.5t-34 43t-40 35t-45.5 14.5v-41l21 -28q22 -27 52.5 -65t63.5 -78t55 -64q6 -6 17.5 -18.5t24 -24t21.5 -20.5l11 -11 q8 -4 33.5 -13.5t53.5 -18.5t53.5 -17t35.5 -10q14 -35 21.5 -76t38.5 -72h-15q-4 0 -34.5 8t-72.5 19.5t-86 24t-73 22.5l-29 14l-309 326q-39 41 -57.5 90t-18.5 102zM469 266q0 18 13.5 31.5t33.5 13.5q27 0 42.5 -19t31.5 -42q-12 -16 -30.5 -23.5t-37.5 -7.5 q-23 0 -38 12.5t-15 34.5zM756 484q16 12 26 18q33 18 101.5 58t141.5 82t134.5 78t79.5 46q23 12 37 21.5t24.5 15.5t22.5 8t31 2q39 0 74.5 -14.5t68.5 -36t60.5 -47.5t50.5 -51q-6 -16 -27.5 -58.5t-45.5 -89.5t-45.5 -89t-29.5 -58q-4 -6 -15 -23.5t-15 -21.5 q-57 70 -123 95t-156 25t-170 -18t-170 -43q-8 6 -30.5 28.5t-28.5 30.5q-4 6 -10 16q-5 9 -5 12q0 1 19 14zM1044 231q0 68 44.5 111t109.5 43q68 0 114 -41t46 -113q0 -68 -39 -113.5t-111 -45.5q-74 0 -119 42t-45 117zM1384 907q0 2 1 4l1 2l207 340q8 12 19.5 18.5 t23.5 10.5q6 2 20.5 9t31 13.5t32 12.5t21.5 10v-235q-4 -6 -13.5 -23.5t-18.5 -37t-17.5 -36t-10.5 -22.5l-2 -6q0 -4 1 -7l1 -2q4 -4 22.5 -15t20.5 -13q4 -4 10.5 -9.5t6.5 -7.5v-323q-31 66 -69 110.5t-95 96.5q-12 10 -44 25.5t-64.5 30.5t-58.5 29.5t-26 24.5z" />
<glyph unicode="K" horiz-adv-x="1695" d="M14 516q2 -4 7.5 -8t7.5 -6q6 -4 17 -10.5t13 -4.5l74 74v-104q4 6 16.5 18t26.5 26.5t26.5 27t18.5 16.5q18 14 68.5 23.5t102.5 17.5t92 19.5t40 32.5q-55 0 -108.5 -3.5t-106.5 -16.5v17l74 74h12h19q2 -2 14 -8.5t27.5 -14.5t29 -14t17.5 -8h6h8q12 2 42 8t61.5 13 t61.5 13.5t42 10.5q25 74 88 116q-12 27 -50 46.5t-84 35t-90 24.5t-71 13l-235 29l-60 59q0 2 -4 -10q-6 -12 -6 -31q0 -20 -18 -4q-4 0 -15.5 6t-15.5 11q5 -25 5 -52q1 -33 -7 -69q-14 -66 -40 -132.5t-56.5 -128t-49.5 -106.5zM203 66q0 -23 14 -31t35 -8q16 0 17 5 t12 27l116 324q-2 14 -15 15t-24 1q-27 0 -41 -18.5t-22 -40.5q-4 -14 -16.5 -50t-27.5 -76t-27.5 -76t-16.5 -50q-2 -4 -3 -11t-1 -11zM322 61q0 -61 69 -61h6q4 2 9.5 6t7.5 8l102 222l324 -89q2 0 10 -1t12 -1q23 0 36 5.5t32 25.5q55 -23 109.5 -28t111.5 -5h76h37 q18 0 36.5 1t32.5 1q16 0 26.5 1t12.5 1q27 2 75 13.5t95 24t84 22.5t41 14l14 15v417q-10 0 -30.5 3t-28.5 8q-4 2 -8 14t-6 14l-10 10l-5 7l-198 -62l108 -233q0 -2 1 -15.5t1 -19.5q0 -43 -19.5 -57.5t-62.5 -14.5h-30q-14 0 -21 17l-164 311q-8 12 -24.5 18t-36 9.5 t-38.5 6.5t-32 9q-6 2 -18 8t-26.5 13.5t-28 13.5t-17.5 10q-59 -43 -119.5 -55.5t-116 -15.5t-104.5 -10t-86 -38l117 -176q10 -16 13 -22.5t3 -22.5q0 -4 -1 -8t-1 -6q-12 2 -38.5 9t-56.5 13t-56.5 12.5t-38.5 10.5h-8q-23 0 -44.5 -23.5t-41 -59.5t-36 -79t-27.5 -82 t-17 -68.5t-6 -40.5zM721 1092q0 -121 119 -121q121 0 121 121q0 118 -119 118h-2q-119 0 -119 -118zM780 723q0 -33 31 -33q23 0 36 9.5t38 23.5q10 6 33.5 21.5t50 32t49 30.5t29.5 18q37 25 45 63t14 85h29v-103l13 -2l32.5 -5t40 -5t32.5 -2h29h31l147 117l29 31l-43 14 q-43 12 -111.5 29.5t-132 34t-109.5 27.5l-46 11l-43 -14l-31 -221q-4 -29 -35 -45.5t-65.5 -31.5t-63.5 -34.5t-29 -50.5zM1253 649l148 -295h59v74l-112 240l229 217q16 14 16 45q-14 23 -28.5 28t-34.5 5q-6 0 -16 -3l-11 -2l-250 -249v-60z" />
<glyph unicode="L" d="M14 10v19l20 8q19 8 48 17t59.5 18.5t51.5 15.5q8 4 30.5 9t26.5 5h16q33 0 64.5 -11t63.5 -25.5t63.5 -25.5t66.5 -11q43 0 83 12t80 25.5t81 25.5t84 12q35 0 67.5 -10t65.5 -21.5t66.5 -21.5t70.5 -10q39 0 74 9t69.5 21.5t70.5 21.5t73 9q45 0 89 -12t88 -25.5 t89 -25.5t94 -12v-37q-49 0 -92 11t-85 25.5t-85 25.5t-90 11q-41 0 -79 -10t-75.5 -22.5t-75.5 -22.5t-77 -10q-35 0 -68.5 10t-66.5 22.5t-65.5 22.5t-69.5 10q-41 0 -76 -10t-71 -23.5t-71.5 -23.5t-76.5 -10t-77 10t-71 23.5t-70.5 23.5t-74.5 10q-31 0 -59.5 -8 t-58.5 -18t-59.5 -18.5t-60.5 -8.5zM14 119v278h723q-20 -8 -72.5 -28.5t-111.5 -44t-111.5 -45t-72.5 -29.5q-12 -4 -23.5 -10.5t-21.5 -18.5q4 -4 21 -8t24 -6h8h6l694 250h29l-45 -43h280q-4 8 -19 25.5t-28 31.5q-10 10 -16 22.5t-10 22.5q0 10 14 18.5t32.5 14.5t36 9 t23.5 3h12l148 -155h235v-273q0 -4 -10 -9t-18 -5q-2 0 -19.5 -1t-25.5 -1q-37 0 -72 9t-69.5 21.5t-70.5 21.5t-75 9q-41 0 -78 -9t-73.5 -21.5t-75.5 -21.5t-80 -9q-35 0 -66.5 10t-63.5 21.5t-65 21.5t-67 10q-37 0 -72 -10t-68.5 -21.5t-68.5 -21.5t-74 -10q-41 0 -78 9 t-73.5 21.5t-73.5 21.5t-78 9q-66 0 -120 -16.5t-120 -42.5zM586 442q0 53 33.5 136.5t86 161t116 134t122.5 56.5q14 0 49 -4t70 -13.5t61.5 -21.5t26.5 -29v-6q-10 -23 -25.5 -50.5t-33 -54t-33 -50t-27.5 -37.5q-6 -8 -22.5 -27t-35 -40.5t-35.5 -39.5t-26 -27v-14 q10 8 38 29.5t58.5 44t58.5 43t38 31.5q23 16 45.5 30.5t52.5 14.5q10 0 28.5 -8.5t37 -20.5t32 -26.5t13.5 -26.5q0 -2 -1 -5l-1 -4q-2 -2 -13.5 -6t-17.5 -8q-45 -18 -117.5 -45t-141.5 -52.5t-118 -44.5l-49 -20h-270zM1001 1098q0 31 12.5 59.5t34 50t50 34.5t59.5 13 q63 0 109.5 -47t46.5 -110q0 -35 -14.5 -61.5t-38 -44t-52 -27t-57.5 -9.5q-68 0 -109 35t-41 107zM1120 471q-1 1 -1 3q0 4 9 5q10 0 7 -7t-7 -7q-2 0 -8 6zM1163 764q0 27 15.5 59.5t46.5 32.5h14l412 -133q10 -4 13 -19.5t3 -25.5q0 -25 -20.5 -34t-46 -11t-50 0t-30.5 2 q-4 -2 -24.5 -8t-43 -14.5t-42 -14.5t-24.5 -8h-8h-6q-4 2 -9 6t-7 8l-1 3q-1 3 -1 7q0 2 1 3l1 1l102 54l-293 80l-1 4q-1 4 -1 8z" />
<glyph unicode="M" horiz-adv-x="1724" d="M12 737q0 35 17.5 62.5t45 47t60.5 30t64 10.5q27 0 51 -12.5t48 -25.5t46.5 -25.5t44.5 -12.5h8q12 2 39 5t45.5 6t20.5 3q4 2 14 15.5t14 15.5q39 12 93 12q37 0 79 -1q21 0 40.5 -0.5t38.5 0.5q38 1 70 8.5t48 23.5l340 340q23 23 44.5 35t44 17t48 6t58.5 1h69 q51 0 97.5 -3t109.5 -13v-111h-354l-8 -7q-7 -7 -16 -18t-18 -22.5t-16 -17.5l-1 -3q-1 -3 -1 -5t1 -4l1 -2l301 -332l-190 -193l-317 318q-6 6 -24.5 -10.5t-43.5 -39t-50.5 -44t-43.5 -25.5q-72 -8 -120 -12t-101 -4h-74h-21q-16 0 -32.5 1t-30.5 1h-21q-14 12 -23 14 t-26 2q-57 0 -88 -21.5t-58.5 -47t-62 -47t-102.5 -21.5q-4 0 -16.5 1t-24.5 1t-24.5 1t-16.5 1q-35 10 -55.5 38.5t-20.5 63.5zM57 733q0 -25 11.5 -39t29 -21t38 -9t40.5 -2q25 0 50.5 5t48 17t37 32.5t14.5 49.5q0 27 -12.5 42t-31 22.5t-41 9.5t-42.5 2 q-55 0 -98.5 -21.5t-43.5 -87.5zM70 1108q0 16 17 26.5t41 15.5t47.5 6t33.5 1q0 -47 -10.5 -94t-10.5 -96q-18 0 -39.5 16t-39 38.5t-28.5 46.5t-11 40zM823 1202q0 61 39 94t96 33q66 0 92.5 -35t26.5 -96q0 -59 -30.5 -91t-94.5 -32q-53 0 -91 35t-38 92zM1016 70 q0 4 1 11l1 7l575 576q0 2 7.5 3t11.5 1q31 0 44 -19.5t13 -48.5q0 -4 -1 -13t-1 -12l-561 -561q-4 -2 -14.5 -6t-14.5 -8h-8q-31 0 -42 21.5t-11 48.5zM1591 397q0 8 10.5 23.5t24.5 31t29.5 25.5t25.5 10q8 0 18.5 -10t10.5 -20v-191q-35 16 -66.5 52t-50.5 65q0 2 -1 7 t-1 7z" />
<glyph unicode="N" horiz-adv-x="1445" d="M10 1333q0 29 14.5 49.5t45.5 20.5q4 0 9 -1l5 -1l1106 -397q10 -4 21.5 19.5t23.5 60t27.5 82.5t34 85t41 65.5t53.5 26.5q29 0 32.5 -13t3.5 -42q0 -37 -6 -67.5t-16 -61.5t-23.5 -64.5t-27.5 -76.5q-4 -12 -13.5 -40t-21.5 -55.5t-29.5 -48t-38.5 -20.5q-29 0 -63.5 8 t-71.5 20.5t-71.5 25t-59.5 22.5q-6 -10 -16.5 -30.5t-14.5 -29.5q-6 -18 -23.5 -62t-35.5 -93t-34.5 -92t-22.5 -62h-9q-25 0 -72.5 12.5t-95 32t-83 46t-35.5 57.5v28l102 310q0 2 -10 7t-19 7l-546 207q-23 10 -41.5 24.5t-18.5 40.5zM285 0l184 516q4 14 14.5 15t22.5 1 q8 0 21.5 -1t26.5 -5t22.5 -10t9.5 -14v-15l-176 -487h-125zM557 129v33l102 295l9 1q10 1 16 1q12 0 28.5 -1t32 -5t25.5 -13.5t10 -25.5q0 -4 -1 -9.5t-1 -7.5q-4 -14 -16 -50t-26.5 -76t-27 -74.5t-18.5 -49.5q-4 -10 -10 -25.5t-15.5 -29.5t-20.5 -24.5t-28 -10.5 q-35 0 -47 19.5t-12 52.5zM733 1327q0 53 27.5 86t91.5 33q53 0 86 -37t33 -90q0 -61 -37 -87t-96 -26q-55 0 -80 34t-25 87zM1102 1548q0 61 36 98t97 37q59 0 97 -37t38 -98q0 -57 -38 -96t-95 -39q-63 0 -99 36t-36 99zM1133 1548q0 -43 27.5 -73.5t74.5 -30.5 q41 0 71.5 31.5t30.5 72.5q0 45 -32.5 75t-75.5 30q-45 0 -70.5 -32t-25.5 -73z" />
<glyph unicode="O" d="M14 766q16 -23 40 -27t50 -4q10 0 25.5 1t17.5 1t13.5 4t24 10.5t22.5 10.5t14 4q2 0 13.5 -4t23.5 -10.5t22.5 -10.5t14.5 -4h10q8 0 18.5 -1t22.5 -1h19q41 0 72.5 9.5t70.5 9.5t67.5 -12.5t77.5 -24.5q35 0 61.5 11t65.5 17q41 4 72 8.5t33 12.5l-103 31 q-31 -20 -62.5 -25.5t-66.5 -15.5q-23 6 -40 9t-34.5 7t-36 12.5t-40.5 26.5q-37 -23 -70 -35t-74 -12q-8 0 -20 1t-14 1q-4 2 -19.5 9t-32 15.5t-32 14.5t-19.5 6q-18 2 -42.5 -6t-51.5 -17.5t-55.5 -16.5t-57.5 -5zM45 428q0 -2 5 -12t12.5 -24.5t14.5 -29t11 -22.5 q41 -68 106.5 -119t142.5 -84t159 -49t157 -16q47 0 86 6t73 19.5t65.5 37t66.5 58.5h221q6 0 21.5 4t31 11t26.5 16t11 20q0 2 -1 3t-1 3q-137 70 -283.5 141.5t-299 130t-309 94t-316.5 35.5v-223zM752 0q10 0 27.5 -2t31.5 -2h14q43 0 79 4t69 45q12 0 38.5 2t57.5 4 t57.5 4t38.5 4q14 2 47 11.5t65 25t56.5 35t24.5 39.5q0 2 -1 4l-1 2q-2 4 -13.5 9t-15.5 8q-86 -63 -174 -73q-45 -5 -95 -6q-48 0 -100 5q-55 -23 -103 -59.5t-103 -59.5zM911 463q0 -2 1 -4l1 -2l312 -148q43 72 60.5 156t27.5 170q2 0 3 1t3 1q10 0 18.5 -27.5 t16.5 -64.5t16 -71t16 -46q2 -4 11.5 -14.5t22 -22.5t23.5 -22.5t17 -14.5q12 -10 44 -36.5t67 -55.5t66.5 -53.5t43.5 -32.5q25 -2 45.5 -17.5t42.5 -15.5v33l-323 606q-4 41 -13.5 57.5t-48.5 16.5h-28l-295 -104h-14q10 25 13 42t3 42q0 20 -8 28t-31 8 q-37 0 -59.5 -20.5t-33.5 -50t-15.5 -63t-4.5 -60.5v-14q0 -10 1 -22.5t1 -23.5v-14q4 -14 16.5 -15t22.5 -1q4 0 11.5 1t9.5 1l399 162l5 1t9 1q16 0 24.5 -6.5t19.5 -24.5l206 -369v-14q-20 14 -44.5 31.5t-47 38t-42 44t-27.5 48.5l-60 190q-2 6 -7 16.5t-7 14.5h-6h-9 q-4 -2 -21 -7t-24 -7q-16 -6 -64 -26.5t-104.5 -43.5t-108.5 -45.5t-77 -32.5q-25 -14 -50.5 -40.5t-25.5 -57.5zM1090 995q0 -68 36.5 -104.5t104.5 -36.5q66 0 103.5 35.5t37.5 101.5t-38 106t-103 40q-72 0 -106.5 -39t-34.5 -103z" />
<glyph unicode="P" horiz-adv-x="1636" d="M12 788q0 -23 14.5 -37t39.5 -14q23 0 38 15.5t15 35.5q0 31 -18.5 42.5t-45.5 11.5q-29 0 -36 -14.5t-7 -39.5zM55 451q0 -23 13.5 -38.5t37.5 -15.5q23 0 37.5 15.5t14.5 38.5q0 29 -17.5 41t-42.5 12q-29 0 -36 -14.5t-7 -38.5zM125 1128q0 -51 53 -51q23 0 37 14 t14 37q0 31 -17 42.5t-44 11.5q-29 0 -36 -14.5t-7 -39.5zM244 223q0 -51 53 -51q20 0 35.5 14t15.5 37q0 29 -17.5 41t-45.5 12q-29 0 -35 -14t-6 -39zM291 752q59 -74 130 -144.5t136 -136.5q14 -14 28.5 -15t30.5 -1q4 0 14.5 1t14.5 1l250 215h281l8 6t17 13t18.5 16.5 l15.5 15.5l119 117q18 23 31.5 36t13.5 37q0 4 -1 9.5t-1 7.5q-25 33 -56.5 68.5t-65.5 71.5t-67.5 67.5t-60.5 56.5l-5 1q-5 1 -9 1q-27 0 -46 -16l-249 -250q-4 -4 -9.5 -15.5t-7.5 -15.5q0 -6 -3 -23.5t-5 -36t-4 -35t-2 -22.5l-191 -192l-251 235q0 2 -8.5 3t-12.5 1 q-53 0 -53 -55v-22zM391 1298q0 -23 13.5 -37t39.5 -14q20 0 36 15.5t16 35.5q0 29 -17.5 42.5t-46.5 13.5t-35 -14.5t-6 -41.5zM571 856q0 -45 28 -75.5t75 -30.5q45 0 74.5 29.5t29.5 76.5q0 18 -11 44t-26 38q-12 12 -33.5 16t-39.5 4q-43 0 -70 -30.5t-27 -71.5z M985 317q0 -31 13.5 -46t35 -23t48 -9t51.5 -3q27 -2 69.5 -4.5t82.5 -4.5t69 -4l28 -2l29 -14l207 -207v176l-139 148v487h-23l-457 -428q-14 -14 -14 -33v-33zM1028 944l105 103l88 -103h-193zM1176 369l147 147h14v-147h-161z" />
<glyph unicode="Q" d="M14 0v664q0 47 41 93t98.5 83t118 59.5t97.5 22.5h456l60 36h884v-81h-383q-6 -35 -23 -48.5t-40 -18.5t-48.5 -9t-49.5 -19q-33 -20 -80 -75.5t-97.5 -115t-97.5 -105.5t-80 -46q-4 0 -9 1l-5 1l-221 103q-2 0 -7.5 1t-9.5 1q-23 0 -31.5 -11.5t-25.5 -33.5 q-16 -18 -49 -60.5t-67.5 -86.5t-65.5 -83t-39 -51l-133 -192q-4 -8 -15.5 -18.5t-15.5 -10.5h-162zM618 1315q164 0 164 -164q0 -166 -164 -166q-163 0 -163 164q0 166 163 166zM721 745q0 -2 1 -5l1 -3l14 -14q12 -10 33 -25.5t39 -29t33 -23.5l14 -10h14q2 0 15.5 13.5 t32 31.5t38 38.5t31.5 33.5q6 6 23.5 28.5t21.5 30.5h-162q-37 -29 -68.5 -41t-78.5 -18q0 -2 -1 -4z" />
<glyph unicode="R" d="M8 -4q33 0 59.5 1t51.5 7q23 4 47 14.5t72 20.5q37 11 71 11q10 0 20 -1q44 -4 87 -15t87 -23.5t93 -12.5q35 0 68.5 10t65.5 21.5t65.5 21.5t68.5 10q33 0 61.5 -10t58.5 -21.5t58.5 -21.5t61.5 -10q37 0 69.5 10t64.5 21.5t64.5 21.5t67.5 10q37 0 71 -10t66.5 -21.5 t67.5 -21.5t72 -10h30q29 0 58.5 8t29.5 39q-33 0 -62.5 -9t-70.5 -9q-35 0 -67.5 9t-63.5 21.5t-62.5 21.5t-66.5 9t-65.5 -9t-62.5 -21.5t-63.5 -21.5t-66.5 -9q-33 0 -63.5 9t-61.5 21.5t-61.5 21.5t-61.5 9q-39 0 -74.5 -9t-70.5 -21.5t-71 -21.5t-72 -9q-33 0 -64 7 t-61.5 16t-61.5 17.5t-63 8.5q-25 0 -49.5 -1t-53.5 -5l-22 -11q-49 -23 -100.5 -28.5t-94.5 -16.5v-18zM8 119q2 -18 19 -19h24q82 0 152 29q64 27 108 27h11q33 -2 65.5 -11.5t66 -18.5t68.5 -17.5t72 -8.5q33 0 64.5 10.5t62.5 21.5t62.5 21.5t66.5 10.5q31 0 61.5 -9.5 t60 -21.5t59.5 -21.5t63 -9.5q37 0 70.5 10.5t67.5 21.5t68.5 21.5t73.5 10.5q35 0 67 -10.5t63.5 -22.5t63 -22.5t66.5 -10.5q12 0 35 1t45.5 6.5t38.5 15.5t16 29q-35 0 -65.5 -10.5t-65.5 -10.5q-37 0 -70.5 9.5t-67.5 21.5t-67.5 21.5t-68.5 9.5q-33 0 -63.5 -9.5 t-60.5 -21.5t-61.5 -21.5t-64.5 -9.5q-35 0 -65.5 9.5t-61.5 21.5t-62.5 21.5t-66.5 9.5q-39 0 -74.5 -9.5t-71.5 -21.5t-73 -21.5t-76 -9.5q-31 0 -59.5 9.5t-57 21.5t-58.5 21.5t-60 9.5q-31 0 -59.5 -7.5t-51.5 -13.5l-35 -16q-35 -10 -84 -21.5t-90 -15.5zM8 211 q37 0 63.5 3t53.5 9t57.5 13.5t71.5 13.5q36 20 67 20q8 0 16 -2q38 -6 79 -20q41 -12 82 -21.5t86 -9.5q37 0 70.5 9.5t68.5 21.5q31 14 71 19t66 9q27 -6 58.5 -10t60.5 -18q31 -10 60.5 -19.5t62.5 -9.5q37 0 72.5 9.5t69.5 19.5t68 17q26 5 53 5h15q68 -16 127.5 -35.5 t143.5 -27.5q53 16 81.5 19t32.5 32q0 2 -1 4t-1 4q-6 -4 -22.5 -8t-34.5 -9t-35.5 -8t-23.5 -5h-17q-35 0 -65.5 9t-62.5 21.5t-63.5 21.5t-66.5 9t-66.5 -8t-62.5 -17.5t-62.5 -16.5t-66.5 -7q-70 0 -133 23.5t-129 29.5q-43 -4 -76 -13t-64.5 -18.5t-66.5 -16.5t-80 -7 q-31 2 -58.5 4t-53.5 16q-29 12 -57.5 21.5t-59.5 9.5h-23q-18 0 -22 -2q-10 -2 -29.5 -8t-46.5 -21q-53 0 -101 -18.5t-106 -18.5v-18zM8 322q33 0 59.5 1t51.5 5q23 6 49.5 12t79.5 22q43 10 83 12h7q37 0 76 -14q45 -14 89 -26t93 -12q35 0 68.5 10t65.5 21.5t65.5 21.5 t68.5 10q33 0 61.5 -10t58.5 -21.5t58.5 -21.5t61.5 -10q35 0 68.5 10t67.5 21.5t67.5 21.5t68.5 10t68 -10t65.5 -21.5t66.5 -21.5t71 -10h30q29 0 58.5 8t29.5 41q-33 0 -62.5 -9.5t-64.5 -9.5t-68.5 9.5t-65 21.5t-64.5 21.5t-68 9.5t-65.5 -10.5t-62.5 -21.5 t-63.5 -21.5t-66.5 -10.5q-33 0 -63.5 10.5t-61.5 21.5t-61.5 21.5t-61.5 10.5q-39 0 -73.5 -9.5t-69.5 -21.5t-70 -21.5t-73 -9.5q-35 0 -64 7.5t-58.5 16.5t-59 16t-62.5 7h-51q-27 0 -82 -24q-49 -8 -100.5 -19.5t-94.5 -15.5v-18zM8 414q0 -2 23.5 -7.5t36.5 -9.5h8 q33 0 64.5 9.5t62 21.5t62.5 21.5t67 9.5q33 0 64.5 -9.5t61 -21.5t60.5 -21.5t66 -9.5q33 0 64.5 12.5t63 26t63.5 25.5t67 12q33 0 65.5 -9t64.5 -21.5t63.5 -21.5t66.5 -9t64.5 9t59 21.5t58.5 21.5t62 9q72 0 136 -22.5t136 -34.5q14 4 37.5 5t48.5 5t42 14.5t19 32.5 q-39 0 -73.5 -16.5t-73.5 -16.5q-61 23 -123.5 38.5t-114.5 37.5l-811 29q-4 0 -20.5 10t-24.5 20l-264 236q-4 0 -11 1t-11 1q-23 0 -34 -5t-32 -26q-18 -18 -46 -45.5t-54.5 -53.5t-45 -44t-18.5 -21v-116q31 12 60.5 39.5t58.5 54.5t55.5 47.5t55.5 20.5h8q8 -8 28.5 -27 t43 -40.5t44 -39.5t31.5 -27l15 -14l1 -3t1 -5t-1 -3t-1 -3q-55 0 -104.5 -13.5t-96.5 -29t-96.5 -27.5t-102.5 -12v-6zM598 672q0 -51 34 -76t77 -25q96 1 112 101q-8 53 -33.5 81.5t-78.5 28.5q-41 0 -76 -34.5t-35 -75.5z" />
<glyph unicode="S" d="M14 59q10 -18 31 -30.5t45.5 -18.5t48 -9t41.5 -3q31 2 61.5 10t61.5 16.5t62.5 15.5t66.5 9q43 0 74 -4t65.5 -16.5t71.5 -21.5t76 -9q35 0 67.5 10t64.5 21.5t63.5 21.5t66.5 10q31 0 61.5 -10t59 -21.5t58.5 -21.5t61 -10q37 0 70.5 10t68.5 21.5t69.5 21.5t71.5 10 q35 0 68 -11t65.5 -23.5t65.5 -23.5t69 -11v22q-37 4 -71.5 16.5t-68.5 25t-68.5 22.5t-71.5 10q-35 0 -65.5 -9t-62.5 -21.5t-63.5 -21.5t-66.5 -9t-65.5 10t-60.5 21.5t-59.5 21.5t-62.5 10q-37 0 -71.5 -10t-69.5 -21.5t-70 -21.5t-72 -10q-35 0 -66.5 8t-62 17 t-63.5 17.5t-66 8.5q-35 0 -66.5 -8.5t-62 -17.5t-62.5 -17t-65 -8q-45 0 -84 16t-79 16h-9zM14 162l12 -6q11 -6 24 -12.5t27.5 -13.5t24.5 -11q27 -14 38.5 -16.5t37.5 -2.5q33 0 64.5 10.5t62.5 22.5t62.5 22.5t66.5 10.5t69 -10.5t67.5 -22.5t68.5 -22.5t70 -10.5 t66.5 10.5t64 21.5t65.5 21.5t68 10.5q68 -4 125 -25.5t129 -36.5q35 6 67.5 16.5t64.5 22t64.5 18.5t67.5 7q37 0 70.5 -10.5t67.5 -23.5t69 -23.5t71 -10.5v21q-37 6 -72.5 18.5t-70.5 24.5t-70.5 21.5t-72.5 9.5q-33 0 -62.5 -9.5t-59.5 -21.5t-58.5 -21.5t-59.5 -9.5 q-37 0 -69.5 9.5t-65.5 21.5t-66.5 21.5t-68.5 9.5q-37 0 -72 -9.5t-68.5 -21.5t-69.5 -21.5t-73 -9.5q-31 0 -60.5 9.5t-59 21.5t-59.5 21.5t-60 9.5q-35 0 -67 -9.5t-63.5 -21.5t-64.5 -21.5t-68 -9.5q-51 0 -89 12.5t-85 32.5v-14zM14 266q0 -12 22.5 -21t51.5 -15.5 t55.5 -8.5t32.5 -2q37 0 72 6q14 4 33.5 9.5t46.5 17.5q38 15 78 15q12 0 24 -1q72 -10 134.5 -29.5t144.5 -19.5q37 0 70.5 10.5t66.5 21.5t66.5 21.5t68.5 10.5q33 0 62.5 -9.5t60.5 -21.5t61.5 -21.5t65.5 -9.5q37 0 69.5 9.5t64.5 21.5t64.5 21.5t67.5 9.5 q31 0 60.5 -9.5t57 -21.5t57.5 -21.5t61 -9.5q4 0 18 1t18 1q-12 6 -43.5 17.5t-66.5 22.5t-66.5 20.5t-44.5 13.5q-4 2 -24.5 3t-32.5 1q-35 0 -66.5 -8t-63.5 -17.5t-63.5 -17.5t-66.5 -8t-66.5 8t-62.5 17.5t-63.5 17.5t-65.5 8q-37 0 -73 -10t-71.5 -21.5t-70.5 -20.5 q-24 -6 -48 -6l-22 1q-12 -1 -23 -1q-23 0 -41 5q-28 8 -54.5 19t-55.5 21.5t-61 10.5q-37 0 -66.5 -6.5t-58.5 -16.5l-33 -8q-31 -14 -51.5 -16t-50.5 -2q-41 0 -57.5 1t-37.5 11q-23 8 -42 16.5t-42 8.5v-19zM14 383q10 -18 31 -29.5t45.5 -18.5t48 -10t41.5 -3 q33 0 64.5 10t62.5 21.5t61.5 21.5t65.5 10q37 0 72 -10t69.5 -21.5t69.5 -21.5t74 -10q35 0 67.5 10t64.5 21.5t63.5 21.5t66.5 10q31 0 61.5 -10t59 -21.5t58.5 -21.5t61 -10q37 0 68.5 10t63 21.5t64.5 21.5t68 10q37 0 72.5 -10t70.5 -21.5t70 -21.5t71 -10v18 q-10 0 -41.5 8t-66.5 17.5t-62.5 18.5t-27.5 13v281q0 27 -25.5 51.5t-55.5 45t-55.5 33.5t-25.5 17v561q0 14 -20.5 29t-32.5 15q-2 0 -12.5 -5.5t-16.5 -9.5q-4 -4 -9 -8t-5 -6l-33 -668l-336 -319l-12 -4q-12 -4 -29.5 -9.5t-35 -10.5t-27.5 -7q-2 -2 -10.5 1t-10.5 3 v277q0 27 -25.5 51t-56 44.5t-56.5 34t-26 17.5v561q0 16 -21.5 30.5t-35.5 14.5q-4 0 -6 -1l-2 -1q-4 -4 -15.5 -14t-13.5 -15q-2 -31 -6 -106.5t-9 -159.5t-9.5 -158.5t-6.5 -105.5q0 -6 -2 -25.5t-4 -41t-4 -41t-4 -25.5l-280 -281q-6 -6 -20.5 -18t-31 -26.5t-31 -27 t-20.5 -16.5h-8h-6q-4 2 -14.5 6.5t-22.5 9.5t-23.5 9t-13.5 4t-7 1t-9 1q-2 0 -7.5 -1t-7.5 -1zM264 838q0 -51 25.5 -84t79.5 -33q45 0 81.5 33t36.5 80t-31.5 79.5t-78.5 32.5q-49 0 -81 -30.5t-32 -77.5zM383 414v14l119 102l2 1q2 1 4 1q4 0 6 -1l2 -1q2 -4 6 -19 t8 -24v-8v-8q-4 -14 -8 -35.5t-6 -21.5h-133zM1016 840q0 -53 32.5 -79t84.5 -26q41 0 74.5 28t33.5 75q0 45 -28.5 82.5t-77.5 37.5q-47 0 -83 -35.5t-36 -82.5zM1092 383v14q0 2 17 17.5t41 37t48.5 44t40.5 34.5q4 4 14.5 8.5t14.5 6.5q14 -23 15 -46t1 -48 q0 -27 -1 -50.5t-15 -46.5q-4 0 -21.5 -1t-21.5 -1q-10 0 -26.5 1t-18.5 1q-10 2 -25.5 6.5t-29 8.5t-23.5 8t-10 6z" />
<glyph unicode="T" horiz-adv-x="1695" d="M10 973q2 -4 7.5 -14.5t9.5 -14.5q8 -12 32.5 -39.5t53 -58.5t54.5 -57.5t36 -36.5q2 -2 15 -14.5t29.5 -26t35 -23.5t30.5 -10h9l14 7l14 7l207 185h264q8 0 42 29.5t71 68.5t66.5 77t29.5 54q0 20 -7 31.5t-24 27.5q-20 20 -52 53t-62.5 64t-53 52.5t-24.5 21.5h-43 l-12 -10q-13 -11 -30 -25t-34.5 -28.5t-28.5 -24.5l-133 -133q-14 -16 -19 -36t-7 -42.5t-5 -44t-12 -39.5q-10 -12 -28.5 -32.5t-41 -42t-47 -42t-44.5 -31.5l-4 -1q-3 -1 -5 -1l-8 2l-221 207l-7 1q-7 1 -11 1q-23 0 -39.5 -14t-16.5 -39v-8zM217 340q0 -72 25.5 -133.5 t71.5 -108.5t107.5 -73.5t133.5 -26.5t134.5 25.5t108.5 71.5t72.5 108.5t26.5 136.5q0 39 -2 65.5t-14 65.5h147l281 -278q18 -18 45 -19q23 0 34 16.5t11 38.5q0 16 -4 26.5t-12.5 20t-19.5 20.5t-26 28q-12 12 -43.5 48t-67.5 76.5t-69 76.5t-47 50v443h-23l-397 -354h-6 q-29 12 -61.5 14t-67.5 2q-70 0 -131.5 -27.5t-107.5 -74t-72.5 -107.5t-26.5 -131zM248 346q0 61 26.5 116.5t69.5 97.5t98.5 66.5t114.5 24.5q31 0 50.5 -3t51.5 -13q-10 -23 -12 -36t-2 -34q0 -29 22.5 -44t51.5 -23.5t58.5 -9.5t43.5 -1q31 -27 39 -69.5t8 -77.5 q0 -63 -24.5 -120.5t-67.5 -100.5t-99 -67.5t-120 -24.5q-63 0 -119.5 25.5t-98.5 69.5t-66.5 102.5t-24.5 121.5zM276 1055q0 -39 29 -69t68 -30q41 0 61.5 23.5t20.5 62.5q0 45 -16.5 72t-73.5 37q-53 -10 -71 -35.5t-18 -60.5zM690 1135l88 90l88 -90h-176zM838 618 l131 134v-152q-31 0 -66 3t-65 15zM1159 844q0 -25 20.5 -40.5t49 -24.5t58.5 -12t48 -3q27 0 50.5 7t47 16.5t47 16.5t50.5 7q41 0 76.5 -16.5t74.5 -16.5q0 23 -16 35t-38.5 18.5t-47.5 8.5t-41 2q-53 0 -100 -16.5t-101 -16.5q-47 0 -90 17.5t-88 17.5zM1161 737 q12 -18 32.5 -30.5t45.5 -19.5t50.5 -9t45.5 -2q53 0 100.5 16.5t100.5 16.5q41 0 73.5 -9.5t71.5 -9.5q0 20 -15 33.5t-36.5 20t-45 8.5t-40.5 2q-27 0 -52.5 -7.5t-51 -15.5t-51 -15t-52.5 -7q-39 0 -83 15t-78 28zM1161 913l11 -6q12 -6 25 -12t27.5 -13.5t24.5 -11.5 q27 -12 39 -14t37 -2q27 0 50.5 7t48 16.5t48 16.5t50.5 7q41 0 79.5 -16.5t79.5 -16.5q0 16 -17 30.5t-39.5 25t-45.5 15.5t-33 5q-29 0 -54.5 -7t-52 -16.5t-53 -16.5t-55.5 -7q-45 0 -85 17.5t-85 17.5v-19zM1161 1004q0 -4 13.5 -12.5t32 -17.5t39 -17.5t34.5 -12.5 l16 -1q17 -1 25 -1q29 0 55.5 7t53 16.5t53 16.5t55.5 7q39 0 73 -16.5t70 -16.5q0 20 -17 34t-42 20t-49.5 8t-36.5 2q-53 0 -99 -17.5t-100 -17.5q-47 0 -88 18.5t-88 18.5v-18zM1174 649q0 -20 21.5 -32.5t50 -18.5t56 -8t39.5 -2q53 0 97.5 16.5t97.5 16.5 q39 0 72.5 -10.5t68.5 -10.5v18q0 2 -10 8.5t-23.5 13.5t-29 13t-25.5 11l-13 1t-22 1q-29 0 -54 -7.5t-50 -16.5t-51.5 -16.5t-52.5 -7.5q-43 0 -87.5 15.5t-82.5 30.5q0 -2 -1 -6.5t-1 -8.5z" />
<glyph unicode="U" horiz-adv-x="1415" d="M12 1090q0 39 15.5 59t46.5 45q39 33 80 74t87 77.5t97 61.5t108 25h17q10 0 21.5 -1t21.5 -1h10l782 -74q41 -2 73 -13.5t32 -58.5q0 -35 -19.5 -47t-54.5 -12h-16l-576 43h-10q0 -33 20.5 -59.5t44 -51t44 -49.5t20.5 -53q0 -12 -29.5 -43t-69.5 -62.5t-79 -56.5 t-60 -25q-41 0 -78.5 51.5t-75.5 113t-77 112.5t-78 51q-4 0 -8 -1t-6 -1q-4 -4 -16.5 -14.5t-27.5 -21.5t-27.5 -22.5t-16.5 -15.5q-6 -4 -17.5 -14t-13.5 -14l-1 -4q-1 -3 -1 -5t1 -4l1 -2q8 -10 29.5 -37.5t45 -58.5t44 -58.5t29.5 -37.5q14 -18 30.5 -40.5t16.5 -49.5 q0 -23 -16.5 -34t-37.5 -11q-4 0 -11 1t-11 1q-10 8 -36 33.5t-54.5 54t-53 54.5t-32.5 36l-30.5 30.5t-35 40t-29 44t-12.5 45.5zM381 1608q0 8 1 24.5t1 18.5q2 10 7 20t7 10h193q4 0 8 -10t6 -20q0 -2 1 -18.5t1 -24.5q0 -53 -26.5 -87t-85.5 -34t-86 33.5t-27 87.5z M707 760q0 4 1 5l1 1l75 78l588 -725q12 -14 14.5 -25.5t2.5 -27.5q0 -23 -14.5 -37.5t-39.5 -14.5q-14 0 -31.5 12.5t-35 28t-29.5 29.5t-14 18l-488 607q-4 4 -15 21.5t-13 21.5l-1 3t-1 5zM735 125q0 127 127 127t127 -127t-127 -127t-127 127zM764 125q0 -98 98 -98 q99 0 99 98t-99 98q-98 0 -98 -98zM838 877q0 2 1 5l1 3q2 2 13 14t27 25q16 14 30 26q12 9 17 9q2 0 3 -1q8 -2 28.5 -21t47 -49t55.5 -66t52.5 -69.5t38.5 -61.5t15 -42q0 -31 -19.5 -46t-49.5 -15q-2 0 -10.5 1t-10.5 1q-68 57 -132 129t-105 151l-1 2q-1 2 -1 5z" />
<glyph unicode="V" horiz-adv-x="1695" d="M14 604v23h930l14 22l-118 148q-2 4 -7.5 9t-7.5 5l-280 29l-37 30v117l-21 23h-473v30h494v185l9 5t13 9q6 4 17.5 9t13.5 5q18 0 36.5 -20.5t20.5 -38.5q2 -10 4.5 -30.5t5.5 -43t5 -44t2 -29.5h131q-23 45 -38 82.5t-23.5 74.5t-11.5 77t-3 91v21q0 18 1 36.5t1 34.5 v25q4 23 13.5 42t31.5 19q16 0 25.5 -6t19.5 -24q0 -42 -2 -98v-27q0 -43 4 -85q6 -56 24.5 -106.5t61.5 -83.5q-1 7 -1 13q0 44 24 75q27 35 80 35q92 0 92 -92q0 -53 -34 -81t-87 -30h309l29 -22l-14 -14h-281l369 -377h325v-23h-1667zM397 1409q0 41 35 76t78 35 q47 0 79 -32t32 -79q0 -41 -35 -76t-78 -35q-41 0 -76 35t-35 76zM426 1409q0 -37 23.5 -60.5t58.5 -23.5q43 0 63.5 27.5t20.5 66.5q0 33 -20.5 52.5t-51.5 19.5q-39 0 -66.5 -20.5t-27.5 -61.5zM633 967q0 -6 1 -21.5t15 -15.5h133q14 0 15.5 15.5t1.5 21.5q0 4 -1 20.5 t-16 16.5h-133q-14 0 -15 -16.5t-1 -20.5zM1077 102v400h111v-295h57v295h133v-309l185 -193h-162l-74 66h-221z" />
<glyph unicode="W" horiz-adv-x="1681" d="M14 45v764l295 -279q14 -12 15.5 -28.5t1.5 -32.5q0 -6 -1 -17l-1 -10l-191 -206q-14 -14 -17 -37t-3 -49q0 -27 2 -53.5t-1 -48t-13.5 -36t-32.5 -14.5q-16 0 -35 11t-19 36zM59 870h471q12 0 23.5 -10t21.5 -20q4 -4 13.5 -15.5t9.5 -13.5v-207q8 0 32.5 -2t51.5 -4 t51.5 -4t32.5 -4q47 -6 47 -51q0 -18 -12.5 -35t-34.5 -17h-309q-16 0 -18.5 32t-5.5 72t-15 75.5t-49 42.5q-10 0 -33 3t-48.5 5t-49 4t-31.5 2zM119 383h14l88 88l-102 104v-192zM633 858q0 35 20.5 54.5t55.5 19.5t54 -19.5t19 -54.5t-16 -63.5t-57 -28.5t-58.5 28.5 t-17.5 63.5zM885 539q0 18 12 32.5t33 18.5q8 2 30.5 4t48 4t49 4t34.5 2q0 8 2 29.5t4 44t4 43t4 31.5q2 12 5 32.5t11 40t21.5 32.5t36.5 13h456q-2 -4 -6 -15t-8 -15q-12 -12 -31.5 -34t-38 -42.5t-33 -34.5t-16.5 -14h-190l-31 -23q0 -12 -2 -36.5t-5 -53.5t-9 -56.5 t-13 -43.5q-2 -4 -6 -9.5t-8 -5.5h-309q-20 0 -32.5 17.5t-12.5 34.5zM911 856q0 35 25 55.5t59 20.5q35 0 58.5 -20.5t23.5 -55.5q0 -12 -6 -27.5t-16.5 -30t-23.5 -23.5t-27 -9q-37 0 -65 29.5t-28 60.5zM1370 471q0 14 3 23.5t13 21.5q23 25 57 59.5t72.5 72.5t77.5 73.5 t74 60.5v-768q0 -12 -10 -14t-21 -2q-8 0 -16 2t-12 14l-31 207l-191 207q-10 12 -13 20.5t-3 22.5zM1487 479q0 -2 1 -5l1 -3l88 -88v178q-8 -4 -22.5 -14t-30 -21.5t-26.5 -24t-11 -22.5z" />
<glyph unicode="X" horiz-adv-x="1622" d="M12 745q0 -2 1 -5l1 -3q4 -4 11.5 -8t11.5 -6v-252h74v252h28v-252h74v252h59v-442h258q18 0 34 18t28 44t18 51.5t6 39.5h-188v289h766v-289h-201q0 -14 7.5 -39.5t18.5 -51.5t26.5 -44t31.5 -18h273v442h59v-252h74v252h28v-252h74v252q4 2 11.5 6t11.5 8l1 3t1 5l-2 7 q-4 4 -11.5 8t-11.5 6v221h-74v-221h-28v221h-74v-213q-41 0 -69.5 12.5t-63.5 12.5q-23 0 -36 -5.5t-32 -27.5h-794l-60 31h-8q-18 0 -28.5 -3t-22.5 -8.5t-30.5 -8.5t-51.5 -3v213h-74v-221h-28v221h-74v-221q-4 -2 -11.5 -6t-11.5 -8zM561 250q0 -14 2 -49t4 -75t4 -76 t4 -50h457q4 0 9.5 22.5t5.5 36.5v15q0 14 1 31.5t1 33.5v31v20q0 16 -1 34t-1 34v23q-31 18 -50.5 64t-23.5 83h-6h-9l-32 -20l-31 -25l-16 -6q-39 -8 -72 -12q-23 6 -47.5 11t-43 15t-28.5 24.5t-33 14.5q-2 0 -10 -1t-10 -1q0 -29 -11.5 -50.5t-25.5 -40t-25.5 -36.5 t-11.5 -41v-10zM662 549q0 -47 17 -76t48 -49q29 -18 67 -22q16 -2 30 -2q19 0 36 3q63 27 89 62t26 84q0 31 -13.5 58.5t-35 49t-49 33.5t-58.5 12q-72 0 -114.5 -44t-42.5 -109z" />
<glyph unicode="Y" horiz-adv-x="1650" d="M10 973q0 27 20.5 50.5t49.5 23.5h8l737 -15l105 -102v-17h-885q-25 0 -30 22.5t-5 37.5zM57 1161v15q0 18 1 33.5t16 29.5q18 0 64 2t97.5 4t97.5 4t64 4q8 0 23.5 2t30 4.5t24.5 4.5t12 4l398 399h471q25 0 43 -22.5t18 -45.5q0 -18 -20.5 -45.5t-40.5 -27.5h-398 l-59 -66q14 -14 50 -51t76 -80t76 -81t50 -54l29 -43q-6 -10 -28 -38t-32 -36q-12 -14 -31.5 -34.5t-38 -39t-32.5 -31.5l-14 -14h-31l-295 281l-133 -119h-457q-18 0 -24.5 14.5t-6.5 26.5zM307 1436q0 63 40 96t99 33q53 0 84 -32t31 -85t-31.5 -94t-95.5 -41 q-49 0 -88 38t-39 85zM811 0v530q0 12 10 14.5t19 2.5q4 0 9 -1t7 -1v-545h-45zM897 678q0 16 1 30.5t15 28.5l326 324q2 2 10 3t13 1q29 0 41 -27.5t12 -54.5q0 -18 -2 -27.5t-15 -25.5q-6 -10 -25.5 -35t-41 -51.5t-39.5 -51t-27 -32.5h412q41 0 51 -24.5t10 -51.5v-16 q0 -16 -5 -33t-25 -17h-664q-27 0 -37 19.5t-10 40.5z" />
<glyph unicode="Z" horiz-adv-x="1650" d="M10 1163q0 -25 7.5 -34t41.5 -9q6 0 34 6.5t40 8.5q14 4 55 16t85 26.5t84 28t57 19.5q10 -4 34.5 -16.5t53 -27t53.5 -27.5t35 -19q8 -4 19.5 -14.5t8.5 -14.5l-212 -457h36l310 103q18 6 27 17t15.5 24.5t12.5 25.5t18 21q10 -4 15 -15q2 -4 11 -21.5t19.5 -36.5 t18.5 -36.5t10 -21.5t18.5 -15.5t26.5 -15.5l264 -133q23 -10 35 -13.5t35 -3.5q16 0 27.5 19.5t19.5 51.5t16.5 70t19.5 74.5t27.5 66.5t41.5 46q59 8 92.5 33.5t60.5 42.5q27 23 41 57.5t14 108.5q0 25 -3 50.5t-14 45.5t-30.5 33.5t-50.5 13.5q-43 0 -80 -22.5 t-63.5 -57.5t-42 -77t-15.5 -83q0 -35 16.5 -66.5t16.5 -66.5v-12l-90 -192h-14q-2 0 -22.5 10t-48.5 24.5t-57.5 28.5t-47.5 25q-37 20 -64 34.5t-41 53.5q-6 14 -20.5 55t-30.5 85t-30.5 84t-20.5 56q-4 10 -15 15q-4 4 -19 13t-31.5 18.5t-32 16.5t-21.5 11 q-31 16 -81 41l-97 48.5l-81 40.5t-36 17h-88q-2 0 -38 -11t-85 -27.5t-101.5 -34t-84.5 -29.5q-29 -10 -46.5 -27.5t-17.5 -48.5zM88 0h141l228 487h-15q-18 0 -39.5 -3t-42 -9t-39 -17.5t-26.5 -29.5zM440 158q0 -31 10.5 -50.5t51.5 -19.5q14 0 33.5 17.5t25.5 27.5 l131 264q10 20 16.5 32.5t10.5 23t5 21.5t1 30q0 27 -12.5 43t-40.5 16q-27 0 -40.5 -9t-27.5 -38l-162 -323q0 -2 -1 -13.5t-1 -21.5zM721 1364q0 -49 29.5 -81t83.5 -32q47 0 79.5 32t32.5 81q0 53 -32.5 83t-79.5 30q-53 0 -83 -30t-30 -83zM1372 987q0 33 13.5 72 t37 72.5t56 55t69.5 21.5q20 0 32.5 -12t19 -30.5t8.5 -38t2 -31.5q0 -31 -11.5 -67t-33 -64.5t-50 -48t-65.5 -19.5q-31 0 -54.5 30.5t-23.5 59.5z" />
<glyph unicode="[" horiz-adv-x="819" d="M14 14q0 -12 10.5 -14t20.5 -2q8 0 16.5 2t12.5 14l28 207l193 207q10 12 13 20.5t3 22.5q0 23 -16 45q-25 25 -58.5 59.5t-71.5 72.5t-78 73.5t-73 60.5v-768zM45 870q0 -4 5 -15t9 -15q12 -12 32 -34t38 -42.5t33 -34.5l14 -14h193l28 -23q0 -12 2 -36.5t6.5 -53.5 t10.5 -56.5t12 -43.5q2 -4 6 -9.5t8 -5.5h310q20 0 32.5 17.5t12.5 34.5q0 18 -12.5 32.5t-32.5 18.5q-10 2 -33 4t-48.5 4t-48 4t-32.5 2q0 8 -2 29.5t-4 44t-4 43t-5 31.5q-2 12 -5 32.5t-11 40t-22.5 32.5t-34.5 13h-457zM102 383v178q8 -4 23.5 -14t30 -21.5t26 -24 t11.5 -22.5v-8zM602 856q0 -12 6 -27.5t17.5 -30t25 -23.5t27.5 -9q37 0 63.5 29.5t26.5 60.5q0 35 -23.5 55.5t-58.5 20.5t-59.5 -20.5t-24.5 -55.5z" />
<glyph unicode="\" horiz-adv-x="1253" d="M12 549v14q0 2 18.5 20.5t45 44t54.5 53.5t44 46q6 4 23.5 16.5t21.5 12.5q2 0 13.5 -5.5t15.5 -9.5q4 -2 9 -7l7 -7l-104 -104v-15h590q6 10 20 35t30.5 52.5t32 53t21.5 35.5q2 4 6 9.5t8 7.5h6h9q6 -2 17 -9l11 -8l1 -1q1 -1 1 -5q0 -2 -1 -5l-1 -3l-73 -147v-11 q10 0 16 -2t10 -3t8.5 2t10.5 14q6 8 20.5 31.5t30.5 50t30.5 49t20.5 30.5h23h22q4 -2 10.5 -6t3.5 -8l-88 -162h29q23 33 38 62.5t32.5 53.5t40 38t57.5 14q0 -25 -9 -47t-21.5 -42.5t-26 -42t-21.5 -44.5h88v-57h-73l88 -111l2 -8q0 -2 -1 -5l-1 -3l-14.5 -14.5 l-14.5 -14.5l-3 -1q-3 -1 -5 -1t-4 1t-4 1l-132 133q-4 4 -15 8t-15 7v-15l88 -119l2 -6q0 -2 -1 -5l-1 -3q0 -2 -12.5 -6t-16.5 -8l-2 -1t-6 -1l-6 2l-162 162h-16q6 -8 19 -24.5t25.5 -36t21.5 -39t9 -36.5q0 -16 -11 -22t-28 -6l-6 2l-118 162h-590v-15q8 -6 26.5 -18.5 t40 -26.5t40 -26.5t26.5 -16.5q4 -2 8 -7t6 -9l-43 -43z" />
<glyph unicode="]" horiz-adv-x="819" d="M14 539q0 18 12.5 32.5t32.5 18.5q8 2 31 4t48.5 4t49 4t33.5 2q0 8 2 29.5t4 44t4 43t5 31.5q2 12 5 32.5t11 40t21.5 32.5t35.5 13h457q-2 -4 -6 -15t-8 -15q-12 -12 -32 -34t-38 -42.5t-32 -34.5l-15 -14h-193l-28 -23q0 -12 -2 -36.5t-6.5 -53.5t-10.5 -56.5 t-12 -43.5q-2 -4 -6 -9.5t-8 -5.5h-310q-20 0 -32.5 17.5t-12.5 34.5zM43 856q0 35 23.5 55.5t58.5 20.5t59.5 -20.5t24.5 -55.5q0 -12 -7 -27.5t-17.5 -30t-24 -23.5t-27.5 -9q-37 0 -63.5 29.5t-26.5 60.5zM500 471q0 23 16 45q25 25 58.5 59.5t71.5 72.5t77 73.5t74 60.5 v-768q0 -12 -10.5 -14t-20.5 -2q-8 0 -16.5 2t-12.5 14l-28 207l-193 207q-10 12 -13 20.5t-3 22.5zM616 479q0 -2 1 -5l1 -3l91 -88v178q-8 -4 -23.5 -14t-31 -21.5t-27 -24t-11.5 -22.5z" />
<glyph unicode="a" horiz-adv-x="1576" d="M12 868q0 20 8.5 48t38.5 28h605l442 707l14 16q4 -2 8.5 -7t6.5 -9q70 -86 134 -174t113.5 -181.5t82 -195t38.5 -215.5q10 2 33 -9.5t27 -19.5q0 -2 2 -16.5t2 -22.5q0 -31 -5.5 -42t-13.5 -16t-20 -10.5t-25 -25.5q-12 -184 -83.5 -355t-194.5 -309q-25 -27 -35 -44 t-39 -17q-12 0 -16.5 2t-14.5 14l-338 561l-16 15v-51q0 -72 8 -144.5t8 -144.5h-442q-4 14 -12.5 50t-17.5 76t-17 75.5t-12 50.5q-2 6 -8.5 18t-13.5 26.5t-14 27t-9 16.5q-12 12 -39 40.5t-57.5 61.5t-57.5 62.5t-37 42.5q-12 12 -18.5 19t-9.5 14.5t-4 15.5t-1 22z M248 819q0 -6 2 -21.5t16 -15.5h369q41 0 63.5 33t38.5 62h682q0 195 -71.5 366.5t-196.5 319.5l-9 9t-7 5l-3 1q-2 1 -4 1t-5 -1l-3 -1q-10 -4 -14 -14l-455 -744h-403zM338 1194q0 92 49 138t137 46q90 0 145.5 -50t55.5 -144q0 -39 -17.5 -73t-46 -58.5t-64.5 -38 t-73 -13.5q-86 0 -136 56.5t-50 136.5zM340 0v162h457q2 0 6 -22.5t8 -37.5q2 -4 4 -16t3 -26.5t3 -27t4 -18.5q0 -2 1 -6t1 -8h-487zM743 737l408 -692q16 16 39.5 43t34.5 45q41 76 76.5 147.5t61.5 144.5t41 149.5t15 162.5h-676z" />
<glyph unicode="b" horiz-adv-x="1386" d="M14 266q0 -23 15.5 -28t27.5 -5q8 0 22.5 5.5t28 14.5t22.5 20.5t9 21.5v235l119 105v-252l23 -29q4 2 14 6.5t14 8.5q29 27 71 68.5t80 81.5t66 69l27 30v340l17.5 17.5t24.5 27t28.5 32t29.5 30.5q16 18 24.5 25.5t18.5 23.5q12 20 13 21v385q0 16 -13.5 23t-27.5 7 h-17q-41 0 -58.5 -31.5t-17.5 -72.5q0 -14 -1 -50t-1 -77t1 -76t1 -49l-14 -29l-547 -575v-324zM248 1176q0 -47 29.5 -81t82.5 -34t83 33.5t30 81.5q0 55 -26.5 88.5t-86.5 33.5q-57 0 -84.5 -33.5t-27.5 -88.5zM338 266q0 -41 25.5 -69.5t55.5 -56.5q31 -27 53 -59 q17 -24 17 -59q0 -11 -2 -22h144q0 43 -5 92t-36 84q-10 10 -32.5 33.5t-48.5 49.5l-48.5 48.5l-32.5 32.5q-4 0 -11 1t-11 1q-31 0 -49.5 -23.5t-18.5 -52.5zM528 457q0 -14 3.5 -22.5t13.5 -20.5q8 -10 30.5 -33t47 -49.5t46 -50t31.5 -31.5v-250h125l31 340 q6 6 22.5 25.5t35 40t36 40t23.5 25.5q18 23 32.5 36t14.5 38q0 27 -26.5 48t-49.5 25q-8 -8 -31.5 -28.5t-50 -44t-49 -45t-31.5 -29.5q-4 -4 -21.5 -14.5t-23.5 -14.5q-10 4 -14 15l-1 3q-1 3 -1 5t1 3t1 3q8 8 29.5 31.5t45 49.5t44 49.5t28.5 33.5q16 23 17 45 q0 29 -23.5 52.5t-52.5 23.5q-10 0 -14 -4l-252 -250q-16 -18 -17 -45zM573 1751q0 -8 4.5 -33.5t12.5 -53.5t19.5 -49.5t25.5 -21.5h131q10 4 13 9.5t5 23.5q10 23 16.5 52.5t10.5 45.5q0 4 1 8.5t1 8.5h-47l-25 -94h-84l-34 102zM840 913l252 -249h22v294l21 15l104 -103 q0 -14 2 -50t4 -75.5t4 -75.5t4 -51q4 -29 17.5 -59.5t48.5 -30.5q14 0 33.5 5.5t19.5 27.5v369l-422 426v368h-110v-811zM971 1446q0 -51 29.5 -86t82.5 -35q59 0 86 34t27 87t-27.5 86t-87.5 33q-51 0 -80.5 -35t-29.5 -84z" />
<glyph unicode="c" horiz-adv-x="1548" d="M12 690q0 -29 22.5 -36t45.5 -7q14 0 61 9.5t98.5 25.5t91.5 37.5t40 44.5q0 4 -1 10t-1 8q-4 10 -8.5 26.5t-6.5 16.5l-147 -28q0 2 -1 3t-1 3t1 5l1 3q14 25 48 41t69.5 27.5t68.5 19.5t49 14q2 2 13.5 10.5t24 18.5t22.5 19.5t14 11.5q23 16 41 16h47q29 0 46.5 -4 t32.5 -11t30.5 -15.5t38.5 -14.5q66 -23 141.5 -28t146.5 -5h95v107l-29 14q-8 4 -56.5 13.5t-109.5 18.5t-121.5 17.5t-95.5 10.5q-4 0 -21.5 1t-44.5 1t-55.5 1t-54.5 1h-60h-49q-23 0 -51.5 -1t-56.5 -1q-27 0 -48.5 -1t-31.5 -1q-27 -6 -51.5 -34t-36.5 -40l-133 -266 q-8 -18 -12.5 -32t-4.5 -30zM29 295l92 -295h350q-16 88 -27.5 137t-25.5 103q-4 25 -10.5 46t-10.5 38q-12 45 -46 71.5t-77 43t-89 26.5t-83 22q-20 -14 -34.5 -36.5t-22.5 -48t-12 -52t-4 -47.5v-8zM119 545q0 -2 5 -7.5t9 -7.5l236 -88q2 0 18 17.5t27 27.5l116 148l1 2 t1 4t-1 5l-1 3q-29 29 -64.5 36t-74.5 7h-8q-12 -4 -44 -16t-66.5 -26.5t-66.5 -28t-44 -17.5q-18 -8 -30.5 -18t-12.5 -33v-8zM367 1327q0 -72 38.5 -111.5t110.5 -39.5t111 39.5t39 111.5t-39 111t-111 39t-110.5 -39t-38.5 -111zM414 825q8 -49 12 -65.5t9 -18.5t16.5 1 t35.5 -5q18 -6 30.5 -17t26 -20.5t30 -16.5t38.5 -7q61 0 101.5 40t40.5 103t-46 102.5t-106 39.5q-37 0 -59.5 -16.5t-40 -37t-37 -40t-51.5 -27.5v-6v-9zM1194 899q31 0 54.5 -14.5t45 -30.5t44 -30.5t55.5 -14.5q59 0 101 42t42 99q0 68 -40 106t-105 38 q-35 0 -57.5 -14.5t-43 -31t-42 -30.5t-54.5 -14v-105z" />
<glyph unicode="d" horiz-adv-x="1769" d="M8 209q4 -27 32 -30t87 -13q72 14 126 33.5t120 23.5q33 0 61.5 -8t57 -17.5t58.5 -16.5t62 -7q31 0 58.5 7t55.5 16.5t55.5 17.5t58.5 8q33 0 64.5 -8t63 -17.5t63.5 -16.5t67 -7q41 0 78.5 9.5t72.5 19.5q20 6 37 9t31 7q10 3 23 3q27 0 71 -11q45 -14 68.5 -21.5 t31.5 -11.5q8 -2 14.5 -3t14.5 -1h51h17q10 0 18 1t19 1h6q12 2 29.5 8t35 13.5t28.5 13.5t11 10v17q-35 0 -59.5 -7.5t-45 -15.5t-41 -12t-46.5 0q-12 2 -42 8t-60.5 13t-56.5 13.5l-34 8.5q-10 2 -18 2q-6 0 -11 2h-14q-29 0 -55.5 -9.5t-52 -20.5t-52 -20.5t-53.5 -9.5 q-35 0 -69.5 9.5t-68.5 21.5t-69 21.5t-69 9.5q-31 0 -59.5 -9.5t-56.5 -20.5t-57.5 -20t-60.5 -9q-29 0 -57.5 9t-56 20t-56 20.5t-57.5 9.5q-33 0 -65.5 -9.5t-64.5 -21.5t-63.5 -21.5t-64.5 -9.5q-31 0 -56.5 9.5t-54.5 9.5zM12 303q0 -2 1 -5l1 -3q6 -6 21.5 -12.5 t33 -9.5t32 -5t18.5 -2h6q33 0 62.5 9.5t59 20.5t60.5 20.5t62 9.5t60.5 -8.5t59 -17.5t60.5 -16.5t63 -7.5q31 0 60.5 7.5t58.5 16.5t57.5 17.5t59.5 8.5t61.5 -9.5t60 -20.5t59.5 -20.5t63 -9.5q53 0 110.5 20.5t100.5 26.5q16 0 40.5 -2t59.5 -8q68 -10 110 -24 q20 -8 38 -10.5t34 -2.5h8l58 15q12 4 30.5 11t35 13t27.5 13l11 6v16q-31 -14 -52.5 -23.5t-39.5 -14.5t-37.5 -7t-44.5 -2q-16 0 -30.5 2t-30.5 6q-14 4 -48 14.5t-90 26.5h-47q-29 0 -55.5 -8t-53 -17.5t-53 -16.5t-57.5 -7q-37 0 -71.5 9t-69.5 21.5t-70 21.5t-71 9h-9 q-8 -4 -32.5 -13t-55.5 -19q-16 -4 -48 -8.5t-79 -8.5q-66 6 -123 25.5t-118 23.5q-12 -4 -41 -13t-63 -19.5t-62.5 -17.5t-40.5 -9q-2 0 -17.5 -1t-23.5 -1q-29 0 -52.5 2t-54.5 14v-3zM14 0h66l-66 14v-14zM14 102q10 -20 37 -25t51 -5h31q31 0 59.5 9t57.5 19 q30 14 54 20q14 3 34 3q14 0 31 -2q31 8 62.5 1t62 -18.5t62.5 -22.5q27 -9 55 -9h10q29 0 54 4t52 12q27 10 53.5 20.5t69.5 14.5q68 -15 124 -35q46 -16 101 -17q11 0 23 1q41 0 80 9t77 19q18 6 37 11.5t41 9.5q10 3 24 3q40 0 111 -26q55 -26 73 -26h1h43q18 0 43 2 t49.5 9t45 19.5t32.5 30.5h-8q-20 0 -43 -5t-46.5 -11t-49 -10.5t-52.5 -2.5q-14 0 -41.5 6.5t-57.5 14.5t-53.5 14t-29.5 6q-10 2 -20.5 3.5t-22.5 1.5q-29 0 -56.5 -8.5t-55 -17.5t-55 -16.5t-58.5 -7.5q-35 0 -65.5 7.5t-61.5 16.5t-60.5 17.5t-62.5 8.5t-62.5 -8.5 t-59 -17.5t-59.5 -16.5t-63 -7.5t-62.5 7.5t-58 16.5t-56 17.5t-58.5 8.5q-51 0 -93 -10.5t-83 -20.5q-41 -11 -87 -17q-24 -3 -49 -3t-51 3zM193 0q2 0 13 -1t15 -1q41 0 75 16.5t75 16.5q39 0 72.5 -16.5t72.5 -16.5q4 0 15.5 1t13.5 1q-47 20 -85 32.5t-87 12.5 q-29 0 -48.5 -1t-39 -6t-41 -14.5t-51.5 -23.5zM573 918q0 -39 29 -66t70 -27q45 0 71.5 30t26.5 73q0 47 -25.5 69.5t-72.5 22.5q-53 0 -76 -25.5t-23 -76.5zM588 561q0 -25 17.5 -37t39.5 -12q4 0 10.5 1t8.5 3l530 561l-133 131q-2 4 -13.5 9.5t-15.5 7.5h-8h-6 l-184 -193v-176q-12 -14 -43 -48t-65 -72t-64.5 -71.5t-43.5 -46.5q-16 -16 -23 -27.5t-7 -29.5zM678 0q4 0 15.5 -1t15.5 -1q37 0 69.5 16.5t69.5 16.5q41 0 73.5 -16.5t73.5 -16.5q4 0 18.5 1t18.5 1q-29 14 -51.5 23.5t-44 14.5t-41.5 7t-47 2q-25 0 -45.5 -2t-39 -6 t-38.5 -14.5t-47 -24.5zM1092 1298l147 -147l264 14l238 250v193l-266 -252l-355 -29zM1180 0q4 0 11 -1t11 -1q41 0 75 16.5t75 16.5q35 0 64.5 -16.5t66.5 -16.5q2 0 10 1t10 1q-43 18 -79 31.5t-83 13.5t-82.5 -13.5t-78.5 -31.5zM1651 0q4 0 11 -1t11 -1q25 0 41.5 6 t40.5 25q-2 0 -7 1t-7 1q-4 0 -9.5 -1t-7.5 -1q-8 -2 -35.5 -13.5t-37.5 -15.5z" />
<glyph unicode="e" d="M14 0h1755v102l-501 488q-18 12 -38 24.5t-36 26.5h-590l-221 229v15q37 4 73 18.5t62.5 38t43 56t16.5 73.5q0 49 -27 72.5t-72 23.5q-41 0 -67.5 -19.5t-49.5 -47.5q-20 -29 -35.5 -61.5t-17.5 -86.5q-27 -2 -42 -6t-29.5 -8t-23.5 -14.5t-9 -42.5q0 -4 1 -15l1 -10 l344 -362h319l88 -97l-14 -28q-4 -4 -20.5 -29t-32.5 -41q-14 -14 -29.5 -28.5t-44.5 -49.5l-448 -14q-18 0 -24.5 -13.5t-6.5 -27.5v-16v-13q0 -12 3 -30.5t13 -18.5h545l178 178h29q2 -2 14.5 -14t30.5 -30.5t29 -28.5q8 -10 26.5 -32t40 -46.5t40 -46t26.5 -31.5l-1299 2 v-39zM352 987q0 25 10.5 49.5t29 43t42 30.5t47.5 12q51 0 51 -51q0 -57 -40.5 -93t-94.5 -36q-29 0 -37 8t-8 37zM1018 850q6 -29 13 -52.5t21.5 -40t38 -25.5t62.5 -11q57 0 101 31.5t44 95.5v7q0 58 -30 93q-32 37 -111 41q-84 -6 -110 -49q-29 -45 -29 -90z" />
<glyph unicode="f" horiz-adv-x="1429" d="M14 139v289q0 2 6.5 13.5t8.5 15.5q8 12 29.5 43.5t44 66.5t44 67t29.5 44q10 2 36 9t53.5 13.5t53 12.5t35.5 10q2 0 10.5 1t12.5 1q2 0 10 -1t10 -1l-14 -31zM250 782v6v9l7 14t9 14q8 12 27.5 43t40 64t39 61.5t24.5 38.5q2 4 8.5 8t8.5 7h6h8l29 -15 q12 -10 41.5 -27.5t60.5 -36t56.5 -34.5t33.5 -21q10 -4 15 -14zM279 348q0 20 2 32.5t6 25t13 26.5t24 39q10 16 33.5 53t49 77t48 75t32.5 47q23 35 34 40t42 5q41 0 49.5 -9t8.5 -50v-27q0 -16 -3.5 -22.5t-13.5 -24.5q-16 -27 -42.5 -71t-52.5 -86t-45.5 -74.5 t-21.5 -34.5q-4 -6 -14 -17.5t-22.5 -24t-22.5 -21.5t-14 -11q-2 0 -13.5 -1t-19.5 -1q-39 0 -48 8t-9 47zM338 1212v31q0 4 1 13.5t1 11.5l190 309q14 23 22.5 28t29.5 5q53 0 53 -54v-22q-8 -12 -26.5 -44t-40 -66.5t-41 -66.5t-25.5 -44l-31 -60q4 -4 15.5 -8t15.5 -6h6 h8q10 4 14 14q8 14 32 50t49.5 76t48 75t32.5 49l15.5 15.5l15.5 15.5l2 1t4 1t5 -1l3 -1l148 -88q4 -2 8 -13.5t6 -17.5q2 -4 4 -16.5t4 -27.5t4 -27.5t2 -16.5q2 -25 6.5 -85t9.5 -127.5t9 -129t6 -86.5l324 -633q12 -27 39.5 -34t55.5 -11t49.5 -16t21.5 -49h-74 q-49 0 -92 18.5t-74 75.5l-324 620l-516 324q-16 10 -16 18zM764 1651q0 6 1 18t5 24.5t10 21.5t17 9h190q10 0 17.5 -11t10.5 -24.5t4 -26.5t1 -17q0 -57 -36 -92t-91 -35q-59 0 -94 38t-35 95zM766 1077q2 -4 19.5 -15t25.5 -15q4 -2 11 -3l7 -2v33q0 29 -2 62.5t-16 56.5 q-4 -8 -15.5 -36t-13.5 -38zM1221 45q0 23 10 41t37 18t38 -18t11 -41q0 -47 -49 -47q-47 0 -47 47z" />
<glyph unicode="g" horiz-adv-x="1607" d="M10 0h1436q2 0 6 5t8 9l1 3t1 6q0 2 -1 4l-1 2q-4 6 -9 14l-5 8h-621v436q0 33 20.5 49.5t46.5 30t46 30.5t20 52v383h-243v-207l-23 -28l-338 309h-73q-2 0 -7.5 -10.5t-7.5 -18.5l-1 -3q-1 -3 -1 -7q0 -2 1 -4l1 -2l436 -445l7 -514v-51h-680q-6 0 -10.5 -7t-5.5 -16.5 t-2 -17.5t-1 -10zM279 1532q0 -4 1 -8l1 -4l428 -443h147v15l-473 471q-12 12 -24.5 14t-28.5 2q-20 0 -35.5 -12t-15.5 -35zM463 530q0 -53 31.5 -78.5t78.5 -25.5q98 0 99 102q0 47 -33 77t-80 30q-16 0 -33.5 -10.5t-31 -26.5t-22.5 -35t-9 -33zM1018 930h575v102h-575 v-102z" />
<glyph unicode="h" horiz-adv-x="1740" d="M14 45q2 -20 31 -16q82 10 149.5 55t116.5 109.5t76 142.5t27 151q-2 74 -28 153t-74 145.5t-118.5 113.5t-164.5 55v-24l90 -25q133 -63 199.5 -175t66.5 -251q-14 -102 -42 -166.5t-75 -118t-116.5 -88t-137.5 -61.5zM457 207q0 -4 8 -12.5t18.5 -15.5t19.5 -12t13 -5 q25 0 33 20.5t12 38.5q0 12 3 46t5 71t4 70.5t2 48.5l281 295v30q0 16 -1 38t-15 36l-383 369v-1018zM530 1327l207 -213h262q0 -25 -13 -43t-30.5 -35.5t-31 -35t-13.5 -39.5q0 -18 10.5 -33t21.5 -27t21.5 -25.5t10.5 -27.5q0 -10 -12.5 -26.5t-27.5 -34t-29.5 -35 t-20.5 -29.5q-35 -66 -55.5 -126t-20.5 -132q0 -96 37 -180t101.5 -148.5t148.5 -101.5t180 -37q94 0 177 36t143.5 98.5t95 146t34.5 178.5q0 94 -33.5 179t-94 150.5t-142.5 105.5t-178 46q-41 -4 -76 -8t-76 -19q-16 0 -41.5 9.5t-25.5 29.5q0 2 1 4t1 4l53.5 53.5 t53 59.5t41 65.5t16.5 71.5q0 63 -34 91t-99 28h-562zM575 664v280l148 -147l-133 -133h-15zM838 465q0 86 28.5 163t91.5 138q14 14 35 29.5t25 15.5l162 -147q2 0 11 -1t15 -1q20 0 41 8t21 39q0 2 -5.5 13t-9.5 15q-6 6 -20 22.5t-30.5 36t-31 37t-20.5 23.5q-2 0 -3 5 t-1 9q0 14 15.5 21.5t35 9.5t37.5 1t25 -1q96 0 177 -35t139 -96t90 -143t32 -176q0 -90 -32 -168t-89 -135.5t-134 -89t-167 -31.5q-92 0 -172 33.5t-139.5 93t-93 139.5t-33.5 172zM1280 1305q0 -43 26.5 -78t73.5 -35q43 0 77 28.5t34 75.5t-29.5 77t-75.5 30 q-41 0 -73.5 -27.5t-32.5 -70.5z" />
<glyph unicode="i" horiz-adv-x="1622" d="M12 1176q0 -23 9.5 -71t24.5 -108.5t36.5 -125t45.5 -118t49.5 -87t51.5 -33.5q2 0 10.5 1t10.5 1l325 117q2 0 10.5 1t12.5 1q18 0 22.5 -4.5t14.5 -26.5q8 -23 30.5 -79t49 -119.5t49.5 -120.5t33 -80q4 -14 15 -15.5t22 -1.5q4 0 58 16.5t118.5 40t117 49t52.5 44.5 q0 2 -5.5 18.5t-9.5 26.5q-10 23 -32.5 79t-49 119.5t-49 120t-30.5 78.5v14q29 12 101.5 39t155 57.5t156.5 58.5t103 38q27 8 58.5 26.5t31.5 53.5q0 29 -15.5 49t-46.5 20q-4 0 -8 -1t-6 -1l-1225 -442q-12 -4 -23.5 25.5t-26.5 78t-32.5 105.5t-39 106.5t-49 83 t-62.5 33.5t-49.5 -16.5t-14.5 -50.5zM160 1300q0 -43 24.5 -68.5t69.5 -25.5q41 0 57.5 27t16.5 63q0 45 -16.5 61.5t-63.5 16.5q-35 0 -61.5 -16.5t-26.5 -57.5zM176 1298q0 23 21.5 41.5t44.5 18.5q69 0 69 -60q0 -27 -17.5 -50t-43.5 -23q-29 0 -51.5 21t-22.5 52z M528 1245q0 -35 9.5 -68.5t30 -60t49 -42t69.5 -15.5q72 0 121 52t49 124q0 74 -47 128t-123 54q-80 0 -119 -50t-39 -122zM810 68q1 -38 1 -68h129q0 4 3 23.5t7 49t6 48.5q0 4 2.5 20.5t2.5 26.5q0 35 -9.5 47t-48.5 12q-43 0 -62.5 -24.5t-25.5 -60.5q-5 -31 -5 -64v-10z M1104 264q0 -2 1 -4t1 -4q4 -12 15.5 -42t23.5 -63.5t23.5 -63.5t15.5 -42l3 -6t7 -15.5t9 -16.5t11 -7h127l-110 301q-6 10 -17 14h-8q-6 0 -23.5 -4t-35 -10t-30.5 -15.5t-13 -21.5z" />
<glyph unicode="j" horiz-adv-x="1755" d="M14 590v323q0 2 6.5 7.5t8.5 9.5q4 2 22.5 13t22.5 15l1 2q1 3 1 7l-2 6q-4 6 -12.5 22.5t-17.5 36t-17.5 36.5t-12.5 24v235q6 -4 20.5 -10t31 -12.5t32 -13.5t21.5 -9q12 -4 23.5 -10t19.5 -19l207 -340l1 -2q1 -2 1 -4q0 -10 -26 -24.5t-58.5 -30.5t-65.5 -30.5 t-45 -24.5q-57 -51 -94 -96.5t-68 -110.5zM147 664q23 25 50.5 51t60.5 47.5t68.5 36t72.5 14.5q18 0 30.5 -2t24 -8t25 -15.5t37.5 -21.5q12 -8 44 -26.5t76 -43t94 -53.5t96 -56.5t86 -50t61 -34.5q10 -6 26.5 -17.5t18.5 -13.5t-4 -12t-10 -17q-6 -8 -29 -30.5t-31 -28.5 q-88 25 -169 43t-173 18q-88 0 -153.5 -25.5t-124.5 -94.5q-2 4 -13.5 21t-15.5 24q-10 16 -31.5 58t-45 89t-44.5 89.5t-27 58.5zM395 231q0 70 47 112t115 42q66 0 109 -44t43 -110q0 -76 -44 -117.5t-120 -41.5q-70 0 -110 45.5t-40 113.5zM709 88q29 31 36 72t21 76 q10 2 35.5 10t54.5 17t53.5 18.5t34.5 13.5q2 2 11.5 11t21.5 20.5t23.5 23.5t17.5 19q23 25 55.5 64.5t62 77.5t50.5 65l22 28v41q-25 0 -46 -14.5t-39.5 -35t-34 -43t-27.5 -36.5q-2 2 -13.5 6t-15.5 8q-14 8 -52 32t-80 50.5t-81 49t-53 30.5q0 2 -1 4t-1 4 q0 25 29.5 48.5t69.5 43t80 33t61 15.5q12 2 45.5 4t71.5 5t72 5t46 2q4 0 8 5t6 9l1 2q1 2 1 7q0 2 -1 4l-1 2q-4 4 -19 8t-26 6q-8 2 -30.5 4t-48 4t-49 4t-33.5 2v9q0 49 31.5 80.5t78.5 31.5q55 0 101.5 -34.5t78 -87t49 -111t17.5 -107.5q0 -53 -18.5 -102t-57.5 -90 l-309 -326q-4 -2 -15.5 -7t-15.5 -7q-29 -10 -73 -22.5t-86 -24t-72.5 -19.5t-32.5 -8h-14zM1165 250q16 23 31.5 42t42.5 19q18 0 31.5 -13t13.5 -32q0 -23 -14.5 -35t-36.5 -12q-45 0 -68 31zM1280 170q0 14 8 24.5t17.5 20.5t17.5 22.5t8 28.5t-8 27.5t-17.5 22 t-17.5 20.5t-8 24q0 2 1 6l1 3q4 4 15.5 15t15.5 13l2 1t4 1q4 0 6 -1l2 -1l250 -397h-191l-104 162l-1 3q-1 3 -1 5zM1427 479q0 68 48.5 112t113.5 44q72 0 112 -44t40 -112t-40 -112.5t-112 -44.5q-66 0 -114 44.5t-48 112.5z" />
<glyph unicode="k" horiz-adv-x="1695" d="M14 236l15 -15q4 -4 39.5 -14t83 -22.5t95.5 -23.5t77 -14q4 0 38.5 -2t69.5 -2h37h74q59 0 112.5 5.5t110.5 27.5q18 -20 31.5 -25.5t36.5 -5.5q4 0 12 1t10 1l324 89l102 -222q2 -4 7 -8t9 -6h7q67 0 67 59q0 16 -13 73.5t-37 120t-54.5 112t-65.5 49.5h-8 q-12 -4 -39 -10.5t-57.5 -12.5t-57 -13t-36.5 -9q0 2 -1.5 6t-1.5 8q0 16 3.5 22.5t13.5 22.5l117 176q-37 31 -86.5 38t-104.5 10t-115.5 15.5t-119.5 55.5q-4 -4 -17.5 -10t-28 -13.5t-26.5 -13.5t-19 -8q-14 -6 -33.5 -8t-39 -5t-35.5 -9.5t-23 -20.5l-163 -311 q-6 -16 -21 -17h-31q-43 0 -62.5 14.5t-19.5 57.5q0 6 1.5 19.5t1.5 15.5l108 233l-199 62q-2 0 -6 -6.5t-8 -10.5q-2 -2 -6 -14t-8 -14q-8 -4 -28.5 -7.5t-31.5 -3.5v-417zM102 930q-1 -5 -1 -9q0 -23 18 -36l229 -217l-112 -240v-74h59l147 295v60l-249 249l-11 2 q-10 3 -16 3q-23 0 -36 -5.5t-28 -27.5zM207 1004l29 -31l147 -117h31h28q12 0 33 2t40.5 5l32.5 5l13 2v103h29q6 -47 14 -85t45 -63q8 -4 29.5 -18t48.5 -31.5t50.5 -32t33.5 -20.5q25 -14 38 -23.5t36 -9.5q31 0 30 33q0 31 -28.5 50.5t-63.5 34.5t-65.5 31.5t-34.5 45.5 l-31 221l-43 14l-46 -11q-46 -11 -109.5 -27.5t-132 -34t-111.5 -29.5q-4 -2 -21.5 -7t-21.5 -7zM735 1092q0 -121 121 -121q119 0 119 121q0 118 -117 118h-2h-2q-119 0 -119 -118zM885 825q63 -43 88 -116q12 -4 41.5 -10.5t61.5 -13.5t61.5 -13t42.5 -8h8h6q4 2 17.5 8 t28.5 14t27.5 14.5t14.5 8.5h16h15l73 -74v-17q-53 12 -107.5 15.5t-107.5 4.5q0 -20 40 -32t92.5 -20t102.5 -17.5t69 -23.5q6 -4 18 -16.5t26.5 -27t27 -26.5t16.5 -18v104l73 -74q2 -2 13.5 4.5t17.5 10.5q2 2 7 6t7 8q-18 45 -48.5 106.5t-56.5 127.5t-40 132 q-8 35 -8 68q0 28 6 54q-4 -4 -15.5 -10.5t-15.5 -6.5q-20 -16 -20 4q0 23 -4 31q-4 12 -4 10l-60 -59l-235 -29q-27 -4 -71 -13t-90 -24.5t-84 -35t-50 -46.5zM1298 383l117 -324q10 -23 11 -27.5t18 -4.5q20 0 34.5 8t14.5 31q0 4 -1 11t-3 11q-4 14 -16.5 50t-27.5 76 t-27.5 76t-16.5 50q-8 23 -22.5 41t-43.5 18q-10 0 -22.5 -1t-14.5 -15z" />
<glyph unicode="l" d="M14 -10v37q49 0 94.5 12t89.5 25.5t88 25.5t91 12q37 0 71.5 -9t69.5 -21.5t71 -21.5t73 -9t70.5 10t66 21.5t65.5 21.5t68 10q43 0 84 -12t81 -25.5t81 -25.5t84 -12q35 0 66.5 11t62 25.5t62.5 25.5t67 11h14q4 0 26.5 -5t32.5 -9q18 -6 49 -15.5t60 -18.5t48 -17 l19 -8v-19q-31 0 -60.5 8.5t-59 18.5t-58 18t-59.5 8q-39 0 -75 -10t-70.5 -23.5t-71.5 -23.5t-76 -10q-41 0 -77 10t-70.5 23.5t-71.5 23.5t-76 10q-37 0 -69.5 -10t-65.5 -22.5t-66.5 -22.5t-68.5 -10q-41 0 -78 10t-75 22.5t-75.5 22.5t-78.5 10q-47 0 -90.5 -11 t-85 -25.5t-85 -25.5t-92.5 -11zM14 133v273h236l147 155h13q6 0 23.5 -3t35.5 -9t32.5 -14.5t14.5 -18.5q-4 -10 -10 -22.5t-17 -22.5q-12 -14 -27.5 -32.5t-19.5 -24.5h281l-45 43h31l692 -250h8h6q6 2 23.5 6t21.5 8q-10 12 -21.5 18.5t-23.5 10.5q-20 8 -72.5 29.5 t-110.5 45t-111.5 44t-73.5 28.5h722v-278q-66 27 -120 43t-119 16q-41 0 -78 -9t-74 -21.5t-73.5 -21.5t-77.5 -9q-39 0 -74 10t-68.5 21.5t-68.5 21.5t-72 10q-35 0 -67.5 -10t-64.5 -21.5t-64.5 -21.5t-65.5 -10q-41 0 -80 9t-76 21.5t-74.5 21.5t-76.5 9q-41 0 -76 -9 t-69.5 -21.5t-69.5 -21.5t-72 -9q-8 0 -26 1l-17 1q-10 0 -20.5 5t-10.5 9zM117 678q0 10 3 25.5t13 19.5l412 133h16q29 0 44.5 -32.5t15.5 -59.5q0 -4 -1 -8l-2 -4l-292 -80l102 -54l1 -1q1 -1 1 -3q0 -4 -1 -7l-1 -3q-2 -4 -7 -8t-7 -6h-8h-9q-4 2 -23.5 8t-42 14.5 t-42 14.5t-23.5 8q-6 0 -30.5 -2t-51 0t-47 11t-20.5 34zM469 627q0 12 13.5 26.5t31.5 26.5t36.5 20.5t29.5 8.5q31 0 53 -14.5t45 -30.5q10 -10 37.5 -31t58.5 -43.5t58.5 -44t37.5 -29.5v14q-6 6 -23.5 25.5t-36.5 41t-35.5 41t-22.5 26.5q-12 14 -27.5 37.5t-33 50 t-33 54.5t-23.5 50v6q0 16 26.5 28.5t61.5 22t68.5 13.5t48.5 4q39 0 81 -26.5t81.5 -68.5t75.5 -95.5t62.5 -107.5t42 -104.5t15.5 -85.5h-268l-50 20q-51 19 -119.5 44.5t-141 52.5t-117.5 45q-6 4 -17.5 8t-13.5 6l-1 4q-1 3 -1 5zM471 1098q0 63 46 110t110 47 q31 0 58.5 -13t49 -34.5t34.5 -50.5t13 -59q0 -72 -41 -107t-106 -35q-31 0 -59.5 9.5t-52 27t-38 44t-14.5 61.5zM648 472q-1 2 -1 3q0 4 8 4q10 0 10 -5q0 -1 -1 -3q-6 -6 -9 -6q-4 0 -7 7z" />
<glyph unicode="m" horiz-adv-x="1724" d="M14 266v191q0 10 10.5 20t20.5 10q8 0 23.5 -10t31 -25.5t25.5 -30.5t10 -24q0 -2 -1 -7t-1 -7q-20 -29 -51 -65.5t-68 -51.5zM14 1171v111q43 6 77 9t65.5 5t62.5 2h72q63 0 106 -7t90 -52l338 -340q16 -16 48 -23.5t70 -8.5q19 0 39 -0.5t41 0.5q42 1 79 1q55 0 92 -12 q4 -2 15.5 -15.5t15.5 -15.5q2 0 20.5 -3t44 -6t37.5 -5h8q23 0 45.5 12.5t46 25.5t48 25.5t51.5 12.5q31 0 64.5 -10.5t60 -30t44 -47t17.5 -62.5t-19.5 -63.5t-56.5 -38.5q-4 0 -16 -1t-25 -1q-12 0 -23 -1t-16 -1q-68 0 -103.5 21.5t-63 47t-58.5 47t-88 21.5 q-16 0 -25.5 -2t-23.5 -14h-20q-14 0 -30 -1t-32 -1h-20h-78q-33 0 -66 2t-68.5 5t-82.5 9q-18 4 -44 25.5t-50.5 44t-43 39t-24.5 10.5l-318 -318l-192 193l303 332l1 2t1 4t-1 5l-1 3q-12 14 -33.5 39.5t-25.5 25.5h-355zM55 600q0 29 13.5 48.5t44.5 19.5q4 0 11 -1t9 -3 l576 -576v-18q0 -27 -11.5 -48.5t-42.5 -21.5h-6q-6 4 -16 8l-15 6l-559 561q-2 2 -3 11.5t-1 13.5zM647 1198q0 61 26.5 96t92.5 35q57 0 96 -33.5t39 -93.5q0 -57 -38 -92t-91 -35q-61 0 -93 32t-32 91zM1399 766q0 -29 14 -49.5t37 -32.5t48.5 -17t49.5 -5q20 0 41 2 t38.5 9t28.5 21.5t11 38.5q0 66 -43 87.5t-98 21.5q-20 0 -43 -2t-41.5 -9.5t-30.5 -22.5t-12 -42zM1518 1157q10 0 32.5 -1t46 -6t41 -15.5t17.5 -26.5t-11.5 -40t-28 -46.5t-38 -38.5t-39.5 -16q0 49 -10 96t-10 94z" />
<glyph unicode="n" horiz-adv-x="1445" d="M12 1288q0 29 4 42t35 13t54.5 -26.5t42 -65.5t33 -85t25.5 -82.5t22.5 -60.5t21.5 -19l1106 397q2 0 7 1t9 1q29 0 44.5 -20.5t15.5 -49.5q0 -27 -18.5 -41t-41.5 -24l-547 -207q-8 -2 -18 -7t-10 -7l102 -310q0 -2 1 -12t1 -16q0 -31 -36 -57.5t-84 -46t-96 -32 t-73 -12.5h-8q-6 18 -22.5 61.5t-35 92.5t-35.5 93t-24 62q-4 8 -15 29t-15 31q-25 -10 -60 -22.5t-71.5 -25t-72.5 -20.5t-63 -8q-20 0 -36.5 20.5t-29.5 48t-22.5 55.5t-13.5 40q-16 43 -29.5 76.5t-23.5 64.5t-16.5 61.5t-6.5 67.5zM72 1548q0 61 37.5 98t97.5 37 q61 0 97 -36.5t36 -98.5q0 -63 -37 -99t-98 -36q-57 0 -95 39t-38 96zM102 1548q0 -41 32 -72.5t73 -31.5q47 0 75.5 30.5t28.5 73.5q0 41 -27.5 73t-72.5 32q-41 0 -75 -30t-34 -75zM469 1319q0 53 35 90t88 37q59 0 88 -33t29 -86t-25 -87t-82 -34t-95 26t-38 87zM662 414 q0 16 10 25.5t25.5 13.5t31.5 5t29 1q4 0 14 -1l10 -1l103 -295q0 -2 1 -14.5t1 -18.5q0 -33 -12.5 -52.5t-51.5 -19.5q-16 0 -27.5 10.5t-19.5 24.5t-14 29.5t-10 25.5q-6 14 -19.5 49t-27 75t-25.5 76t-16 50q0 2 -1 7.5t-1 9.5zM856 487v15q0 8 9 14t22.5 10t27 5t21.5 1 q12 0 22.5 -1t14.5 -15l182 -516h-123z" />
<glyph unicode="o" d="M14 143q23 0 43.5 15.5t44.5 17.5q12 8 44 32.5t68 53.5t66.5 55.5t43.5 36.5q6 4 17 14.5t23.5 22.5t21.5 22.5t11 14.5q8 12 16.5 46t16.5 71t16.5 64.5t18.5 27.5q4 0 4 -2h2q10 -86 27.5 -170t62.5 -156l309 148l1 2t1 4q0 31 -25.5 57.5t-49.5 40.5q-25 10 -77 31.5 t-108.5 45.5t-105.5 44t-64 27q-6 2 -23.5 7t-21.5 7h-8h-6q-2 -4 -7 -14.5t-7 -16.5l-60 -190q-10 -25 -28.5 -48.5t-41 -44t-47 -38t-45.5 -31.5v14l207 369q10 18 18.5 24.5t24.5 6.5q4 0 9.5 -1t7.5 -1l397 -162q2 0 9 -1t11 -1q10 0 22.5 1t16.5 15v14q0 10 1 22.5 t1 23.5v14q0 27 -4 60.5t-15 63t-33.5 50t-59.5 20.5q-23 0 -31 -8t-8 -28q0 -25 4 -42.5t12 -41.5h-14l-295 104h-29q-39 0 -47 -16.5t-12 -57.5l-326 -606v-33zM412 991q0 -66 37.5 -101.5t103.5 -35.5q68 0 104.5 37t36.5 104q0 63 -34.5 102.5t-106.5 39.5 q-66 0 -103.5 -40t-37.5 -106zM426 170q0 -20 24.5 -39.5t57.5 -35t64.5 -25t45.5 -11.5q12 -2 39 -4t57.5 -4t57.5 -4t39 -2q33 -41 68.5 -45t78.5 -4h15q14 0 32.5 2t26.5 2q-55 23 -103 59.5t-104 59.5q-53 -4 -101 -5h-14q-41 0 -79 5q-45 6 -88 23.5t-86 50.5 q-4 -2 -14.5 -7.5t-14.5 -9.5l-1 -2t-1 -4zM528 244q0 -10 11.5 -19.5t27 -16.5t30.5 -11t21 -4h222q35 -35 66.5 -58.5t65.5 -37t72.5 -19.5t88.5 -6q76 0 157.5 16t157.5 49t141.5 84t106.5 119q4 8 11 22.5t15.5 29t13.5 24.5t5 12v223q-160 0 -317.5 -35.5t-310 -94 t-299 -130.5t-284.5 -141q0 -2 -1 -3t-1 -3zM899 766q2 -8 33 -12t71.5 -8.5t66.5 -16.5t63 -12q47 12 75.5 24.5t67.5 12.5t70.5 -9.5t72.5 -9.5h19q12 0 22 1t19 1h10q4 0 14 4t22.5 10.5t23 10.5t14.5 4t14 -4t22.5 -10.5t22.5 -10.5t14 -4q2 0 17.5 -1t25.5 -1 q27 0 50.5 4t39.5 27q-29 -2 -57.5 5t-55 16.5t-50.5 17.5q-20 6 -36 6h-7q-4 0 -19.5 -6t-32 -14.5t-32 -15.5t-19.5 -9q-2 0 -14 -1t-19 -1q-41 0 -74.5 12t-70.5 35q-23 -18 -41 -26.5t-35.5 -12.5t-35 -7t-37.5 -9q-37 10 -69 15t-60 26z" />
<glyph unicode="p" horiz-adv-x="1636" d="M14 0l207 207l29 14l30 2q29 2 69 4t82 4t71 5q25 2 50.5 3t48 9t36.5 23.5t14 45.5q0 16 -1 34t-15 32l-459 428h-20v-487l-142 -148v-176zM233 913q0 -25 13.5 -38t34.5 -35l116 -117q12 -12 35 -31.5t25 -19.5h280l250 -215q4 0 15.5 -1t15.5 -1q16 0 30.5 1t28.5 15 q68 66 136.5 136.5t127.5 144.5q0 4 1 11t1 11q0 55 -55 55q-4 0 -11 -1t-9 -3l-250 -235l-193 192q0 6 -2 22.5t-4 35t-4 36t-4 23.5q-2 4 -6 15.5t-8 15.5l-252 250q-16 16 -43 16q-4 0 -10 -1l-5 -1q-27 -25 -60.5 -56.5t-67 -67.5t-66.5 -71.5t-57 -68.5q0 -2 -1.5 -7 t-1.5 -10zM295 369v147h14l148 -147h-162zM414 944l88 103l102 -103h-190zM856 856q0 -47 28.5 -76.5t73.5 -29.5q47 0 76 30.5t29 75.5q0 41 -27.5 71.5t-68.5 30.5q-20 0 -40 -4t-34 -16t-25.5 -38t-11.5 -44zM1139 1298q0 -20 14 -35.5t37 -15.5q27 0 40 14.5t13 36.5 q0 27 -7 41.5t-36 14.5q-25 0 -43 -13.5t-18 -42.5zM1286 223q0 -23 14.5 -37t36.5 -14q53 0 54 51q0 25 -7.5 39t-35.5 14q-25 0 -43.5 -12t-18.5 -41zM1405 1128q0 -23 14.5 -37t36.5 -14q51 0 51 51q0 25 -7 39.5t-36 14.5q-25 0 -42 -11.5t-17 -42.5zM1475 451 q0 -23 15 -38.5t36 -15.5q25 0 39 15.5t14 38.5q0 25 -6 39t-35 14t-46 -12t-17 -41zM1516 788q0 -20 14 -35.5t37 -15.5q27 0 40 14.5t13 36.5q0 25 -7 39.5t-36 14.5q-25 0 -43 -11.5t-18 -42.5z" />
<glyph unicode="q" d="M14 877v81h885l59 -36h457q37 0 97.5 -22.5t118 -59.5t98 -83t40.5 -93v-664h-161q-4 0 -15.5 10t-15.5 19l-131 192q-10 12 -41 51t-65.5 83t-67.5 86t-47 61q-18 23 -27.5 34t-32.5 11q-4 0 -9 -1l-5 -1l-221 -103q-2 0 -7 -1t-10 -1q-33 0 -80 46t-97 105.5t-97 115 t-78 75.5q-25 14 -51.5 17.5t-49 9.5t-40 19.5t-23.5 48.5h-383zM752 811q4 -8 21.5 -30.5t23.5 -28.5q12 -12 31.5 -33t38 -39t32.5 -32l14 -13h17q2 2 22.5 16.5t49 37t45.5 34.5l14 14l1 3t1 5l-1 3q-1 2 -1 4q-47 6 -79 18t-69 41h-161zM1001 1151q0 78 42 121t122 43 q78 0 121 -43t43 -121q0 -80 -43 -123t-121 -43q-80 0 -122 43t-42 123z" />
<glyph unicode="r" d="M8 152q0 -18 17.5 -28.5t40 -16t45 -6.5t32.5 -1q33 0 66 10.5t64.5 22.5t63.5 22.5t66 10.5q39 0 74 -10.5t69 -21.5t68.5 -21.5t71.5 -10.5q31 0 61.5 9.5t60.5 21.5t59.5 21.5t62.5 9.5q35 0 66.5 -10.5t62.5 -21.5t61.5 -21.5t63.5 -10.5q37 0 72.5 8.5t69.5 17.5 t66.5 18.5t65.5 11.5h11q43 0 106 -27q74 -29 151 -29h25q14 0 18 19q-39 4 -88 15t-86 22l-36 16q-23 6 -50.5 13.5t-58.5 7.5t-59.5 -9.5t-58 -21.5t-59.5 -22t-61 -9q-39 0 -74.5 9.5t-71.5 21.5t-73 21.5t-75 9.5q-35 0 -66 -9.5t-61.5 -21.5t-62.5 -22t-64 -9 q-33 0 -64 9.5t-60.5 21.5t-61.5 21.5t-64 9.5q-35 0 -69 -9.5t-67.5 -21.5t-67.5 -22t-71 -9q-35 0 -65.5 10.5t-65.5 10.5zM10 45q0 -31 31 -39t59 -8h33q37 0 71 10t66.5 21.5t67.5 21.5t72 10q35 0 67.5 -10t64 -21.5t64.5 -21.5t68 -10q33 0 62.5 10t58 21.5t57.5 21.5 t61 10q35 0 68 -10t65.5 -21.5t66.5 -21.5t71 -10q49 0 93 12.5t87 23.5t86 15q10 1 19 1q34 0 71 -11q49 -10 73.5 -20.5t47.5 -14.5q23 -6 49.5 -7t58.5 -1v18q-43 10 -94 16.5t-100 28.5l-21 11q-29 4 -54 5t-52 1q-33 0 -63.5 -8.5t-60.5 -17.5t-59.5 -16t-62.5 -7 q-39 0 -74.5 9t-70.5 21.5t-71 21.5t-75 9q-31 0 -61.5 -9t-60 -21.5t-60.5 -21.5t-63 -9q-35 0 -68 9t-64.5 21.5t-63.5 21.5t-64 9q-35 0 -66 -9t-62.5 -21.5t-64.5 -21.5t-70 -9q-39 0 -68.5 9t-64.5 9zM10 371q0 -33 31 -41t59 -8h33q37 0 70 10t65.5 21.5t64.5 21.5 t68 10q35 0 69 -10t67.5 -21.5t67.5 -21.5t69 -10q33 0 62.5 10t58 21.5t57.5 21.5t61 10q35 0 68 -10t65.5 -21.5t66.5 -21.5t71 -10q47 0 91 12t89 26q42 14 78 14h5q38 -1 83 -12q53 -16 80.5 -22t50.5 -12q23 -4 49.5 -5t58.5 -1v18q-43 4 -94 15.5t-100 19.5 q-53 24 -78 24h-2h-53q-33 0 -62.5 -7t-58.5 -16t-59.5 -16.5t-63.5 -7.5q-39 0 -73.5 9.5t-69.5 21.5t-70 21.5t-74 9.5q-31 0 -61.5 -10.5t-60 -21.5t-60.5 -21.5t-63 -10.5q-35 0 -68 10.5t-64.5 21.5t-63.5 21.5t-64 10.5q-35 0 -68 -9.5t-65.5 -21.5t-65.5 -21.5 t-68 -9.5t-64.5 9.5t-64.5 9.5zM10 473q2 -23 20.5 -33t42 -14t48 -5t37.5 -5q72 12 137 34.5t137 22.5q33 0 62.5 -9t58.5 -21.5t57.5 -21.5t63.5 -9t67.5 9t64.5 21.5t63.5 21.5t66.5 9t66.5 -12t63.5 -25.5t62.5 -26t65.5 -12.5q33 0 64.5 9.5t61.5 21.5t60.5 21.5 t65.5 9.5t66.5 -9.5t62.5 -21.5t62.5 -21.5t66.5 -9.5h6q12 4 37 9.5t22 7.5v6q-53 0 -101 12t-96 27.5t-97.5 29t-102.5 13.5q0 2 -1 3t-1 3t1 5l1 3l14 14q8 8 30 26.5t44.5 40t43 40t30.5 27.5h6q27 0 54.5 -20.5t56 -47.5t58.5 -54.5t60 -39.5v116q0 2 -18 20.5 t-45 44.5t-53.5 53.5t-44.5 45.5q-23 20 -33 25.5t-35 5.5q-2 0 -10 -1t-10 -1l-267 -236q-8 -10 -24.5 -20t-20.5 -10l-811 -29q-53 -23 -113.5 -38t-123.5 -38q-39 0 -74 16.5t-76 16.5zM12 258q2 -16 10.5 -22.5t22.5 -10.5t34.5 -7t47.5 -11q43 4 78 11t65.5 16.5 t61 19.5t65.5 16h16l54 -5q35 -7 68.5 -17t67.5 -19.5t71 -9.5q35 0 65.5 9.5t61.5 19.5q29 14 58.5 18t58.5 10q27 -4 66.5 -9t72.5 -19q35 -12 68.5 -21.5t68.5 -9.5q45 0 86 9.5t82 21.5q41 14 79 20q8 1 15 1q32 0 68 -19q41 -8 71.5 -15.5t57 -12.5t54.5 -8t62 -3v18 q-57 0 -105 18.5t-101 18.5q-25 14 -44.5 20.5t-31.5 8.5q-6 2 -23 2h-22q-31 0 -59.5 -9t-57.5 -22q-27 -14 -53.5 -16t-59.5 -4q-43 0 -77.5 7t-67.5 16.5t-65.5 18.5t-75.5 13q-66 -6 -129.5 -29.5t-132.5 -23.5q-35 0 -67 7t-62.5 16.5t-62.5 17.5t-66 8q-35 0 -67 -9 t-63.5 -21.5t-63.5 -21.5t-65 -9h-14q-6 2 -23.5 5t-37 8t-36 9t-22.5 8q0 -2 -1 -4t-1 -4zM956 672q16 -100 113 -101q45 0 78 25t33 76q0 41 -35 75.5t-76 34.5q-53 0 -79 -28.5t-34 -81.5z" />
<glyph unicode="s" d="M14 -8q37 0 70 11t65.5 23.5t66.5 23.5t69 11q37 0 70.5 -10t68.5 -21.5t68.5 -21.5t70.5 -10q31 0 60.5 10t58.5 21.5t59.5 21.5t61.5 10q35 0 66.5 -10t63.5 -21.5t64.5 -21.5t67.5 -10q39 0 76 9t71.5 21.5t65.5 16.5t76 4q33 -2 64.5 -9t62 -15.5t61.5 -16.5t62 -10 q18 0 41.5 3t48 9t45 18.5t30.5 30.5h-8q-41 0 -80 -16t-84 -16q-35 0 -65.5 8t-61 17t-62.5 17.5t-67 8.5t-66.5 -8.5t-62 -17.5t-63.5 -17t-66 -8q-37 0 -71.5 10t-69.5 21.5t-69.5 21.5t-71.5 10q-33 0 -62.5 -10t-59.5 -21.5t-61.5 -21.5t-64.5 -10q-35 0 -66.5 9 t-63.5 21.5t-63.5 21.5t-64.5 9q-37 0 -72 -10t-68.5 -22.5t-68.5 -25t-72 -16.5v-22zM14 98q37 0 71 10.5t67.5 23.5t68.5 23.5t72 10.5q35 0 67.5 -7t64.5 -18.5t64.5 -21.5t67.5 -17q72 14 129 36t125 26q35 0 67.5 -10.5t65.5 -21.5t65.5 -21.5t67.5 -10.5t69 10.5 t67.5 22.5t67.5 22.5t69 10.5t66.5 -10.5t62 -22.5t61.5 -22.5t66 -10.5q27 0 39 2t36 17q8 4 23.5 11t29 13.5t24.5 12.5l11 6v14q-47 -20 -84.5 -32.5t-89.5 -12.5q-35 0 -67.5 9.5t-63 21.5t-63.5 21.5t-68 9.5q-31 0 -60.5 -9.5t-59 -21.5t-58.5 -21.5t-59 -9.5 q-39 0 -74 9.5t-69.5 21.5t-69.5 21.5t-72 9.5q-35 0 -68.5 -9.5t-65.5 -21.5t-65.5 -21.5t-68.5 -9.5q-31 0 -60.5 9.5t-58.5 21.5t-59.5 21.5t-61.5 9.5q-37 0 -72.5 -9.5t-71.5 -21.5t-72 -24.5t-73 -18.5v-21zM14 221q4 0 18.5 -1t18.5 -1q33 0 61.5 9.5t57.5 21.5 t57.5 21.5t59.5 9.5q35 0 67.5 -9.5t64.5 -21.5t64.5 -21.5t69.5 -9.5q33 0 63.5 9.5t61.5 21.5t61.5 21.5t63.5 9.5q35 0 68.5 -10.5t66.5 -21.5t67.5 -21.5t71.5 -10.5q80 0 143.5 19.5t133.5 29.5q12 1 24 1q40 0 78 -15q27 -12 47.5 -17.5t34.5 -9.5q31 -6 70 -6 q6 0 32.5 2t55 8.5t51 15.5t22.5 21v19q-23 0 -42 -8.5t-41 -16.5q-20 -10 -37 -11t-56 -1q-33 0 -53 2t-51 16l-33 8q-29 10 -58.5 16.5t-66.5 6.5q-33 0 -60.5 -10.5t-55 -21.5t-56.5 -19t-63 -4q-11 -1 -22 -1l-48 6q-35 9 -69.5 20.5t-71.5 21.5t-74 10q-35 0 -66.5 -8 t-62.5 -17.5t-63.5 -17.5t-65.5 -8q-35 0 -66.5 8t-63.5 17.5t-63.5 17.5t-66.5 8q-12 0 -32.5 -1t-24.5 -3q-12 -4 -44 -13.5t-67 -20.5t-66.5 -22.5t-44.5 -17.5zM14 322q37 0 72 10t69.5 21.5t69.5 21.5t74 10q35 0 67.5 -10t64.5 -21.5t64.5 -21.5t67.5 -10 q31 0 60.5 10t58.5 21.5t59.5 21.5t61.5 10q35 0 66.5 -10t63.5 -21.5t64.5 -21.5t67.5 -10q39 0 74 10t69.5 21.5t69.5 21.5t72 10q33 0 64.5 -10t62 -21.5t61.5 -21.5t66 -10q18 0 41.5 3t48 10t45 18.5t30.5 29.5q-2 0 -6 1t-8 1t-9 -1l-5 -1q-4 0 -14.5 -4t-22.5 -9 t-23.5 -9.5t-13.5 -6.5h-8h-8q-6 4 -20.5 16.5t-31 27t-31 26.5t-20.5 18l-280 281q-2 6 -4 25.5t-4.5 41t-4.5 41t-2 25.5q-2 31 -6 105.5t-9 158.5t-8 160t-5 106q-4 4 -15.5 14.5t-15.5 14.5l-2 1t-4 1q-14 0 -37 -14t-23 -31v-561q0 -4 -25.5 -17.5t-55 -34t-55 -45 t-25.5 -50.5v-277q-4 0 -11.5 -3t-11.5 -1q-12 2 -29.5 7t-34 10.5l-28.5 9.5l-12 4l-334 319l-35 668q0 2 -5 6t-9 8t-15.5 9.5t-13.5 5.5q-12 0 -31.5 -14.5t-19.5 -29.5v-561q0 -4 -25.5 -17t-56.5 -33.5t-56.5 -45t-25.5 -51.5v-281q0 -4 -27.5 -13t-62.5 -18.5 t-68 -17.5t-41 -8v-18zM500 451q0 25 1 48t15 46q4 -2 15.5 -6t13.5 -9q16 -12 40.5 -34.5t48 -44t41 -37t17.5 -17.5v-14q0 -2 -10 -6t-23.5 -8t-29 -8.5t-25.5 -6.5q-2 0 -18.5 -1t-24.5 -1q-6 0 -23.5 1t-21.5 1q-14 23 -15 46.5t-1 50.5zM543 838q0 -47 33.5 -75 t76.5 -28q49 0 82 25.5t33 79.5q0 47 -36 82.5t-83 35.5q-49 0 -77.5 -37.5t-28.5 -82.5zM1253 471v8v8q4 8 8.5 23.5t6.5 19.5l2 1q2 1 6 1q2 0 4 -1l2 -1l119 -102v-14h-133q-2 0 -6.5 21.5t-8.5 35.5zM1298 834q0 -47 36 -80t81 -33q53 0 79 32.5t26 84.5q0 47 -32 77.5 t-79 30.5t-79 -32.5t-32 -79.5z" />
<glyph unicode="t" horiz-adv-x="1695" d="M10 690q41 0 74 9.5t74 9.5q53 0 100 -16.5t100 -16.5q18 0 44 2t50.5 9t45 19.5t32.5 30.5l-14 15q-33 -12 -78 -27.5t-84 -15.5q-53 0 -103 22.5t-104 22.5q-16 0 -38.5 -2t-45 -8.5t-38 -19.5t-15.5 -34zM10 778q41 0 76 16.5t76 16.5q27 0 50.5 -7t47 -16.5t47 -16.5 t51.5 -7q18 0 48 3t59 12t49.5 24.5t20.5 40.5q-45 0 -89.5 -17.5t-91.5 -17.5q-53 0 -99 16.5t-99 16.5q-16 0 -41 -2t-48.5 -8.5t-40 -18.5t-16.5 -35zM10 868q41 0 81 16.5t81 16.5q25 0 49.5 -7t48 -16.5t48 -16.5t49.5 -7q27 0 39 2t36 14q20 8 53 24.5t35 18.5v19 q-45 0 -83.5 -17.5t-86.5 -17.5q-29 0 -55 7t-52 16.5t-52.5 16.5t-55.5 7q-10 0 -32.5 -5t-45 -15.5t-40 -24.5t-17.5 -31zM10 956q39 0 73 16.5t71 16.5q29 0 55.5 -7t53 -16.5t54 -16.5t56.5 -7q6 0 22.5 1t18.5 1q12 4 32.5 12.5t39 17.5t31.5 17t13 13v18 q-47 0 -88 -18.5t-88 -18.5q-53 0 -98 17.5t-98 17.5q-14 0 -39 -2t-49.5 -8t-42 -19.5t-17.5 -34.5zM14 600q37 0 71 10.5t73 10.5q27 0 50 -5.5t47 -11.5t46.5 -11t48.5 -5q12 0 41 2t57.5 8t50 18.5t21.5 32.5q0 10 -4 15q-39 -14 -83 -30t-87 -16q-29 0 -54.5 7.5 t-50 16.5t-51 16.5t-53.5 7.5q-6 0 -19.5 -1t-15.5 -1q-10 -4 -24.5 -10.5t-28.5 -13.5t-24.5 -13t-10.5 -9v-18zM293 229q0 -23 11 -39t34 -16q29 0 45 19l281 278h147q-12 -39 -14 -65.5t-2 -65.5q0 -74 26.5 -136.5t72.5 -108.5t109.5 -71.5t135.5 -25.5t133 26.5 t107 73.5t72 108.5t26 133.5q0 70 -27 131t-73 107.5t-107.5 74t-130.5 27.5q-35 0 -68 -2t-63 -14h-4l-400 354h-22v-443q-14 -14 -46 -50l-68 -76.5t-68.5 -76.5t-45.5 -48q-29 -35 -45 -47.5t-16 -47.5zM662 1106q0 -16 29.5 -54t66.5 -77t70.5 -68.5t41.5 -29.5h265 l206 -185q4 -2 15.5 -7t15.5 -7h6q12 0 30.5 10t35 23.5t30 26t15.5 14.5q10 10 35.5 36.5t54.5 57.5t53.5 58.5t34.5 39.5l14 29v8q0 25 -16 39t-39 14q-4 0 -11 -1l-7 -1l-222 -207l-3 -1t-5 -1t-4 1l-2 1q-23 10 -47.5 31t-47 42.5t-40.5 42t-29 32.5q-8 18 -10 39.5 t-5 44t-8 42t-20 36.5l-133 133q-10 10 -27.5 24.5t-34 28.5t-28.5 25l-12 10h-45q-2 0 -24.5 -21.5t-53.5 -52.5t-62.5 -63.5t-52.5 -53.5q-16 -16 -23 -27.5t-7 -31.5zM723 600v152l133 -134q-31 -12 -66.5 -15t-66.5 -3zM823 340q0 35 8.5 79t38.5 68q14 0 45 1t60 9.5 t51.5 24t22.5 43.5q0 20 -3.5 33.5t-13.5 36.5q33 10 53.5 13t49.5 3q59 0 115.5 -24.5t99.5 -66.5t69.5 -97t26.5 -117q0 -63 -24.5 -121.5t-66.5 -102.5t-99.5 -69.5t-120.5 -25.5t-120 24.5t-100 67.5t-67.5 100.5t-24.5 120.5zM825 1135l88 90l91 -90h-179zM1237 1042 q0 -39 20.5 -62.5t61.5 -23.5t69.5 30t28.5 69q0 35 -18.5 60.5t-71.5 36.5q-57 -10 -73.5 -37.5t-16.5 -72.5z" />
<glyph unicode="u" horiz-adv-x="1415" d="M12 1284q0 47 33 58.5t74 13.5l780 74h12q10 0 20.5 1t20.5 1h17q57 0 108 -25t97.5 -61.5t87.5 -77.5t79 -74q31 -25 46.5 -45.5t15.5 -58.5q0 -23 -12.5 -45.5t-28.5 -44t-33.5 -40t-30.5 -30.5q-10 -10 -34.5 -36t-53 -54.5t-54.5 -54t-36 -33.5q-4 0 -11 -1t-11 -1 q-20 0 -37 11t-17 34q0 27 16.5 49t31.5 41q8 10 28.5 37.5t44 58.5t44 58.5t30.5 37.5l1 2q1 2 1 4t-1 5l-1 4q-2 4 -13.5 14t-17.5 14q-4 4 -16 15.5t-26.5 22.5t-28 21.5t-17.5 14.5q-2 0 -6 1t-8 1q-41 0 -79 -51t-76 -112.5t-76.5 -113t-77.5 -51.5q-20 0 -59.5 25 t-79.5 56.5t-69.5 62t-29.5 43.5q0 29 20.5 53.5t45 49t45 51t20.5 59.5h-12l-576 -43h-16q-35 0 -54.5 12t-19.5 47zM27 66q0 16 2 27t16 26l586 725l78 -78v-6v-8q-4 -4 -15.5 -21.5t-15.5 -21.5l-485 -607q-4 -4 -16.5 -18t-29 -29.5t-34 -28t-31.5 -12.5q-27 0 -41 14.5 t-14 37.5zM248 649q0 14 15.5 42t39 61.5t53 69.5t56 66t47 49t28.5 21q6 2 20.5 -9t29 -24.5t25.5 -25.5t13 -14l1 -3q2 -3 2 -5t-2 -5l-1 -2q-39 -80 -104 -151.5t-131 -128.5q-4 0 -11 -1t-12 -1q-31 0 -50 15t-19 46zM426 125q0 127 127 127t127 -127t-127 -127 t-127 127zM455 125q0 -47 24.5 -72.5t73.5 -25.5q47 0 72.5 25.5t25.5 72.5q0 98 -98 98t-98 -98zM809 1608q0 8 1 24.5t1 18.5q2 10 6 20t8 10h193q4 0 8 -10t6 -20q0 -2 1 -18.5t1 -24.5q0 -53 -26.5 -87t-85.5 -34t-86 34t-27 87z" />
<glyph unicode="v" horiz-adv-x="1695" d="M14 604v23h326l369 377h-281l-14 14l28 22h310q-53 2 -87 30t-34 81q0 92 92 92q53 -1 79 -35q23 -30 24 -74q0 -7 -1 -14q43 35 61 85q20 49 26 105q5 40 4 81v31q-2 56 -3 98q10 18 19.5 24t25.5 6q23 0 32 -19.5t14 -41.5v-25v-71v-21q0 -51 -3.5 -91t-11.5 -77 t-22.5 -74.5t-36.5 -82.5h131q0 8 2 29.5t5 44t5 44t4 29.5q2 16 20.5 37.5t37.5 21.5q2 0 13 -5t17 -9q4 -4 13 -9l10 -5v-185h493v-30h-473l-20 -23v-117l-37 -30l-281 -29q-2 0 -7 -5t-7 -9l-119 -148l15 -22h929v-23h-1667zM133 0l184 193v309h134v-295h57v295h110v-400 l-28 -36h-221l-74 -66h-162zM897 967q0 -6 1 -21.5t15 -15.5h134q14 0 15 15.5t1 21.5q0 4 -1 20.5t-15 16.5h-134q-14 0 -15 -16.5t-1 -20.5zM1075 1409q0 47 32 79t79 32q43 0 77.5 -35t34.5 -76t-34.5 -76t-75.5 -35q-43 0 -78 35t-35 76zM1104 1419q0 -39 20.5 -66.5 t63.5 -27.5q35 0 58.5 23.5t23.5 60.5q0 41 -28 61.5t-66 20.5q-33 0 -52.5 -19.5t-19.5 -52.5z" />
<glyph unicode="w" horiz-adv-x="1681" d="M14 14v768q33 -25 73 -60.5t78 -73.5t71.5 -72.5t58.5 -59.5q16 -23 16 -45q0 -14 -3 -22.5t-13 -20.5l-193 -207l-28 -207q-4 -12 -12.5 -14t-16.5 -2q-10 0 -20.5 2t-10.5 14zM45 870h457q20 0 34.5 -13t22.5 -32.5t11 -40t5 -32.5q2 -8 4.5 -30t4.5 -44.5t4 -44 t2 -29.5q10 0 32.5 -2t48 -4t48 -4t33.5 -4q20 -4 32.5 -18.5t12.5 -32.5q0 -16 -12.5 -34t-32.5 -18h-310q-4 0 -8 5.5t-6 9.5q-6 16 -12 43.5t-10.5 56.5t-6.5 53.5t-2 36.5l-28 23h-193l-14 14q-15 14 -33 34.5t-37.5 42t-32.5 34.5q-4 4 -9 15t-5 15zM102 383l91 88v8 q0 10 -11.5 22.5t-26 24t-30 21.5t-23.5 14v-178zM602 856q0 35 24.5 55.5t59.5 20.5t58.5 -20.5t23.5 -55.5q0 -33 -27.5 -61.5t-62.5 -28.5q-14 0 -27.5 9t-25 23.5t-17.5 30t-6 27.5zM868 539q0 45 45 51q8 2 33 4t52.5 4t51 4t33.5 2v207q0 2 9.5 13.5t13.5 15.5 q8 10 19.5 20t25.5 10h471l-147 -147q-10 0 -34 -2t-49.5 -4t-48 -5t-30.5 -3q-39 -6 -52.5 -42t-16.5 -76t-4 -72t-15 -32h-312q-23 0 -34 17t-11 35zM897 858q0 35 20.5 54.5t55.5 19.5t55.5 -19.5t20.5 -54.5t-17.5 -63.5t-58.5 -28.5t-58.5 28.5t-17.5 63.5zM1354 469 q0 16 2 32.5t16 28.5l295 279v-764q0 -25 -18.5 -36t-36.5 -11q-23 0 -32 14.5t-12 36t-1 48t2 53.5t-3 49t-18 37l-192 206l-1 10q-1 11 -1 17zM1460 471l88 -88h15v192z" />
<glyph unicode="x" horiz-adv-x="1622" d="M12 745q0 -2 1 -5l1 -3q4 -4 11.5 -8t11.5 -6v-252h74v252h28v-252h74v252h59v-442h273q16 0 31.5 18t26.5 44t18.5 51.5t7.5 39.5h-201v289h766v-289h-190q0 -14 7 -39.5t18 -51.5t27.5 -44t35.5 -18h258v442h59v-252h74v252h28v-252h74v252q4 2 11.5 6t11.5 8l1 3t1 5 l-2 7q-4 4 -11.5 8t-11.5 6v221h-74v-221h-28v221h-74v-213q-33 0 -51.5 3t-30.5 8.5t-22.5 8.5t-28.5 3h-8l-60 -31h-794q-18 23 -31.5 28t-36.5 5q-35 0 -63.5 -12.5t-69.5 -12.5v213h-74v-221h-28v221h-74v-221q-4 -2 -11.5 -6t-11.5 -8zM573 139q0 -16 1 -33.5t1 -31.5 v-15q0 -14 5.5 -36.5t9.5 -22.5h457q2 14 4 50t4 75t4 75t2 50v10q0 23 -11.5 41t-25.5 36.5t-25.5 40t-11.5 50.5q-2 0 -10 1t-10 1q-23 0 -33 -14.5t-28.5 -24.5t-43 -15t-47.5 -11q-33 4 -72 12l-16 6l-31 25l-32 20h-9h-6q-4 -37 -23.5 -82t-50.5 -65v-23 q0 -16 -1 -33.5t-1 -34.5v-20v-31zM647 549q0 -49 26 -84t89 -62q17 -3 36 -3q14 0 30 2q38 4 67 22q31 20 48.5 49t17.5 76q0 66 -43.5 109.5t-114.5 43.5q-31 0 -59.5 -12t-50 -33.5t-34 -49t-12.5 -58.5z" />
<glyph unicode="y" horiz-adv-x="1650" d="M12 668v16q0 27 11.5 51.5t50.5 24.5h413q-8 8 -26.5 32.5t-40 51t-41 51.5t-25.5 35q-12 16 -14 25.5t-2 27.5q0 27 11 54.5t42 27.5q4 0 12.5 -1t10.5 -3l323 -324q14 -14 15.5 -28.5t1.5 -30.5q0 -20 -9.5 -40t-35.5 -20h-664q-20 0 -26.5 16.5t-6.5 33.5zM233 1599 q0 23 19.5 45.5t42.5 22.5h471l399 -399q2 -2 12.5 -4t23.5 -4.5t27.5 -4.5t24.5 -2q18 -2 64.5 -4t97.5 -4t97.5 -4t64.5 -2q14 -14 15 -29.5t1 -33.5v-15q0 -12 -6 -26.5t-24 -14.5h-457l-133 119l-295 -281h-29q-2 0 -16.5 13.5t-32.5 32t-37.5 39t-32.5 34.5 q-8 8 -30.5 36t-28.5 38q4 4 15.5 21.5t15.5 21.5q14 16 49 54t75 80t75.5 80t50.5 52l-60 66h-397q-20 0 -41 27.5t-21 45.5zM723 913v17l102 102l738 15h10q29 0 48 -24t19 -50q0 -14 -5 -37t-27 -23h-885zM797 0v545q2 0 6 1t8 1q8 0 18.5 -2t10.5 -15v-530h-43z M1090 1448q0 53 30.5 85t85.5 32q57 0 97 -33t40 -96q0 -47 -38.5 -85t-87.5 -38q-61 0 -94 41t-33 94z" />
<glyph unicode="z" horiz-adv-x="1650" d="M12 1098q0 -74 14.5 -109t41.5 -57q27 -16 60.5 -42t92.5 -34q37 -25 56.5 -79t32 -109.5t25.5 -97.5t40 -42q20 0 32.5 3.5t34.5 13.5l267 133q8 4 24.5 15.5t18.5 15.5t11 21.5t18.5 36.5t17.5 36.5t12 21.5q4 10 14 15q12 -8 18.5 -20.5t12.5 -26t15.5 -24.5t27.5 -17 l309 -103h37l-213 457q-2 4 9.5 14t19.5 15q10 6 34.5 19t53.5 27.5t54.5 27t35.5 16.5q14 -6 54 -19.5t85 -28t85 -26.5t57 -16q12 -2 38.5 -8.5t34.5 -6.5q35 0 41 9.5t6 33.5q0 31 -17 48.5t-46 27.5q-35 12 -86 29.5t-100.5 34t-85 27.5t-37.5 11h-88q-2 0 -36 -17 l-81 -40.5t-97.5 -48.5t-80.5 -41q-6 -2 -21.5 -10t-32 -17.5t-31 -18.5t-18.5 -13q-4 -2 -9 -6.5t-7 -8.5q-6 -16 -20.5 -56t-31 -84t-30.5 -85t-20 -55q-14 -39 -41 -53.5t-62 -34.5q-18 -10 -48 -24.5t-58.5 -29t-49 -24.5t-22.5 -10h-14l-88 192l-1 4t-1 8q0 35 16 67 t16 66q0 41 -14 83t-41 77t-63.5 57.5t-81.5 22.5q-31 0 -50.5 -13.5t-31 -33.5t-14.5 -45.5t-3 -50.5zM43 1096q0 12 1 31.5t7 38t18.5 30.5t32.5 12q37 0 70 -21.5t57.5 -55t38 -72.5t13.5 -72q0 -29 -25 -59.5t-55 -30.5q-37 0 -66 19.5t-49 48t-31.5 64.5t-11.5 67z M707 1364q0 -49 31.5 -81t80.5 -32q53 0 82 32t29 81q0 53 -29 83t-82 30q-49 0 -80.5 -30t-31.5 -83zM928 504q0 -18 1 -29.5t4 -22t9 -22.5t16 -33l134 -264q4 -10 24.5 -27.5t34.5 -17.5q41 0 50 19.5t9 50.5q0 10 -1 21t-1 14l-161 323q-14 29 -27.5 38t-38.5 9 q-29 0 -41 -16.5t-12 -42.5zM1194 487l229 -487h140l-207 428q-8 18 -25.5 29.5t-38 17.5t-43 9t-41.5 3h-14z" />
<glyph unicode="|" horiz-adv-x="1253" d="M10 424l2 8l88 111h-73v57h90q-6 23 -19.5 44.5t-27 42t-23.5 43t-10 46.5q37 0 59.5 -14t39 -38t31.5 -53.5t38 -62.5h28l-88 162q-2 4 4.5 8t10.5 6h22h23q6 -8 20.5 -31.5t30.5 -49t30.5 -49t20.5 -31.5q6 -10 10.5 -13.5t8.5 -2.5t10 3t16 2v11l-73 147l-1 3 q-2 3 -2 5q0 4 2 5l1 1q2 0 13 7.5t15 9.5h8h7q4 -2 9 -7.5t7 -9.5q6 -10 20.5 -35.5t31 -53t30.5 -52.5t20 -35h590v15l-102 104q2 2 6 7t8 7q4 4 15.5 9.5t13.5 5.5q4 0 21.5 -12.5t23.5 -16.5q18 -18 44.5 -46t53.5 -53.5t45.5 -44t18.5 -20.5v-14l-250 -176l-45 43 q2 4 6 9t8 7q8 4 26.5 16.5t40 26.5t40 26.5t26.5 18.5v15h-590l-118 -162l-2 -1q-1 -1 -3 -1q-16 0 -28.5 6t-12.5 22t9.5 36t23 39.5t25.5 35.5t18 25h-14l-164 -162l-1 -1q-1 -1 -3 -1q-4 0 -7 1l-3 1q-4 4 -15.5 8t-13.5 6l-1 3q-1 3 -1 5l2 6l88 119v15q-4 -2 -14 -6.5 t-15 -8.5l-133 -133q-2 0 -4 -1t-4 -1t-4 1l-2 1q-4 4 -15.5 14.5t-15.5 14.5l-1 3t-1 5z" />
<glyph unicode="&#xad;" d="M14 0h1755v1741h-1755v-1741z" />
<glyph unicode="&#x2000;" horiz-adv-x="875" />
<glyph unicode="&#x2001;" horiz-adv-x="1751" />
<glyph unicode="&#x2002;" horiz-adv-x="875" />
<glyph unicode="&#x2003;" horiz-adv-x="1751" />
<glyph unicode="&#x2004;" horiz-adv-x="583" />
<glyph unicode="&#x2005;" horiz-adv-x="437" />
<glyph unicode="&#x2006;" horiz-adv-x="291" />
<glyph unicode="&#x2007;" horiz-adv-x="291" />
<glyph unicode="&#x2008;" horiz-adv-x="218" />
<glyph unicode="&#x2009;" horiz-adv-x="350" />
<glyph unicode="&#x200a;" horiz-adv-x="97" />
<glyph unicode="&#x2010;" d="M14 0h1755v1741h-1755v-1741z" />
<glyph unicode="&#x2011;" d="M14 0h1755v1741h-1755v-1741z" />
<glyph unicode="&#x2012;" d="M14 0h1755v1741h-1755v-1741z" />
<glyph unicode="&#x2013;" horiz-adv-x="1052" d="M14 0h1024v1741h-1024v-1741z" />
<glyph unicode="&#x2014;" horiz-adv-x="2076" d="M14 0h2048v1741h-2048v-1741z" />
<glyph unicode="&#x202f;" horiz-adv-x="350" />
<glyph unicode="&#x205f;" horiz-adv-x="437" />
<glyph unicode="&#x25fc;" horiz-adv-x="983" d="M0 0v983h983v-983h-983z" />
</font>
</defs>
</svg>
